<?xml version="1.0" encoding="UTF-8"?>
<svg id="Layer_1" data-name="Layer 1" xmlns="http://www.w3.org/2000/svg" xmlns:xlink="http://www.w3.org/1999/xlink" viewBox="0 0 1348.46 778.98">
  <defs>
    <style>
      .cls-1 {
        fill: rgba(255, 255, 255, .5);
        stroke: url(#linear-gradient-3);
      }

      .cls-2 {
        opacity: .5;
      }

      .cls-3 {
        fill: #ffd5bf;
      }

      .cls-3, .cls-4, .cls-5, .cls-6 {
        stroke-width: 0px;
      }

      .cls-7 {
        fill: none;
        stroke: rgba(0, 0, 0, .1);
      }

      .cls-7, .cls-8 {
        stroke-width: 1.22px;
      }

      .cls-8 {
        fill: url(#linear-gradient);
        fill-opacity: .5;
        stroke: url(#linear-gradient-2);
      }

      .cls-4 {
        fill: #dedee4;
      }

      .cls-5 {
        fill: #ccf6ea;
      }

      .cls-6 {
        fill: #fff;
      }
    </style>
    <linearGradient id="linear-gradient" x1="294.04" y1="431.95" x2="923.39" y2="900.35" gradientTransform="translate(-274.87 431.33) rotate(30) scale(1 -.87) skewX(26.57)" gradientUnits="userSpaceOnUse">
      <stop offset="0" stop-color="#fff"/>
      <stop offset="1" stop-color="#fff" stop-opacity="0"/>
    </linearGradient>
    <linearGradient id="linear-gradient-2" x1="160.79" y1="428.25" x2="757.29" y2="707.29" gradientTransform="translate(-274.87 431.33) rotate(30) scale(1 -.87) skewX(26.57)" gradientUnits="userSpaceOnUse">
      <stop offset="0" stop-color="#fff"/>
      <stop offset="1" stop-color="#fff" stop-opacity="0"/>
    </linearGradient>
    <linearGradient id="linear-gradient-3" x1="114.21" y1="519.1" x2="576.58" y2="728.25" gradientTransform="translate(-154.07 544.27) rotate(30) scale(1 -.87) skewX(26.57)" gradientUnits="userSpaceOnUse">
      <stop offset="0" stop-color="#fff"/>
      <stop offset="1" stop-color="#fff" stop-opacity="0"/>
    </linearGradient>
  </defs>
  <path class="cls-8" d="M525.66,3.02l818.03,472.25c5.55,3.21,5.55,8.41,0,11.61l-500.77,289.09c-5.55,3.21-14.56,3.21-20.12,0L4.78,303.72c-5.55-3.21-5.55-8.41,0-11.61L505.54,3.02c5.55-3.21,14.56-3.21,20.12,0Z"/>
  <g class="cls-2">
    <path class="cls-6" d="M462.38,72.22c4.52,2.61,4.52,6.84,0,9.45s-11.85,2.61-16.37,0-4.52-6.84,0-9.45,11.85-2.61,16.37,0Z"/>
    <path class="cls-6" d="M484.9,85.22l75.73,43.72c4.52,2.61,4.52,6.84,0,9.45h0c-4.52,2.61-11.85,2.61-16.37,0l-75.73-43.72c-4.52-2.61-4.52-6.84,0-9.45h0c4.52-2.61,11.85-2.61,16.37,0Z"/>
  </g>
  <g class="cls-2">
    <path class="cls-6" d="M421.45,95.86c4.52,2.61,4.52,6.84,0,9.45s-11.85,2.61-16.37,0-4.52-6.84,0-9.45,11.85-2.61,16.37,0Z"/>
    <path class="cls-6" d="M443.96,108.85l75.73,43.72c4.52,2.61,4.52,6.84,0,9.45h0c-4.52,2.61-11.85,2.61-16.37,0l-75.73-43.72c-4.52-2.61-4.52-6.84,0-9.45h0c4.52-2.61,11.85-2.61,16.37,0Z"/>
  </g>
  <g class="cls-2">
    <path class="cls-6" d="M380.51,119.49c4.52,2.61,4.52,6.84,0,9.45s-11.85,2.61-16.37,0-4.52-6.84,0-9.45,11.85-2.61,16.37,0Z"/>
    <path class="cls-6" d="M403.03,132.49l75.73,43.72c4.52,2.61,4.52,6.84,0,9.45h0c-4.52,2.61-11.85,2.61-16.37,0l-75.73-43.72c-4.52-2.61-4.52-6.84,0-9.45h0c4.52-2.61,11.85-2.61,16.37,0Z"/>
  </g>
  <g class="cls-2">
    <path class="cls-6" d="M339.57,143.12c4.52,2.61,4.52,6.84,0,9.45s-11.85,2.61-16.37,0-4.52-6.84,0-9.45,11.85-2.61,16.37,0Z"/>
    <path class="cls-6" d="M362.09,156.12l75.73,43.72c4.52,2.61,4.52,6.84,0,9.45h0c-4.52,2.61-11.85,2.61-16.37,0l-75.73-43.72c-4.52-2.61-4.52-6.84,0-9.45h0c4.52-2.61,11.85-2.61,16.37,0Z"/>
  </g>
  <g class="cls-2">
    <path class="cls-6" d="M298.64,166.75c4.52,2.61,4.52,6.84,0,9.45s-11.85,2.61-16.37,0-4.52-6.84,0-9.45,11.85-2.61,16.37,0Z"/>
    <path class="cls-6" d="M321.15,179.75l75.73,43.72c4.52,2.61,4.52,6.84,0,9.45h0c-4.52,2.61-11.85,2.61-16.37,0l-75.73-43.72c-4.52-2.61-4.52-6.84,0-9.45h0c4.52-2.61,11.85-2.61,16.37,0Z"/>
  </g>
  <g class="cls-2">
    <path class="cls-6" d="M257.7,190.39c4.52,2.61,4.52,6.84,0,9.45s-11.85,2.61-16.37,0-4.52-6.84,0-9.45,11.85-2.61,16.37,0Z"/>
    <path class="cls-6" d="M280.22,203.38l75.73,43.72c4.52,2.61,4.52,6.84,0,9.45h0c-4.52,2.61-11.85,2.61-16.37,0l-75.73-43.72c-4.52-2.61-4.52-6.84,0-9.45h0c4.52-2.61,11.85-2.61,16.37,0Z"/>
  </g>
  <g>
    <path class="cls-1" d="M646.65,115.96l613.34,354.08c5.61,3.24,5.61,8.49,0,11.72l-408.66,235.92c-5.61,3.24-14.7,3.24-20.31,0L217.68,363.6c-5.61-3.24-5.61-8.49,0-11.72l408.66-235.92c5.61-3.24,14.7-3.24,20.31,0Z"/>
    <path class="cls-7" d="M542.34,187.59l614.05,354.49"/>
    <path class="cls-7" d="M494.24,215.35l614.05,354.49"/>
    <g>
      <path class="cls-6" d="M481.57,232.28c7.35,4.24,7.35,11.12,0,15.36s-19.26,4.24-26.61,0-7.35-11.12,0-15.36c7.35-4.24,19.26-4.24,26.61,0Z"/>
      <path class="cls-6" d="M508.69,247.94l70.62,40.77c3.11,1.79,3.11,4.7,0,6.5h0c-3.11,1.79-8.15,1.79-11.26,0l-70.62-40.77c-3.11-1.79-3.11-4.7,0-6.5h0c3.11-1.79,8.15-1.79,11.26,0Z"/>
      <path class="cls-6" d="M485.67,258.28l45.03,26c1.7.98,1.7,2.57,0,3.54h0c-1.7.98-4.44.98-6.14,0l-45.03-26c-1.7-.98-1.7-2.57,0-3.54h0c1.7-.98,4.44-.98,6.14,0Z"/>
    </g>
    <path class="cls-4" d="M425.67,270.3c7.35,4.24,7.35,11.12,0,15.36s-19.26,4.24-26.61,0-7.35-11.12,0-15.36c7.35-4.24,19.26-4.24,26.61,0Z"/>
    <path class="cls-4" d="M452.79,285.96l70.62,40.77c3.11,1.79,3.11,4.7,0,6.5h0c-3.11,1.79-8.15,1.79-11.26,0l-70.62-40.77c-3.11-1.79-3.11-4.7,0-6.5h0c3.11-1.79,8.15-1.79,11.26,0Z"/>
    <path class="cls-4" d="M429.76,296.3l45.03,26c1.7.98,1.7,2.57,0,3.54h0c-1.7.98-4.44.98-6.14,0l-45.03-26c-1.7-.98-1.7-2.57,0-3.54h0c1.7-.98,4.44-.98,6.14,0Z"/>
    <path class="cls-4" d="M368.36,303.39c7.35,4.24,7.35,11.12,0,15.36s-19.26,4.24-26.61,0-7.35-11.12,0-15.36c7.35-4.24,19.26-4.24,26.61,0Z"/>
    <path class="cls-4" d="M395.48,319.04l70.62,40.77c3.11,1.79,3.11,4.7,0,6.5h0c-3.11,1.79-8.15,1.79-11.26,0l-70.62-40.77c-3.11-1.79-3.11-4.7,0-6.5h0c3.11-1.79,8.15-1.79,11.26,0Z"/>
    <path class="cls-4" d="M372.45,329.38l45.03,26c1.7.98,1.7,2.57,0,3.54h0c-1.7.98-4.44.98-6.14,0l-45.03-26c-1.7-.98-1.7-2.57,0-3.54h0c1.7-.98,4.44-.98,6.14,0Z"/>
    <path class="cls-4" d="M311.05,336.47c7.35,4.24,7.35,11.12,0,15.36s-19.26,4.24-26.61,0-7.35-11.12,0-15.36,19.26-4.24,26.61,0Z"/>
    <path class="cls-4" d="M338.17,352.13l70.62,40.77c3.11,1.79,3.11,4.7,0,6.5h0c-3.11,1.79-8.15,1.79-11.26,0l-70.62-40.77c-3.11-1.79-3.11-4.7,0-6.5h0c3.11-1.79,8.15-1.79,11.26,0Z"/>
    <path class="cls-4" d="M315.14,362.47l45.03,26c1.7.98,1.7,2.57,0,3.54h0c-1.7.98-4.44.98-6.14,0l-45.03-26c-1.7-.98-1.7-2.57,0-3.54h0c1.7-.98,4.44-.98,6.14,0Z"/>
    <path class="cls-4" d="M687.15,363.36l70.62,40.77c3.11,1.79,3.11,4.7,0,6.5h0c-3.11,1.79-8.15,1.79-11.26,0l-70.62-40.77c-3.11-1.79-3.11-4.7,0-6.5h0c3.11-1.79,8.15-1.79,11.26,0Z"/>
    <path class="cls-5" d="M838.62,450.8l70.62,40.77c3.11,1.79,3.11,4.7,0,6.5h0c-3.11,1.79-8.15,1.79-11.26,0l-70.62-40.77c-3.11-1.79-3.11-4.7,0-6.5h0c3.11-1.79,8.15-1.79,11.26,0Z"/>
    <path class="cls-4" d="M629.84,396.44l70.62,40.77c3.11,1.79,3.11,4.7,0,6.5h0c-3.11,1.79-8.15,1.79-11.26,0l-70.62-40.77c-3.11-1.79-3.11-4.7,0-6.5h0c3.11-1.79,8.15-1.79,11.26,0Z"/>
    <path class="cls-5" d="M781.31,483.88l70.62,40.77c3.11,1.79,3.11,4.7,0,6.5h0c-3.11,1.79-8.15,1.79-11.26,0l-70.62-40.77c-3.11-1.79-3.11-4.7,0-6.5h0c3.11-1.79,8.15-1.79,11.26,0Z"/>
    <path class="cls-4" d="M932.77,571.32l70.62,40.77c3.11,1.79,3.11,4.7,0,6.5h0c-3.11,1.79-8.15,1.79-11.26,0l-70.62-40.77c-3.11-1.79-3.11-4.7,0-6.5h0c3.11-1.79,8.15-1.79,11.26,0Z"/>
    <path class="cls-4" d="M572.53,429.53l70.62,40.77c3.11,1.79,3.11,4.7,0,6.5h0c-3.11,1.79-8.15,1.79-11.26,0l-70.62-40.77c-3.11-1.79-3.11-4.7,0-6.5h0c3.11-1.79,8.15-1.79,11.26,0Z"/>
    <path class="cls-5" d="M724,516.97l70.62,40.77c3.11,1.79,3.11,4.7,0,6.5h0c-3.11,1.79-8.15,1.79-11.26,0l-70.62-40.77c-3.11-1.79-3.11-4.7,0-6.5h0c3.11-1.79,8.15-1.79,11.26,0Z"/>
    <path class="cls-4" d="M875.46,604.41l70.62,40.77c3.11,1.79,3.11,4.7,0,6.5h0c-3.11,1.79-8.15,1.79-11.26,0l-70.62-40.77c-3.11-1.79-3.11-4.7,0-6.5h0c3.11-1.79,8.15-1.79,11.26,0Z"/>
    <path class="cls-4" d="M515.22,462.61l70.62,40.77c3.11,1.79,3.11,4.7,0,6.5h0c-3.11,1.79-8.15,1.79-11.26,0l-70.62-40.77c-3.11-1.79-3.11-4.7,0-6.5h0c3.11-1.79,8.15-1.79,11.26,0Z"/>
    <path class="cls-3" d="M666.68,550.05l70.62,40.77c3.11,1.79,3.11,4.7,0,6.5h0c-3.11,1.79-8.15,1.79-11.26,0l-70.62-40.77c-3.11-1.79-3.11-4.7,0-6.5h0c3.11-1.79,8.15-1.79,11.26,0Z"/>
  </g>
  <g>
    <path class="cls-6" d="M551.82,225.52c-.78-.45-1.26-.93-1.46-1.46-.2-.53-.13-1.06.2-1.6.34-.54.92-1.06,1.75-1.54s1.71-.83,2.64-1.03c.93-.2,1.84-.25,2.75-.14.91.11,1.75.39,2.53.83.9.51,1.41,1.08,1.55,1.69.13.62-.07,1.23-.62,1.83l-1.69-.53c.38-.4.53-.79.46-1.17-.07-.38-.39-.74-.97-1.07-.52-.3-1.08-.48-1.67-.53-.59-.06-1.19,0-1.8.15-.61.16-1.22.41-1.81.75-.59.35-1.02.7-1.28,1.06s-.34.71-.24,1.05c.11.34.42.66.94.96.58.33,1.2.52,1.86.55.66.03,1.33-.06,2.01-.28l.94.98c-1.03.33-2.08.45-3.14.38-1.06-.07-2.04-.36-2.94-.88Z"/>
    <path class="cls-6" d="M557.75,228.74l6.07-3.57,1.16.66-1.48.87.05-.19c.27-.08.56-.13.84-.16.29-.03.57-.03.85,0,.25.02.49.07.72.14s.45.15.65.25c.2.1.37.21.51.32l-1.27.74c-.12-.13-.3-.26-.55-.37s-.51-.2-.81-.23c-.28-.04-.56-.05-.83-.03s-.53.08-.79.17c-.25.09-.5.2-.73.33l-3.09,1.81-1.31-.75Z"/>
    <path class="cls-6" d="M561.06,233.79l4.35-1.24-.92.57,3.95-5.3,1.37.78-3,3.88-.35-.2,6.6-1.82,1.32.76-12.08,3.28-1.23-.71Z"/>
    <path class="cls-6" d="M567.46,237.48l8.8-5.18,1.17.67-4.28,2.52.16.09-4.53,2.67-1.33-.77ZM572.86,237.63c-.58-.33-.92-.69-1.03-1.09-.11-.39-.02-.79.27-1.19.29-.4.74-.78,1.34-1.14s1.26-.63,1.94-.8c.68-.17,1.35-.23,2.02-.18s1.28.24,1.84.57.91.68,1.04,1.08.07.81-.19,1.23c-.26.42-.69.81-1.31,1.17s-1.27.62-1.98.78c-.71.16-1.41.2-2.1.14-.69-.07-1.31-.26-1.85-.57ZM573.87,236.8c.34.2.71.31,1.12.33s.81-.02,1.22-.14c.41-.12.8-.28,1.18-.5s.65-.45.84-.69c.19-.24.26-.48.21-.72-.05-.24-.26-.46-.61-.66-.34-.19-.69-.3-1.07-.32-.38-.02-.77.02-1.17.14-.4.12-.8.29-1.2.53s-.69.47-.89.7c-.2.23-.28.46-.23.69.05.22.25.44.61.64Z"/>
    <path class="cls-6" d="M582.42,237.07l1.07-.63,4.16,2.38-1.07.63-4.16-2.38ZM581.53,242.43c-.47-.18-.89-.38-1.25-.61-.37-.22-.63-.46-.8-.71-.16-.25-.18-.51-.04-.77.13-.23.33-.43.59-.6.27-.17.58-.35.92-.56l5.31-3.13,1.33.76-5.23,3.08c-.25.14-.46.27-.64.38s-.29.22-.34.33c-.09.21,0,.41.25.59.26.18.61.36,1.04.54l-1.14.67Z"/>
    <path class="cls-6" d="M586.09,245.25c-.6-.34-.98-.73-1.15-1.15s-.14-.84.11-1.27c.24-.43.68-.83,1.31-1.2s1.33-.64,2.06-.78c.74-.14,1.46-.16,2.18-.07.72.1,1.37.31,1.96.65s.99.73,1.16,1.15c.17.42.14.84-.1,1.27-.24.43-.67.83-1.31,1.2s-1.32.63-2.06.78c-.74.14-1.47.17-2.19.07-.72-.1-1.38-.32-1.98-.66ZM587.37,244.49c.53.31,1.11.43,1.73.36.62-.07,1.22-.27,1.8-.61s.94-.71,1.03-1.06c.09-.36-.13-.69-.65-.99-.36-.21-.74-.33-1.13-.36s-.8,0-1.2.11c-.4.11-.8.28-1.18.5-.59.35-.93.71-1.02,1.07-.09.36.12.69.64.98Z"/>
  </g>
  <g>
    <path class="cls-6" d="M895.82,425.93l.23-.14,12.31-2.58-3.94-2.19,1.55-.95,6.47,3.58-.23.14-12.32,2.59,4.1,2.31-1.56.95-6.58-3.72Z"/>
    <path class="cls-6" d="M907.81,432.95c-.65-.37-1.05-.79-1.2-1.27-.15-.48-.06-.97.26-1.49s.87-1,1.64-1.47,1.61-.82,2.47-1.03c.86-.21,1.71-.28,2.53-.21.82.07,1.56.28,2.2.64s1.07.79,1.23,1.27c.16.48.07.98-.25,1.49s-.87,1.01-1.65,1.48-1.6.82-2.47,1.02c-.87.21-1.72.28-2.54.2s-1.56-.29-2.21-.66ZM909.37,431.99c.58.33,1.24.44,1.96.32.73-.11,1.44-.38,2.15-.81s1.16-.88,1.31-1.3c.14-.42-.07-.8-.65-1.12-.39-.22-.82-.34-1.27-.36-.45-.02-.92.05-1.4.2-.48.15-.95.37-1.42.66-.72.44-1.16.87-1.3,1.3-.14.42.07.8.63,1.11Z"/>
    <path class="cls-6" d="M913.83,436.11l7.53-4.59,1.33.74-2.34,1.43.18.1-5.2,3.17-1.49-.84ZM918.44,438.71l3.65-2.22c.24-.14.49-.31.75-.51.26-.19.47-.4.64-.62.16-.22.23-.44.19-.67-.04-.22-.23-.43-.59-.63-.19-.11-.41-.19-.67-.25s-.54-.08-.86-.06c-.32.02-.67.09-1.06.22s-.81.33-1.27.62l-.45-.75c.64-.39,1.33-.68,2.08-.88.74-.2,1.48-.27,2.22-.22.74.05,1.42.25,2.05.6.5.28.81.56.95.86.14.29.16.58.06.87-.1.28-.27.55-.5.8s-.49.47-.75.67c-.27.19-.49.35-.67.46l-4.24,2.57-1.51-.85Z"/>
    <path class="cls-6" d="M925.55,442.98c-.68-.39-1.12-.83-1.3-1.32-.18-.49-.12-1,.18-1.52.3-.52.84-1.02,1.61-1.49.83-.51,1.7-.86,2.59-1.08.9-.21,1.77-.28,2.62-.21.85.08,1.61.3,2.28.67.71.39,1.13.84,1.25,1.34.13.5-.03,1.03-.47,1.57s-1.14,1.08-2.12,1.6l-1.51-.85.62-.38c.83-.51,1.3-.95,1.43-1.32.12-.38-.09-.72-.64-1.03-.62-.35-1.3-.47-2.03-.38-.73.09-1.51.39-2.34.89-.77.47-1.22.92-1.34,1.34s.1.8.68,1.13c.37.21.79.33,1.24.37s.94,0,1.44-.14l.99,1.16c-.95.27-1.89.37-2.82.29-.92-.07-1.71-.3-2.37-.67ZM926.77,439.51l1.28-.78,4.68,2.62-1.29.78-4.67-2.62Z"/>
  </g>
  <g>
    <path class="cls-6" d="M737.26,333.96l9.55-5.68,1.44.81-9.56,5.68-1.43-.82Z"/>
    <path class="cls-6" d="M741.65,336.46l7.18-4.26,1.29.73-2.23,1.32.17.1-4.95,2.94-1.45-.83ZM746.12,339.01l3.46-2.05c.23-.13.46-.29.71-.47.25-.18.45-.37.6-.58.15-.21.21-.42.17-.63-.04-.21-.23-.42-.57-.61-.18-.1-.4-.19-.65-.25s-.52-.09-.83-.07c-.31.01-.65.08-1.02.2s-.77.31-1.21.57l-.45-.73c.61-.36,1.27-.63,1.98-.81.71-.17,1.42-.23,2.13-.17.71.06,1.37.26,1.98.61.48.27.79.55.92.83.13.28.16.56.06.83-.09.27-.25.52-.47.75s-.46.44-.71.62c-.25.18-.46.32-.64.42l-4.02,2.38-1.46-.83Z"/>
    <path class="cls-6" d="M752.63,342.96c-.6-.34-.95-.74-1.06-1.19-.11-.45,0-.92.33-1.4.33-.48.85-.93,1.57-1.36s1.5-.75,2.32-.95,1.62-.27,2.41-.21,1.49.27,2.1.61.97.74,1.06,1.18c.09.44-.05.89-.41,1.35-.36.46-.9.91-1.63,1.34s-1.47.75-2.27.97c-.79.22-1.57.3-2.34.26-.76-.05-1.46-.25-2.09-.61ZM754.29,342.23c.39.22.8.34,1.24.36.44.02.89-.05,1.36-.19.47-.15.93-.36,1.4-.64s.83-.56,1.08-.83c.24-.27.35-.53.31-.78-.03-.25-.24-.48-.61-.69-.39-.22-.82-.34-1.28-.36s-.94.04-1.42.19c-.48.14-.94.35-1.37.6s-.78.53-1.02.81-.34.55-.31.81c.04.26.24.5.62.72ZM754.68,343.9l5.07-3-.18-.1,4.57-2.7,1.47.83-9.64,5.71-1.28-.73Z"/>
    <path class="cls-6" d="M767.32,341.42l1.48-.88,1.46.83-1.48.88-1.46-.83ZM758.98,346.35l7.24-4.28,1.46.83-7.25,4.29-1.46-.83Z"/>
    <path class="cls-6" d="M766.11,350.65c-.68-.39-1.09-.81-1.23-1.28-.14-.47-.05-.95.27-1.43.32-.49.85-.95,1.58-1.38.75-.44,1.54-.75,2.38-.94s1.66-.25,2.47-.17c.81.08,1.55.31,2.22.69.75.42,1.17.91,1.28,1.45.1.54-.13,1.07-.69,1.58l-1.9-.57c.28-.3.39-.58.35-.86-.05-.28-.24-.51-.58-.7-.38-.22-.8-.34-1.24-.36-.45-.02-.9.04-1.37.18-.47.14-.92.34-1.37.6-.69.41-1.11.82-1.25,1.23s.06.77.61,1.09c.39.22.79.34,1.22.35.42.01.88-.06,1.36-.21l1.13,1.07c-.94.32-1.87.46-2.77.4-.9-.05-1.72-.29-2.46-.71Z"/>
    <path class="cls-6" d="M773.21,354.7c-.48-.27-.78-.56-.91-.87s-.11-.61.05-.9c.16-.29.45-.56.85-.79.35-.21.72-.36,1.11-.47.39-.11.79-.16,1.22-.15s.88.07,1.36.19c.36.09.76.22,1.19.38.43.16.89.34,1.38.54.48.2.99.41,1.53.62l-.86-.1c.51-.3.78-.57.81-.83.03-.26-.2-.53-.7-.81-.3-.17-.66-.29-1.09-.36s-.89-.02-1.37.14l-.88-1.04c.78-.27,1.59-.39,2.42-.35.83.04,1.64.28,2.42.72.59.33,1,.69,1.24,1.07.24.38.22.77-.05,1.18-.14.22-.33.41-.57.59-.24.17-.52.35-.84.54l-4.49,2.64-1.29-.74,1.58-.93-.04.27c-.83.14-1.56.17-2.2.09s-1.26-.29-1.86-.63ZM774.8,354.11c.33.19.69.31,1.05.37s.72.07,1.05.04.6-.08.82-.15c.28-.08.57-.19.84-.35s.5-.28.67-.38l.31.35c-.52-.21-.97-.39-1.35-.53-.38-.15-.71-.27-.99-.37-.28-.1-.54-.18-.78-.24-.24-.06-.46-.09-.67-.11-.21-.01-.4,0-.58.03-.18.03-.35.1-.51.19-.18.11-.3.22-.35.35-.06.13-.05.26.03.4.08.14.23.27.46.4Z"/>
    <path class="cls-6" d="M785.14,354.28l1.28-.75,4.65,2.63-1.28.76-4.64-2.64ZM783.74,360.47c-.53-.2-1-.42-1.41-.67s-.7-.51-.87-.8-.17-.58,0-.88c.16-.27.41-.51.73-.71.32-.2.69-.42,1.11-.67l6.37-3.75,1.48.84-6.28,3.69c-.29.17-.55.33-.76.46-.21.13-.35.26-.42.39-.12.24-.04.47.25.67.29.2.68.4,1.16.6l-1.37.81Z"/>
    <path class="cls-6" d="M788.81,363.6c-.67-.38-1.09-.81-1.25-1.29-.17-.48-.1-.97.21-1.46s.84-.97,1.6-1.41,1.59-.77,2.45-.95c.86-.18,1.7-.23,2.53-.14.83.09,1.57.32,2.23.7s1.1.81,1.27,1.29c.17.48.1.97-.21,1.47s-.84.97-1.6,1.42-1.58.76-2.44.95c-.86.18-1.71.23-2.54.14s-1.58-.33-2.24-.71ZM790.35,362.7c.59.34,1.25.46,1.98.37.72-.09,1.43-.34,2.12-.75s1.14-.84,1.27-1.25c.13-.42-.1-.79-.68-1.12-.4-.23-.83-.36-1.29-.39-.45-.03-.92.02-1.4.16-.48.14-.94.34-1.41.61-.71.42-1.13.84-1.26,1.25-.13.42.09.79.67,1.12Z"/>
    <path class="cls-6" d="M794.96,366.87l7.38-4.33,1.33.75-1.8,1.05.07-.23c.33-.1.66-.17,1.01-.21s.68-.04,1.01,0c.29.02.57.07.84.14s.52.16.75.28c.23.11.42.23.59.37l-1.54.9c-.14-.15-.35-.29-.63-.43-.28-.13-.6-.22-.94-.26-.33-.05-.66-.05-.98-.01-.32.04-.64.11-.94.22-.31.11-.6.24-.88.41l-3.75,2.2-1.5-.86Z"/>
  </g>
  <g>
    <g>
      <path class="cls-6" d="M496.65,37.99c2.37-1.16,4.88-2.2,7.54-3.11.15-.05.24-.05.38-.01,1.43.4,2.87.81,4.32,1.21.29.08.62.13.93.18.45.07.92.11,1.54-.06-.02.14-.04.24-.05.35-.03,0-.06,0-.09.01.11,0,.22,0,.33.01.44.03.83.11,1.14.29.87.5,1.75,1,2.66,1.48.43.23.65.5.65.85.22,0,.42,0,.65,0-.36.5-.07.88.29,1.25.83.86,1.68,1.71,2.53,2.57.08.08.09.14,0,.24-1.8,1.72-3.7,3.41-5.9,4.99l-5,3.16c-2.05.12-3.85.25-5.88.5-.25.03-.43.09-.61.22-1.4.96-4.14,2.76-5.66,3.59-.24.13-.87.43-1.19.32-5.84-1.99-8.65-3.74-12.01-7.27-.15-.16.05-.63.3-.77,1.24-.7,3.58-1.85,5.38-2.78.29-.15.59-.29.87-.45.09-.05.15-.13.18-.2.51-1.07.55-2.49.81-3.56M504.34,42.39s.04,0,.06,0c.37-.23.71-.5,1.13-.7.98-.45,2-.87,3.01-1.3.27-.11.55-.22.83-.31.21-.07.44-.09.6,0,.14.08.14.2,0,.32-.89.81-1.78,1.63-2.91,2.35-.35.22-.73.43-1.1.65-.02-.02-.01,0,0-.01.15-.01.3-.04.45-.04,1.73-.1,3.33-.52,4.85-1.09,1.19-.45,2.36-.92,3.32-1.55.52-.34.92-.72,1.21-1.17-.99.48-2.07.67-3.18.85-.01-.58.1-1.16-.24-1.69.53.26,1.11.46,1.82.54.24.03.53.03.78-.02.48-.09.61-.35.3-.54-.18-.11-.37-.2-.55-.3-.82-.45-1.65-.91-2.47-1.36-.33-.18-.77-.1-.9.18-.07.14-.1.31-.02.43.17.27.4.53.63.79.08.09.22.16.36.26-.97-.17-1.97-.08-2.94-.09.26-.63.55-1.25,1.21-1.82-.41.13-.8.26-1.18.41-.94.37-1.6.88-2.26,1.41-1,.8-1.87,1.63-2.28,2.56-.19.43-.35.85-.53,1.28Z"/>
      <path class="cls-6" d="M514.75,37.22c-2.79-1.55-2.49-4.26.69-6.12,3.18-1.86,7.99-2.03,10.73-.51,2.77,1.54,2.53,4.34-.83,6.2-3.24,1.79-7.94,1.91-10.59.42ZM516.79,35.84c.35-.13.69-.26,1.01-.39.18-.07.27-.07.39.02.16.13.35.24.53.35.81.49,1.88.3,2.69-.11.32-.16.48-.36.48-.58,0-.11-.02-.22-.02-.3.26,0,.52.05.77.02.97-.1,1.59-.61,1.42-1.14-.06-.18-.18-.36-.27-.55.4-.15.8-.31,1.21-.47-.14-.13-.26-.25-.39-.38-.41.16-.8.3-1.22.46-.12-.11-.22-.21-.33-.32.41-.16.8-.31,1.21-.47-.15-.13-.27-.25-.41-.38-.34.13-.66.24-.96.37-.22.09-.32.08-.43-.03-.21-.22-.44-.43-.66-.65-.28.11-.52.2-.79.31.1.09.19.17.26.26.18.2.11.31-.26.45-.94.36-1.88.72-2.81,1.07-.65.25-.65.25-1.03-.08-.04-.04-.18-.07-.25-.05-.26.06-.52.14-.8.22.27.27.52.53.78.79-.43.17-.83.32-1.25.48.13.13.25.25.39.39.43-.16.84-.31,1.25-.47.07.07.12.13.19.18.14.1.07.17-.14.24-.32.11-.63.24-.96.37.13.13.25.25.39.39Z"/>
      <path class="cls-6" d="M511.58,39.1c.17.09.35.18.5.29.05.03.06.12.02.16-.1.1-.24.2-.38.29-.42.27-1.12.32-1.54.12-.33-.16-.3-.71.05-.91.56-.32.65-.33,1.13-.06.07.04.14.08.21.12,0,0,0,0,0,0Z"/>
      <path class="cls-6" d="M518.28,34.31c.49-.19.99-.38,1.5-.57.05-.02.2,0,.22.02.21.24.45.47.59.73.07.13.02.32-.09.45-.21.24-.71.32-1.09.21-.4-.12-1-.56-1.12-.84Z"/>
      <path class="cls-6" d="M520.64,33.4c.56-.21,1.05-.4,1.58-.6.18.21.37.39.5.59.16.25.04.47-.25.6-.39.17-.73.18-1.09-.02-.28-.16-.48-.36-.74-.56Z"/>
    </g>
    <g>
      <path class="cls-6" d="M541.69,62.52c1.1-.33,2.19-.65,3.29-.98,1-.3,2-.61,3.02-.89.15-.04.42-.05.51,0,.99.54,1.97,1.09,2.95,1.65.03.02.04.04.08.09-.41.11-.81.22-1.21.32-5.65,1.45-11.27,2.89-16.86,4.34-.41.11-.65.08-.93-.09-.77-.48-1.57-.93-2.36-1.39l-.35-.21c.22-.06.36-.1.51-.13,1.89-.46,3.78-.91,5.67-1.38.21-.05.46-.18.55-.3,1.6-2.13,3.17-4.26,4.73-6.38.03-.04.05-.09,0-.17l-2.88,1.7c-.16-.09-.28-.16-.4-.23-.25-.14-.49-.28-.75-.41-1.15-.55-2.1-.51-3.26.17-1.17.68-2.33,1.37-3.5,2.06-.12.07-.24.14-.38.23l-2.81-1.63c2.93-1.73,5.85-3.45,8.8-5.19.09.04.18.07.26.11.78.43,1.55.88,2.34,1.31.24.13.22.22-.03.36-.38.2-.73.42-1.18.69.28-.02.44-.03.6-.04,1.09-.08,2.12-.01,3,.32.34.13.58.34.88.5.87.49,1.74.99,2.63,1.47.2.11.22.2.09.36-.96,1.14-1.91,2.29-2.86,3.44-.07.08-.13.16-.19.24.02.02.05.03.07.05Z"/>
      <path class="cls-6" d="M547.27,69.19c-.12.07-.24.14-.36.21-1.58.93-3.17,1.86-4.74,2.8-.29.17-.45.17-.7.01-.75-.46-1.54-.91-2.3-1.36-.09-.05-.17-.11-.28-.18,4.47-2.64,8.91-5.26,13.41-7.91l.68.38c.68.38,1.35.77,2.04,1.14.24.13.23.22-.02.35-.27.14-.52.3-.78.46.06.03.09.05.11.05,2.62-.37,5.73,1.21,4.94,3.28-.3.8-1,1.48-1.96,2.09-1.09.69-2.34,1.24-3.89,1.51-2.39.41-4.78-.18-5.76-1.41-.34-.43-.43-.89-.38-1.42ZM550.67,67.18c-.07.05-.21.13-.32.22-.55.45-.77.93-.35,1.41.39.45,1.05.7,1.97.67,1.33-.04,2.75-.86,2.84-1.63.05-.42-.22-.76-.75-1.01-.98-.46-2.25-.34-3.38.33Z"/>
      <path class="cls-6" d="M530.04,55.79c-.23.09-.42.16-.62.23-2.74.91-5.71.78-7.89-.36-1.76-.91-2.73-2.05-2.32-3.55.35-1.27,1.56-2.29,3.27-3.15,1.68-.84,3.54-1.3,5.66-1.24,3.4.1,6.93,2.11,6.23,4.45-.19.63-.59,1.22-1.25,1.8-.12-.06-.23-.1-.33-.16-.82-.46-1.63-.93-2.45-1.38-.19-.11-.25-.2-.17-.37.33-.67.03-1.22-.78-1.64-.84-.43-1.87-.53-3.01-.23-1.43.37-2.46.98-3.04,1.83-.42.62-.27,1.17.41,1.63.73.49,1.69.68,2.88.48.32-.05.52-.03.73.1.78.46,1.58.91,2.37,1.36.1.06.19.12.32.2Z"/>
      <path class="cls-6" d="M584.28,77.96c1.88,1.05,3.75,2.09,5.61,3.14.27.15.47.35.68.53,1.54,1.42,1.14,2.94-1.11,4.13-2.03,1.08-4.85,1.17-7.02.19-.86-.39-1.64-.84-2.42-1.28-.3-.17-.47-.15-.76.02-1.07.65-2.16,1.28-3.24,1.92l-.4.24-3.23-1.87c3.96-2.33,7.92-4.67,11.9-7.02ZM582.28,82.92c.66.34,1.23.69,1.89.96.73.3,1.53.19,2.2-.24.67-.43.76-.89.18-1.29-.44-.31-.96-.58-1.46-.86-.07-.04-.31-.04-.37,0-.81.46-1.59.93-2.45,1.44Z"/>
      <path class="cls-6" d="M563.95,80.26c-1.78-1.1-2.59-2.35-1.71-3.88.98-1.71,4.03-3,6.91-2.94,3.84.07,7.19,2.32,6.51,4.48-.51,1.64-2.29,2.77-4.97,3.34-2.66.56-4.87.03-6.74-1ZM570.33,78.37c.29-.26.58-.46.78-.69.44-.51.28-1.04-.36-1.4-.64-.36-1.54-.43-2.43-.16-.85.26-1.49.64-1.89,1.15-.37.47-.27.91.32,1.28.6.37,1.37.49,2.21.29.5-.12.94-.32,1.36-.46Z"/>
      <path class="cls-6" d="M594.63,98.01c-1.49-.89-2.5-2.06-2.04-3.49.56-1.75,2.43-2.93,5.33-3.46,2.88-.53,5.31.11,7.3,1.33,1.95,1.2,2.76,2.61,1.71,4.21-1.69,2.58-7.37,4.23-12.3,1.42ZM598.24,94.18c-.26.2-.48.35-.67.52-.62.56-.55,1.17.17,1.62.73.46,1.8.56,2.83.25.8-.24,1.4-.6,1.8-1.07.47-.56.29-1.16-.45-1.56-.73-.4-1.72-.47-2.66-.17-.38.12-.71.28-1.01.4Z"/>
      <path class="cls-6" d="M565.25,73.15l-1.6-.9c-.13.06-.25.11-.34.17-.91.53-1.81,1.06-2.71,1.6-.6.36-.61.57-.05.91.27.16.55.32.86.49-.93.55-1.82,1.08-2.76,1.63-1.08-.63-2.31-1.17-2.81-2.06-.51-.9.03-1.69,1.09-2.38,1-.65,2.08-1.27,3.15-1.89.33-.19.37-.3.03-.48-.72-.38-.71-.39,0-.81.54-.32,1.09-.63,1.62-.96.24-.15.4-.17.66-.03.79.44.8.43,1.62-.05.37-.22.74-.43,1.1-.65.19-.12.33-.15.55-.03.87.5,1.76.99,2.65,1.48.2.11.17.19-.02.3-.56.32-1.11.66-1.67.98-.24.14-.27.23-.02.36.38.19.73.39,1.07.61.08.05.13.2.07.24-.8.49-1.63.98-2.5,1.49Z"/>
      <path class="cls-6" d="M586.25,93l-3.35-1.94c.13-.08.25-.17.37-.24,2.95-1.74,5.9-3.48,8.84-5.22.31-.18.49-.21.81-.02.87.52,1.78,1.02,2.7,1.52.26.14.27.24,0,.38-.42.23-.81.47-1.2.74,1.77-.1,3.38.04,4.75.78-1.21.71-2.39,1.41-3.63,2.14-.15-.09-.29-.17-.44-.25-.42-.22-.82-.46-1.27-.65-1.14-.48-2.12-.44-3.14.14-1.35.77-2.67,1.56-4,2.35-.13.08-.26.15-.44.26Z"/>
    </g>
  </g>
  <g>
    <path class="cls-6" d="M604.52,168.65l14.56-8.38-4.73-2.72,2.71-1.56,11.91,6.84-2.71,1.56-4.73-2.72-14.56,8.38-2.44-1.41Z"/>
    <path class="cls-6" d="M618.2,176.96c-1.1-.63-1.76-1.35-2-2.16s-.06-1.64.51-2.49c.58-.85,1.54-1.66,2.87-2.43s2.78-1.34,4.27-1.66c1.48-.32,2.93-.42,4.32-.28s2.63.52,3.71,1.14,1.78,1.36,2.01,2.17c.24.81.07,1.64-.51,2.49-.57.85-1.53,1.67-2.87,2.44s-2.76,1.33-4.25,1.65c-1.49.33-2.93.42-4.33.28-1.4-.14-2.65-.52-3.75-1.16ZM620.92,175.4c.98.56,2.09.76,3.33.59,1.24-.17,2.47-.6,3.69-1.3s2.02-1.44,2.29-2.15-.08-1.34-1.04-1.89c-.66-.38-1.37-.59-2.14-.63s-1.57.05-2.39.29c-.82.24-1.64.59-2.46,1.06-1.26.72-2.02,1.44-2.28,2.15s.07,1.34,1.02,1.88Z"/>
    <path class="cls-6" d="M622.53,185.69l18.75-10.79,2.17,1.25-9.11,5.24.31.18-9.64,5.55-2.47-1.43ZM633.24,185.63c-1.07-.62-1.67-1.31-1.8-2.08-.13-.76.15-1.55.82-2.36.67-.81,1.65-1.58,2.94-2.33s2.66-1.32,4.06-1.7c1.4-.38,2.76-.54,4.06-.48,1.31.06,2.49.4,3.53,1s1.65,1.29,1.81,2.07c.17.78-.05,1.59-.66,2.43-.61.84-1.57,1.63-2.89,2.39s-2.67,1.3-4.12,1.66c-1.45.36-2.85.49-4.21.4-1.36-.09-2.54-.43-3.55-1.01ZM635.46,183.92c.64.37,1.35.56,2.15.59.79.02,1.61-.1,2.46-.35.85-.26,1.67-.61,2.46-1.07s1.4-.92,1.84-1.41c.44-.49.64-.97.59-1.43-.05-.47-.4-.89-1.06-1.27s-1.31-.55-2.07-.57c-.75-.02-1.54.1-2.36.36-.82.26-1.66.63-2.51,1.12s-1.49.97-1.94,1.44c-.45.48-.66.93-.61,1.37s.4.85,1.06,1.23Z"/>
    <path class="cls-6" d="M643.25,197.65l18.79-10.82,2.18,1.25-9.13,5.26.31.18-9.66,5.56-2.48-1.43ZM654,197.6c-1.08-.62-1.68-1.32-1.81-2.08-.13-.77.14-1.56.82-2.37.67-.81,1.65-1.59,2.95-2.33s2.67-1.32,4.07-1.71c1.4-.38,2.76-.54,4.08-.48,1.31.07,2.49.4,3.55,1.01s1.65,1.3,1.82,2.08c.17.79-.05,1.6-.66,2.44-.61.84-1.57,1.64-2.89,2.4s-2.68,1.3-4.13,1.66c-1.45.36-2.86.49-4.22.4-1.36-.09-2.55-.43-3.57-1.02ZM656.23,195.89c.64.37,1.36.57,2.15.59.79.02,1.62-.09,2.46-.35.85-.26,1.67-.61,2.47-1.07s1.4-.93,1.84-1.42c.44-.49.64-.97.59-1.44-.05-.47-.41-.89-1.07-1.27s-1.32-.55-2.07-.58c-.75-.02-1.54.1-2.37.36-.83.26-1.67.63-2.52,1.12s-1.49.97-1.95,1.45c-.45.48-.66.94-.61,1.38s.4.85,1.07,1.23Z"/>
    <path class="cls-6" d="M663.72,202.79l13.03-7.5,2.19,1.26-3.17,1.83.14-.39c.57-.17,1.15-.29,1.74-.37.59-.07,1.16-.09,1.71-.03.49.03.97.11,1.42.23.46.12.87.27,1.25.46.38.19.7.39.96.62l-2.72,1.56c-.22-.25-.56-.49-1.03-.72-.47-.22-1-.36-1.58-.42-.56-.07-1.12-.07-1.67,0s-1.1.2-1.63.39c-.53.19-1.05.43-1.55.71l-6.62,3.81-2.48-1.43Z"/>
    <path class="cls-6" d="M678.3,211.62c-1.11-.64-1.79-1.37-2.03-2.19s-.07-1.65.51-2.51c.58-.86,1.54-1.67,2.88-2.45s2.8-1.34,4.3-1.67c1.5-.32,2.95-.42,4.36-.27s2.66.53,3.75,1.16,1.8,1.37,2.04,2.19c.24.82.08,1.66-.5,2.52-.58.86-1.54,1.68-2.88,2.45s-2.78,1.33-4.28,1.66c-1.5.33-2.96.42-4.37.28-1.41-.14-2.68-.53-3.79-1.18ZM681.03,210.05c.99.57,2.11.77,3.36.6,1.25-.17,2.49-.6,3.72-1.31s2.03-1.45,2.3-2.16-.09-1.35-1.06-1.91c-.67-.38-1.39-.6-2.17-.64s-1.58.05-2.41.29c-.83.24-1.66.6-2.48,1.07-1.26.73-2.03,1.45-2.29,2.17s.08,1.35,1.04,1.9Z"/>
    <path class="cls-6" d="M698.49,210.43l2.29-1.32,6.98,4.02-2.29,1.32-6.98-4.02ZM689.51,217.67l13.27-7.64c.33-.19.71-.39,1.13-.61.42-.22.88-.41,1.37-.58.49-.17,1.03-.28,1.6-.32.73-.05,1.35-.02,1.88.1.53.12.98.28,1.36.47s.7.37.97.52l1.4.8-2.37,1.37-1.29-.74c-.48-.27-.97-.4-1.48-.37-.51.03-.99.17-1.44.43l-13.9,8-2.49-1.43ZM711.92,213.23l2.67-1.54,2.49,1.43-2.68,1.54-2.49-1.43ZM696.86,221.9l13.07-7.53,2.49,1.43-13.08,7.53-2.49-1.44Z"/>
    <path class="cls-6" d="M714.07,219.39l2.29-1.32,7.8,4.49-2.29,1.32-7.8-4.49ZM711.07,230.1c-.9-.33-1.69-.71-2.38-1.13s-1.17-.87-1.44-1.36c-.27-.49-.24-.99.09-1.52.31-.47.75-.88,1.33-1.23.58-.35,1.23-.73,1.98-1.16l11.38-6.55,2.49,1.43-11.21,6.45c-.53.3-.98.57-1.37.8-.39.23-.64.46-.76.68-.24.42-.11.81.38,1.15.49.35,1.14.69,1.96,1.02l-2.45,1.41Z"/>
    <path class="cls-6" d="M718.33,234.7c-.81-.47-1.31-.96-1.51-1.49-.2-.53-.14-1.05.17-1.56.31-.51.83-.97,1.55-1.39.63-.36,1.29-.64,1.97-.83.68-.19,1.4-.28,2.14-.28.74,0,1.53.11,2.36.32.62.16,1.3.38,2.04.65.74.27,1.53.57,2.36.92.83.34,1.7.7,2.61,1.06l-1.49-.17c.91-.52,1.41-1,1.48-1.45.08-.45-.31-.92-1.14-1.4-.51-.29-1.13-.49-1.88-.61s-1.55-.03-2.41.25l-1.45-1.8c1.38-.48,2.8-.69,4.25-.63,1.45.06,2.84.47,4.16,1.23,1,.57,1.69,1.19,2.06,1.84s.32,1.34-.18,2.05c-.26.38-.61.72-1.05,1.02-.44.3-.94.61-1.51.94l-8.05,4.63-2.19-1.26,2.84-1.64-.1.48c-1.45.25-2.74.31-3.85.18-1.11-.13-2.18-.49-3.19-1.08ZM721.15,233.65c.57.33,1.17.54,1.8.63s1.24.12,1.82.06,1.06-.15,1.44-.27c.5-.14,1.01-.34,1.5-.61.5-.27.9-.49,1.2-.66l.5.6c-.89-.36-1.66-.66-2.31-.91s-1.21-.46-1.69-.63c-.48-.17-.93-.31-1.34-.41-.41-.1-.8-.16-1.16-.18-.36-.02-.7,0-1.02.06s-.62.17-.9.33c-.32.19-.54.39-.65.61-.11.22-.1.45.02.69.12.24.38.47.77.7Z"/>
    <path class="cls-6" d="M729.57,240.77l17.49-10.07,2.53,1.45-8.28,4.77-.31-.18-9.21,5.3-2.21-1.28ZM734.63,244.1c-1.1-.63-1.71-1.34-1.85-2.12-.13-.78.13-1.58.81-2.4.67-.82,1.66-1.6,2.97-2.35s2.69-1.33,4.11-1.72c1.42-.39,2.79-.54,4.12-.47,1.33.07,2.53.41,3.6,1.03s1.68,1.32,1.86,2.11c.18.8-.04,1.62-.65,2.47-.61.85-1.58,1.65-2.91,2.42s-2.7,1.31-4.17,1.67c-1.47.36-2.89.49-4.27.39-1.38-.09-2.59-.44-3.62-1.04ZM736.87,242.37c.65.38,1.38.58,2.19.6.8.02,1.63-.09,2.49-.35.86-.26,1.69-.62,2.49-1.08s1.41-.93,1.86-1.43c.44-.5.64-.98.59-1.45-.05-.47-.42-.9-1.09-1.29s-1.34-.56-2.1-.59c-.76-.02-1.56.09-2.4.35-.83.26-1.68.64-2.54,1.13s-1.5.98-1.96,1.46c-.46.48-.66.95-.61,1.39s.41.86,1.09,1.25Z"/>
    <path class="cls-6" d="M744.72,249.5l17.88-10.29,2.52,1.45-17.88,10.3-2.51-1.45Z"/>
    <path class="cls-6" d="M757.22,257.13c-1.14-.66-1.86-1.4-2.15-2.23-.29-.83-.16-1.68.38-2.55s1.47-1.68,2.8-2.45c1.44-.83,2.92-1.41,4.45-1.75,1.53-.34,3.01-.43,4.44-.28s2.7.54,3.81,1.18c1.17.67,1.85,1.43,2.03,2.27.18.84-.11,1.71-.87,2.61-.76.9-1.98,1.77-3.66,2.62l-2.5-1.44,1.07-.62c1.42-.83,2.25-1.55,2.48-2.18.23-.62-.11-1.2-1.02-1.72-1.03-.59-2.17-.82-3.42-.68s-2.58.62-4.01,1.44c-1.33.77-2.11,1.5-2.34,2.21-.23.71.14,1.34,1.1,1.9.62.36,1.32.57,2.09.65.77.07,1.58,0,2.44-.2l1.61,1.94c-1.62.43-3.21.58-4.77.44s-2.88-.53-3.97-1.15ZM759.45,251.36l2.22-1.28,7.78,4.48-2.22,1.28-7.77-4.48Z"/>
    <path class="cls-6" d="M777.99,269.11c-1.17-.67-1.86-1.42-2.08-2.25-.22-.82-.02-1.67.59-2.52.61-.86,1.58-1.67,2.9-2.43,1.36-.77,2.78-1.33,4.28-1.67,1.5-.34,2.96-.45,4.39-.31s2.72.53,3.87,1.19c1.29.74,2.01,1.59,2.15,2.53.14.95-.3,1.88-1.33,2.78l-3.32-1c.51-.52.74-1.03.68-1.52-.06-.49-.38-.9-.96-1.24-.66-.38-1.38-.59-2.17-.62-.79-.04-1.6.07-2.44.32-.84.25-1.66.6-2.46,1.07-1.25.72-2.02,1.44-2.31,2.17-.29.72.04,1.36.99,1.91.67.39,1.38.59,2.13.61s1.56-.11,2.43-.39l1.92,1.88c-1.69.57-3.34.81-4.93.72-1.6-.09-3.03-.5-4.3-1.23Z"/>
    <path class="cls-6" d="M787.62,274.24l13.19-7.6,2.25,1.29-3.21,1.85.14-.4c.58-.17,1.17-.3,1.77-.37.6-.07,1.18-.08,1.75-.03.5.03.99.11,1.45.24.47.12.89.28,1.28.47.39.19.72.4.99.63l-2.75,1.58c-.22-.26-.58-.5-1.05-.73-.48-.23-1.02-.37-1.61-.44-.57-.08-1.14-.08-1.7,0s-1.12.2-1.66.39c-.54.19-1.06.43-1.57.72l-6.71,3.86-2.55-1.47Z"/>
    <path class="cls-6" d="M793.42,284.35l9.18-2.76-2.01,1.21,9.18-11.01,2.65,1.52-6.94,8.06-.68-.39,13.91-4.06,2.55,1.47-25.45,7.33-2.38-1.38Z"/>
    <path class="cls-6" d="M805.82,291.51l19.1-11,2.26,1.3-9.28,5.35.32.18-9.82,5.66-2.57-1.48ZM816.84,291.51c-1.12-.64-1.74-1.36-1.89-2.15-.14-.79.12-1.6.8-2.42.68-.83,1.67-1.62,2.99-2.38s2.71-1.34,4.15-1.73c1.43-.39,2.83-.54,4.17-.47,1.35.07,2.56.42,3.65,1.05s1.72,1.34,1.9,2.14c.19.81-.03,1.64-.64,2.5-.61.86-1.59,1.67-2.93,2.44s-2.73,1.32-4.21,1.68c-1.49.36-2.93.49-4.32.39-1.4-.1-2.62-.45-3.67-1.06ZM819.09,289.76c.66.38,1.4.59,2.22.61.81.03,1.65-.09,2.52-.35.86-.26,1.7-.62,2.51-1.09s1.42-.94,1.87-1.44c.45-.5.64-.99.58-1.47-.06-.48-.43-.92-1.11-1.31s-1.36-.57-2.13-.6c-.77-.03-1.58.09-2.42.35-.84.26-1.7.64-2.56,1.14s-1.52.98-1.97,1.47c-.46.49-.66.96-.6,1.41s.43.87,1.11,1.27Z"/>
    <path class="cls-6" d="M836.53,289.85l2.32-1.33,8,4.6-2.32,1.34-8-4.6ZM833.6,300.76c-.92-.34-1.73-.73-2.44-1.16s-1.2-.89-1.48-1.39c-.28-.5-.26-1.01.08-1.55.31-.48.76-.9,1.34-1.25.58-.35,1.25-.74,2-1.18l11.52-6.63,2.55,1.47-11.35,6.54c-.53.31-.99.58-1.38.82-.39.24-.64.47-.76.69-.24.43-.1.82.4,1.18.5.36,1.17.7,2.01,1.05l-2.48,1.43Z"/>
    <path class="cls-6" d="M842.32,306.21c-1.15-.66-1.85-1.41-2.11-2.25s-.1-1.7.48-2.57c.58-.88,1.55-1.71,2.92-2.5s2.85-1.37,4.38-1.69c1.53-.33,3.02-.41,4.47-.26s2.74.56,3.87,1.21,1.87,1.42,2.13,2.26c.26.84.11,1.7-.47,2.58-.58.88-1.55,1.71-2.92,2.5s-2.83,1.35-4.36,1.68c-1.53.33-3.02.42-4.48.27-1.45-.15-2.75-.56-3.9-1.22ZM845.1,304.61c1.02.59,2.17.8,3.46.63,1.28-.17,2.55-.61,3.79-1.33s2.06-1.48,2.32-2.21-.11-1.39-1.12-1.97c-.69-.4-1.43-.62-2.23-.67s-1.62.05-2.47.29c-.85.24-1.69.6-2.52,1.09-1.28.74-2.06,1.48-2.31,2.21s.11,1.38,1.09,1.95Z"/>
    <path class="cls-6" d="M856.72,314.51c-1.42-.82-2.21-1.7-2.36-2.64-.15-.94.35-1.85,1.49-2.73l3.09,1.24c-.52.46-.74.93-.65,1.41.08.48.48.93,1.18,1.33.62.36,1.24.55,1.86.58s1.18-.09,1.67-.38c.3-.17.49-.35.55-.53.06-.18-.03-.44-.28-.78-.25-.34-.68-.84-1.28-1.49-.67-.73-1.12-1.35-1.35-1.88-.23-.52-.23-.99-.02-1.4s.66-.81,1.32-1.19c.83-.48,1.74-.78,2.73-.92.99-.14,1.99-.11,3,.09s1.97.56,2.89,1.09,1.53,1.07,1.91,1.65.48,1.17.32,1.76c-.16.59-.59,1.14-1.29,1.65l-3.17-1.2c.5-.36.73-.75.67-1.16-.05-.41-.38-.81-.97-1.19-.56-.37-1.16-.59-1.78-.66s-1.16.03-1.61.29c-.25.15-.4.31-.43.5-.03.19.09.47.36.83.27.36.72.88,1.36,1.55.65.69,1.07,1.29,1.28,1.81.2.52.19.99-.05,1.41s-.7.83-1.39,1.23c-1.34.77-2.81,1.13-4.42,1.09-1.61-.05-3.15-.5-4.64-1.36Z"/>
  </g>
</svg>