<?xml version="1.0" encoding="UTF-8"?>
<svg id="Layer_1" data-name="Layer 1" xmlns="http://www.w3.org/2000/svg" version="1.1" xmlns:xlink="http://www.w3.org/1999/xlink" viewBox="0 0 272 292">
  <defs>
    <style>
      .cls-1 {
        stroke-width: 4px;
      }

      .cls-1, .cls-2, .cls-3 {
        stroke: #ffd5bf;
      }

      .cls-1, .cls-4, .cls-3, .cls-5 {
        fill: none;
      }

      .cls-6 {
        fill: url(#linear-gradient);
      }

      .cls-6, .cls-7, .cls-4, .cls-8 {
        stroke-width: 0px;
      }

      .cls-7 {
        fill: #ffd5bf;
      }

      .cls-9 {
        mask: url(#mask-2);
      }

      .cls-10 {
        fill: #755f54;
        font-family: Manrope-Medium, Manrope;
        font-size: 9px;
        font-weight: 500;
      }

      .cls-2 {
        stroke-width: 2px;
      }

      .cls-2, .cls-8 {
        fill: #fff;
      }

      .cls-11 {
        clip-path: url(#clippath);
      }

      .cls-5 {
        stroke: #000;
        stroke-opacity: 0;
      }

      .cls-12 {
        mask: url(#mask-1);
      }

      .cls-13 {
        mask: url(#mask);
      }
    </style>
    <clipPath id="clippath">
      <rect class="cls-4" width="272" height="292"/>
    </clipPath>
    <mask id="mask" x="-11" y="0" width="283" height="293" maskUnits="userSpaceOnUse">
      <g id="mask0_213_41" data-name="mask0 213 41">
        <path class="cls-8" d="M272,0H-11v292h283V0Z"/>
      </g>
    </mask>
    <mask id="mask-1" x="-11" y="0" width="298" height="293" maskUnits="userSpaceOnUse">
      <g id="mask1_213_41" data-name="mask1 213 41">
        <path class="cls-8" d="M287,0H-11v292h298V0Z"/>
      </g>
    </mask>
    <mask id="mask-2" x="-2" y="2" width="274" height="291" maskUnits="userSpaceOnUse">
      <g id="mask2_213_41" data-name="mask2 213 41">
        <path class="cls-7" d="M1,21C1,12.2,8.2,5,17,5h254v271c0,8.8-7.2,16-16,16H1V21Z"/>
      </g>
    </mask>
    <linearGradient id="linear-gradient" x1="136" y1="355" x2="136" y2="60" gradientTransform="translate(0 294) scale(1 -1)" gradientUnits="userSpaceOnUse">
      <stop offset="0" stop-color="#ffd5bf"/>
      <stop offset="1" stop-color="#fff" stop-opacity="0"/>
    </linearGradient>
  </defs>
  <g class="cls-11">
    <g class="cls-13">
      <g class="cls-12">
        <g>
          <path class="cls-8" d="M1,21C1,12.2,8.2,5,17,5h254v271c0,8.8-7.2,16-16,16H1V21Z"/>
          <g class="cls-9">
            <path class="cls-7" d="M-2,21C-2,10.5,6.5,2,17,2h255l-2,6H17c-7.2,0-13,5.8-13,13H-2ZM272,276c0,9.4-7.6,17-17,17H-2l6-2h251c8.3,0,15-6.7,15-15h2ZM-2,293V21C-2,10.5,6.5,2,17,2v6c-7.2,0-13,5.8-13,13v270l-6,2ZM272,2v274c0,9.4-7.6,17-17,17v-2c8.3,0,15-6.7,15-15V8l2-6Z"/>
          </g>
          <path class="cls-5" d="M20,252h251"/>
          <path class="cls-5" d="M20,212h251"/>
          <path class="cls-5" d="M20,172h251"/>
          <path class="cls-5" d="M20,132h251"/>
          <path class="cls-5" d="M20,92h251"/>
          <path class="cls-5" d="M20,52h251"/>
          <path class="cls-7" d="M32,222c0-5.5,4.5-10,10-10h34c5.5,0,10,4.5,10,10v70h-54v-70Z"/>
          <path class="cls-7" d="M109,182c0-5.5,4.5-10,10-10h34c5.5,0,10,4.5,10,10v110h-54v-110Z"/>
          <path class="cls-6" d="M35.5,84l-3.5,5.3v144.1h208V23l-3.5,6.1c-3.5,6.1-10.4,18.4-17.3,21.5-6.9,3.1-13.9-2.9-20.8-8.8h0c-6.9-6-13.9-12-20.8-4.6s-13.9,28.2-20.8,38.3c-6.9,10.2-13.9,9.7-20.8,8.9s-13.9-1.8-20.8-3.7c-6.9-1.9-13.9-4.5-20.8-3.3-6.9,1.2-13.9,6.2-20.8,3.5-6.9-2.7-13.9-13.2-20.8-13.1-6.9.1-13.9,10.8-17.3,16.1Z"/>
          <path class="cls-3" d="M32,89.4l3.5-5.3c3.5-5.3,10.4-16,17.3-16.1,6.9-.1,13.9,10.4,20.8,13.1,6.9,2.7,13.9-2.3,20.8-3.5,6.9-1.2,13.9,1.4,20.8,3.3,6.9,1.9,13.9,2.9,20.8,3.7s13.9,1.2,20.8-8.9c6.9-10.2,13.9-30.9,20.8-38.3s13.9-1.4,20.8,4.6c6.9,6,13.9,12,20.8,8.9,6.9-3.1,13.9-15.4,17.3-21.5l3.5-6.1"/>
          <path class="cls-7" d="M186,102c0-5.5,4.5-10,10-10h34c5.5,0,10,4.5,10,10v190h-54V102Z"/>
          <g>
            <path class="cls-8" d="M136,182c5.5,0,10-4.5,10-10s-4.5-10-10-10-10,4.5-10,10,4.5,10,10,10Z"/>
            <path class="cls-1" d="M136,180c4.4,0,8-3.6,8-8s-3.6-8-8-8-8,3.6-8,8,3.6,8,8,8Z"/>
          </g>
          <path class="cls-2" d="M59,73c1.7,0,3-1.3,3-3s-1.3-3-3-3-3,1.3-3,3,1.3,3,3,3Z"/>
          <path class="cls-2" d="M136,88c1.7,0,3-1.3,3-3s-1.3-3-3-3-3,1.3-3,3,1.3,3,3,3Z"/>
          <path class="cls-2" d="M213,54c1.7,0,3-1.3,3-3s-1.3-3-3-3-3,1.3-3,3,1.3,3,3,3Z"/>
          <path class="cls-7" d="M161,130h-50c-5.5,0-10,4.5-10,10v5c0,5.5,4.5,10,10,10h50c5.5,0,10-4.5,10-10v-5c0-5.5-4.5-10-10-10Z"/>
        </g>
      </g>
    </g>
  </g>
  <text class="cls-10" transform="translate(104.8 144.1)"><tspan x="0" y="0">+10k bénéfices</tspan></text>
</svg>