<?xml version="1.0" encoding="UTF-8"?>
<svg xmlns="http://www.w3.org/2000/svg" version="1.1" xmlns:xlink="http://www.w3.org/1999/xlink" viewBox="0 0 270 270">
  <defs>
    <style>
      .cls-1 {
        fill: #fce1e1;
        fill-opacity: .2;
      }

      .cls-1, .cls-2, .cls-3, .cls-4, .cls-5, .cls-6, .cls-7, .cls-8, .cls-9, .cls-10 {
        stroke-width: 0px;
      }

      .cls-2 {
        fill: #000;
      }

      .cls-3 {
        fill: #252828;
      }

      .cls-4 {
        fill: #f5b669;
      }

      .cls-11 {
        clip-path: url(#clippath-2);
      }

      .cls-5 {
        fill: #99d3d3;
      }

      .cls-12 {
        clip-path: url(#clippath-6);
      }

      .cls-6 {
        fill: #f8616a;
      }

      .cls-7, .cls-13, .cls-14, .cls-15 {
        fill: none;
      }

      .cls-16 {
        clip-path: url(#clippath-7);
      }

      .cls-17 {
        clip-path: url(#clippath-1);
      }

      .cls-18 {
        clip-path: url(#clippath-4);
      }

      .cls-13 {
        stroke: #f8616a;
      }

      .cls-14 {
        stroke: #99d3d3;
      }

      .cls-19 {
        clip-path: url(#clippath-9);
      }

      .cls-20 {
        clip-path: url(#clippath);
      }

      .cls-8 {
        fill: #fecaca;
      }

      .cls-21 {
        clip-path: url(#clippath-3);
      }

      .cls-22 {
        clip-path: url(#clippath-8);
      }

      .cls-9 {
        fill: #202023;
      }

      .cls-10 {
        fill: #fff;
      }

      .cls-23 {
        mask: url(#mask);
      }

      .cls-24 {
        clip-path: url(#clippath-5);
      }

      .cls-15 {
        stroke: #fecaca;
        stroke-width: 1.4px;
      }
    </style>
    <clipPath id="clippath">
      <rect class="cls-7" width="270" height="270" rx="16" ry="16"/>
    </clipPath>
    <mask id="mask" x="27" y="25" width="217" height="243" maskUnits="userSpaceOnUse">
      <g id="path-4-outside-1_55_742" data-name="path-4-outside-1 55 742">
        <rect class="cls-10" x="27" y="25" width="217" height="243"/>
        <path class="cls-2" d="M30,71.6c0-15.3,0-22.9,3-28.7,2.6-5.1,6.8-9.3,11.9-11.9,5.8-3,13.5-3,28.7-3h123.7c15.3,0,22.9,0,28.7,3,5.1,2.6,9.3,6.8,11.9,11.9,3,5.8,3,13.5,3,28.7v196.4H30V71.6Z"/>
      </g>
    </mask>
    <clipPath id="clippath-1">
      <rect class="cls-7" x="50.4" y="108.7" width="20.2" height="13"/>
    </clipPath>
    <clipPath id="clippath-2">
      <rect class="cls-7" x="80.2" y="108.7" width="20.2" height="13"/>
    </clipPath>
    <clipPath id="clippath-3">
      <rect class="cls-7" x="110" y="108.7" width="20.2" height="13"/>
    </clipPath>
    <clipPath id="clippath-4">
      <rect class="cls-7" x="139.8" y="108.7" width="20.2" height="13"/>
    </clipPath>
    <clipPath id="clippath-5">
      <rect class="cls-7" x="169.6" y="108.7" width="20.2" height="13"/>
    </clipPath>
    <clipPath id="clippath-6">
      <rect class="cls-7" x="199.4" y="108.7" width="20.2" height="13"/>
    </clipPath>
    <clipPath id="clippath-7">
      <rect class="cls-7" x="42.2" y="62.1" width="185.6" height="34.1"/>
    </clipPath>
    <clipPath id="clippath-8">
      <rect class="cls-7" x="49.9" y="69.3" width="19.2" height="19.2"/>
    </clipPath>
    <clipPath id="clippath-9">
      <rect class="cls-7" x="177.3" y="70.7" width="43.8" height="16.8"/>
    </clipPath>
  </defs>
  <g id="Layer_1" data-name="Layer 1">
    <g class="cls-20">
      <g>
        <g>
          <rect class="cls-1" width="270" height="270" rx="21.6" ry="21.6"/>
          <rect class="cls-15" x=".7" y=".7" width="268.6" height="268.6" rx="20.9" ry="20.9"/>
        </g>
        <path class="cls-10" d="M30,71.6c0-15.3,0-22.9,3-28.7,2.6-5.1,6.8-9.3,11.9-11.9,5.8-3,13.5-3,28.7-3h123.7c15.3,0,22.9,0,28.7,3,5.1,2.6,9.3,6.8,11.9,11.9,3,5.8,3,13.5,3,28.7v196.4H30V71.6Z"/>
        <g class="cls-23">
          <path class="cls-8" d="M27.3,55.3c0-16.6,13.4-30,30-30h156.5c16.6,0,30,13.4,30,30h-5.5c0-13.6-11-24.5-24.5-24.5H57.3c-13.6,0-24.5,11-24.5,24.5h-5.5ZM241,268H30h211ZM27.3,268V55.3c0-16.6,13.4-30,30-30v5.5c-13.6,0-24.5,11-24.5,24.5v212.7h-5.5ZM213.7,25.3c16.6,0,30,13.4,30,30v212.7h-5.5V55.3c0-13.6-11-24.5-24.5-24.5v-5.5Z"/>
        </g>
        <path class="cls-8" d="M115.5,37.1h40c4.5,0,8.2,3.7,8.2,8.2h0c0,4.5-3.7,8.2-8.2,8.2h-40c-4.5,0-8.2-3.7-8.2-8.2h0c0-4.5,3.7-8.2,8.2-8.2Z"/>
      </g>
    </g>
  </g>
  <g id="Layer_2" data-name="Layer 2">
    <g class="cls-17">
      <g>
        <rect class="cls-10" x="50.4" y="108.7" width="20.2" height="13" rx="2.9" ry="2.9"/>
        <path class="cls-9" d="M58.4,117.4h.7v-4.2h-1.2v.6h.5v3.6ZM60.5,117.4h.7v-1.8c0-.6.3-.9.8-.9s.8.3.8.9v1.8h.7v-1.9c0-.9-.6-1.4-1.3-1.4s-.8.2-1,.4v-1.5h-.7v4.3Z"/>
      </g>
    </g>
    <g class="cls-11">
      <g>
        <rect class="cls-10" x="80.2" y="108.7" width="20.2" height="13" rx="2.9" ry="2.9"/>
        <path class="cls-9" d="M90,114.2c0-.6-.5-1.1-1.3-1.1s-1.5.8-1.5,2.1.3,2.2,1.5,2.2,1.4-.6,1.4-1.4-.5-1.4-1.3-1.4-.9.2-1.1.5c0-1.1.3-1.5.9-1.5s.6.2.7.5h.6ZM88.7,115.2c.6,0,.8.4.8.9s-.3.8-.8.8-.9-.3-.9-.9.4-.8.8-.8ZM91.4,117.4h.7v-1.8c0-.6.3-.9.8-.9s.8.3.8.9v1.8h.7v-1.9c0-.9-.6-1.4-1.3-1.4s-.8.2-1,.4v-1.5h-.7v4.3Z"/>
      </g>
    </g>
    <g class="cls-21">
      <g>
        <rect class="cls-8" x="110" y="108.7" width="20.2" height="13" rx="2.9" ry="2.9"/>
        <path class="cls-10" d="M115,117.3h2.8v-.5h-1.8c.7-.6,1.7-1.4,1.7-2.4s-.5-1.3-1.3-1.3-1.3.4-1.4,1.4h.6c0-.5.3-.8.7-.8s.7.3.7.7c0,.8-1,1.6-2,2.5v.5ZM120.9,117.4h.6v-.9h.5v-.6h-.5v-2.7h-.8l-1.9,2.8v.5h2.1v.9ZM119.5,115.9l1.4-2v2h-1.4ZM123.1,117.4h.7v-1.8c0-.6.3-.9.8-.9s.8.3.8.9v1.8h.7v-1.9c0-.9-.6-1.4-1.3-1.4s-.8.2-1,.4v-1.5h-.7v4.3Z"/>
      </g>
    </g>
    <g class="cls-18">
      <g>
        <rect class="cls-10" x="139.8" y="108.7" width="20.2" height="13" rx="2.9" ry="2.9"/>
        <path class="cls-9" d="M147.1,117.4h.7v-4.2h-1.2v.6h.5v3.6ZM149.8,117.4h.7l.6-2.3.6,2.3h.7l1-3.2h-.6l-.7,2.5-.6-2.5h-.7l-.7,2.6-.7-2.6h-.7l1,3.2Z"/>
      </g>
    </g>
    <g class="cls-24">
      <g>
        <rect class="cls-10" x="169.6" y="108.7" width="20.2" height="13" rx="2.9" ry="2.9"/>
        <path class="cls-9" d="M176,117.4h.7v-4.2h-1.2v.6h.5v3.6ZM182.7,117.4h.7v-1.9c0-.9-.6-1.4-1.3-1.4s-.9.2-1.1.6c-.2-.4-.6-.6-1.1-.6s-.7.2-.9.4v-.4h-.7v3.2h.7v-1.8c0-.6.3-.9.8-.9s.8.3.8.9v1.8h.7v-1.8c0-.6.3-.9.8-.9s.8.3.8.9v1.8Z"/>
      </g>
    </g>
    <g class="cls-12">
      <g>
        <rect class="cls-10" x="199.4" y="108.7" width="20.2" height="13" rx="2.9" ry="2.9"/>
        <path class="cls-9" d="M207.6,117.4h.7v-4.2h-1.2v.6h.5v3.6ZM211,116.6l-.9-2.4h-.7l1.3,3.1-.6,1.5h.7l2-4.7h-.7l-.9,2.4Z"/>
      </g>
    </g>
    <g>
      <path class="cls-14" d="M51.2,148v90.1"/>
      <rect class="cls-5" x="48" y="166.5" width="6.5" height="62.5"/>
      <path class="cls-14" d="M62,130.2v48"/>
      <rect class="cls-5" x="58.8" y="138.3" width="6.5" height="29.1"/>
      <path class="cls-13" d="M72.8,132.9v34.7"/>
      <rect class="cls-6" x="69.5" y="137.7" width="6.5" height="4.3"/>
      <path class="cls-13" d="M83.5,179.6v-6.6"/>
      <rect class="cls-6" x="80.3" y="141.5" width="6.5" height="36.7"/>
      <path class="cls-14" d="M94.3,162v25.2"/>
      <rect class="cls-5" x="91.1" y="166.2" width="6.5" height="9.2"/>
      <path class="cls-13" d="M105.1,158.8v16.1"/>
      <rect class="cls-6" x="101.9" y="167" width="6.5" height="1.6"/>
      <path class="cls-13" d="M115.9,166.3v19.9"/>
      <rect class="cls-6" x="112.7" y="167.9" width="6.5" height="10.2"/>
      <path class="cls-13" d="M126.7,207.8v-30.7"/>
      <rect class="cls-6" x="123.4" y="177.1" width="6.5" height="12.4"/>
      <path class="cls-13" d="M137.4,187.3v15.7"/>
      <rect class="cls-6" x="134.2" y="189" width="6.5" height="7"/>
      <path class="cls-14" d="M147.7,183v19.7"/>
      <rect class="cls-5" x="144.5" y="186" width="6.5" height="10.2"/>
      <path class="cls-13" d="M158.5,178.7v18.8"/>
      <rect class="cls-6" x="155.2" y="185.7" width="6.5" height="11.9"/>
      <path class="cls-13" d="M169.3,194.9v32.1"/>
      <rect class="cls-6" x="166" y="197.6" width="6.5" height="24.3"/>
      <path class="cls-13" d="M180,217v43.5"/>
      <rect class="cls-6" x="176.8" y="220" width="6.5" height="28.6"/>
      <path class="cls-14" d="M190.8,220.8v55.1"/>
      <rect class="cls-5" x="187.6" y="236.9" width="6.5" height="11.9"/>
      <path class="cls-14" d="M201.6,221.3v30.5"/>
      <rect class="cls-5" x="198.4" y="226.1" width="6.5" height="7"/>
      <path class="cls-13" d="M212.4,221.3v17.6"/>
      <rect class="cls-6" x="209.1" y="226.1" width="6.5" height="1.6"/>
      <path class="cls-14" d="M223.2,221.3v13.2"/>
      <rect class="cls-5" x="219.9" y="225" width="6.5" height="1.6"/>
    </g>
    <g class="cls-16">
      <g>
        <rect class="cls-10" x="42.2" y="62.1" width="185.6" height="34.1" rx="3.8" ry="3.8"/>
        <g class="cls-22">
          <g>
            <path class="cls-4" d="M68.8,81.2c-1.3,5.2-6.5,8.3-11.7,7-5.2-1.3-8.3-6.5-7-11.7,1.3-5.2,6.5-8.3,11.7-7,5.1,1.3,8.3,6.5,7,11.7Z"/>
            <path class="cls-10" d="M64.1,77.7c.2-1.3-.8-2-2.1-2.4l.4-1.7-1.1-.3-.4,1.7c-.3,0-.6-.1-.8-.2l.4-1.7-1.1-.3-.4,1.7c-.2,0-.5-.1-.7-.2h0s-1.5-.4-1.5-.4l-.3,1.1s.8.2.8.2c.4.1.5.4.5.6l-.5,2s0,0,.1,0c0,0,0,0-.1,0l-.7,2.8c0,.1-.2.3-.5.2,0,0-.8-.2-.8-.2l-.5,1.2,1.4.3c.3,0,.5.1.8.2l-.4,1.8,1.1.3.4-1.7c.3,0,.6.1.8.2l-.4,1.7,1.1.3.4-1.8c1.8.3,3.2.2,3.7-1.4.5-1.3,0-2.1-1-2.6.7-.2,1.2-.6,1.4-1.5ZM61.7,81.1c-.3,1.3-2.5.6-3.2.4l.6-2.3c.7.2,3,.5,2.7,1.9ZM62,77.7c-.3,1.2-2.1.6-2.7.4l.5-2.1c.6.1,2.5.4,2.2,1.7Z"/>
          </g>
        </g>
        <path class="cls-3" d="M78.5,79c0,.5-.3.7-.8.7h-1v-1.5h1c.5,0,.9.3.9.7ZM78.4,77c0,.4-.3.7-.8.7h-.9v-1.3h.9c.5,0,.8.3.8.7ZM79.3,79.1c0-.6-.4-1.1-.9-1.1.5-.2.8-.5.8-1.1s-.5-1.2-1.5-1.2h-1.8v4.7h1.9c1,0,1.5-.5,1.5-1.3ZM80.6,80.4h.8v-3.7h-.8v3.7ZM81,76.2c.3,0,.5-.2.5-.5s-.2-.5-.5-.5-.5.2-.5.5.2.5.5.5ZM83,79.3c0,.8.4,1,1.1,1h.6v-.6h-.5c-.3,0-.4-.1-.4-.4v-2.1h.9v-.6h-.9v-.9h-.8v.9h-.4v.6h.4v2.1ZM85.6,78.5c0,1.2.8,1.9,1.8,1.9s1.5-.5,1.7-1.2h-.8c-.1.4-.4.6-.9.6s-1-.5-1-1.3.4-1.3,1-1.3.8.2.9.6h.8c-.2-.8-.8-1.2-1.7-1.2s-1.8.8-1.8,1.9ZM93.9,78.5c0-1.2-.8-1.9-1.9-1.9s-1.9.7-1.9,1.9.8,1.9,1.9,1.9,1.9-.8,1.9-1.9ZM90.9,78.5c0-.8.5-1.2,1.1-1.2s1.1.4,1.1,1.2-.6,1.3-1.1,1.3-1.1-.4-1.1-1.3ZM95.1,80.4h.8v-3.7h-.8v3.7ZM95.5,76.2c.3,0,.5-.2.5-.5s-.2-.5-.5-.5-.5.2-.5.5.2.5.5.5ZM100,80.4h.8v-2.2c0-1-.7-1.6-1.5-1.6s-.9.2-1.1.5v-.4h-.8v3.7h.8v-2.1c0-.7.4-1,.9-1s.9.3.9,1v2.1Z"/>
        <g class="cls-19">
          <g>
            <rect class="cls-8" x="177.3" y="70.7" width="43.8" height="16.8" rx="6.7" ry="6.7"/>
            <path class="cls-10" d="M184.3,77.8v1h-1v.9h1v1h.9v-1h1v-.9h-1v-1h-.9ZM187.8,81.3h1v-4.2h-1.6v.9h.6v3.3ZM191.1,80.8c0-.3-.2-.5-.6-.5s-.6.2-.6.5.2.5.6.5.6-.2.6-.5ZM192.2,80.1c0,.6.5,1.3,1.4,1.3s1.5-.8,1.5-2.2-.3-2.1-1.5-2.1-1.4.6-1.4,1.4.6,1.3,1.3,1.3.7-.1.8-.4c0,.8-.1,1.2-.6,1.2s-.5-.2-.5-.5h-.9ZM193.6,79c-.4,0-.6-.2-.6-.6s.2-.6.5-.6.6.2.6.6-.2.5-.5.5ZM196.1,78.3h1c0-.2.1-.5.5-.5s.4.2.4.4-.3.5-.7.5h-.2v.8h.2c.5,0,.7.1.7.5s-.2.5-.5.5-.5-.2-.5-.5h-1c0,1,.7,1.4,1.5,1.4s1.4-.5,1.4-1.2-.3-.9-.7-1h0c.3-.1.6-.4.6-1s-.5-1.1-1.4-1.1-1.4.5-1.4,1.3ZM200,78.2c0,.6.4,1,1,1s1-.3,1-1-.4-1-1-1-1,.3-1,1ZM201,77.8c.2,0,.3.1.3.4s-.1.4-.3.4-.3-.1-.3-.4.1-.4.3-.4ZM200.7,81.3h1l2.2-4.1h-1l-2.2,4.1ZM202.7,80.4c0,.6.4,1,1,1s1-.3,1-1-.4-1-1-1-1,.3-1,1ZM203.7,80c.2,0,.3.1.3.4s-.1.4-.3.4-.3-.1-.3-.4.1-.4.3-.4Z"/>
            <path class="cls-10" d="M213.7,80.7c-.1.2-.4.2-.5,0h0s-2.2-2.3-2.2-2.3l-2.2,2.2c-.1.2-.4.2-.5,0h0c-.1-.2-.2-.4,0-.6h0s2.5-2.6,2.5-2.6c.1-.2.4-.2.5,0h0s2.5,2.6,2.5,2.6c.2.2.2.4,0,.6Z"/>
          </g>
        </g>
      </g>
    </g>
  </g>
</svg>