<?xml version="1.0" encoding="UTF-8"?>
<svg id="Layer_1" data-name="Layer 1" xmlns="http://www.w3.org/2000/svg" version="1.1" xmlns:xlink="http://www.w3.org/1999/xlink" viewBox="0 0 270 270">
  <defs>
    <style>
      .cls-1 {
        fill: #252828;
      }

      .cls-1, .cls-2, .cls-3, .cls-4, .cls-5, .cls-6, .cls-7, .cls-8, .cls-9, .cls-10 {
        stroke-width: 0px;
      }

      .cls-2 {
        fill: #f5b669;
      }

      .cls-11 {
        clip-path: url(#clippath-2);
      }

      .cls-3 {
        fill: #99d3d3;
      }

      .cls-12 {
        clip-path: url(#clippath-6);
      }

      .cls-4 {
        fill: #f8616a;
      }

      .cls-5, .cls-13, .cls-14 {
        fill: none;
      }

      .cls-15 {
        clip-path: url(#clippath-7);
      }

      .cls-16 {
        clip-path: url(#clippath-1);
      }

      .cls-17 {
        clip-path: url(#clippath-4);
      }

      .cls-13 {
        stroke: #f8616a;
      }

      .cls-14 {
        stroke: #99d3d3;
      }

      .cls-6 {
        fill: #e3c9dc;
      }

      .cls-18 {
        clip-path: url(#clippath);
      }

      .cls-7 {
        fill: #ebc39d;
      }

      .cls-19 {
        clip-path: url(#clippath-3);
      }

      .cls-20 {
        clip-path: url(#clippath-8);
      }

      .cls-8 {
        fill: #202023;
      }

      .cls-9 {
        fill: #fff;
      }

      .cls-10 {
        fill: #e3cadd;
      }

      .cls-21 {
        clip-path: url(#clippath-5);
      }
    </style>
    <clipPath id="clippath">
      <rect class="cls-5" x="41.1" y="92.5" width="23.6" height="15.2"/>
    </clipPath>
    <clipPath id="clippath-1">
      <rect class="cls-5" x="75.9" y="92.5" width="23.6" height="15.2"/>
    </clipPath>
    <clipPath id="clippath-2">
      <rect class="cls-5" x="110.8" y="92.5" width="23.6" height="15.2"/>
    </clipPath>
    <clipPath id="clippath-3">
      <rect class="cls-5" x="145.7" y="92.5" width="23.6" height="15.2"/>
    </clipPath>
    <clipPath id="clippath-4">
      <rect class="cls-5" x="180.6" y="92.5" width="23.6" height="15.2"/>
    </clipPath>
    <clipPath id="clippath-5">
      <rect class="cls-5" x="215.5" y="92.5" width="23.6" height="15.2"/>
    </clipPath>
    <clipPath id="clippath-6">
      <rect class="cls-5" x="31.5" y="37.9" width="217.3" height="39.9"/>
    </clipPath>
    <clipPath id="clippath-7">
      <rect class="cls-5" x="40.5" y="46.3" width="22.5" height="22.5"/>
    </clipPath>
    <clipPath id="clippath-8">
      <rect class="cls-5" x="189.6" y="48" width="51.3" height="19.7"/>
    </clipPath>
  </defs>
  <g id="Layer_1-2" data-name="Layer 1">
    <g>
      <path class="cls-9" d="M24.1,54.6c0-16.7,0-25,3.3-31.4,2.8-5.6,7.4-10.2,13-13,6.3-3.3,14.8-3.3,31.4-3.3h135.2c16.7,0,25,0,31.4,3.3,5.6,2.8,10.2,7.4,13,13,3.3,6.3,3.3,14.8,3.3,31.4v214.7H24.1V54.6Z"/>
      <path class="cls-10" d="M21.2,36.8c0-18.1,14.6-32.8,32.8-32.8h171.1c18.1,0,32.8,14.6,32.8,32.8h-6c0-14.9-12-26.8-26.8-26.8H54c-14.9,0-26.8,12-26.8,26.8h-6ZM254.7,269.3H24.1h230.6ZM21.2,269.3V36.8c0-18.1,14.6-32.8,32.8-32.8v6c-14.9,0-26.8,12-26.8,26.8v232.5h-6ZM224.9,4c18.1,0,32.8,14.6,32.8,32.8v232.5h-6V36.8c0-14.9-12-26.8-26.8-26.8v-6Z"/>
      <path class="cls-6" d="M117.6,16.9h43.7c4.9,0,9,4,9,9h0c0,4.9-4,9-9,9h-43.7c-4.9,0-9-4-9-9h0c0-4.9,4-9,9-9Z"/>
    </g>
  </g>
  <g id="Layer_2" data-name="Layer 2">
    <g class="cls-18">
      <g>
        <rect class="cls-9" x="41.1" y="92.5" width="23.6" height="15.2" rx="3.4" ry="3.4"/>
        <path class="cls-8" d="M50.4,102.7h.8v-4.9h-1.4v.7h.6v4.2ZM52.9,102.7h.8v-2.1c0-.7.4-1.1.9-1.1s.9.4.9,1.1v2.1h.8v-2.2c0-1.1-.7-1.6-1.5-1.6s-.9.2-1.2.5v-1.8h-.8v5h0Z"/>
      </g>
    </g>
    <g class="cls-16">
      <g>
        <rect class="cls-9" x="75.9" y="92.5" width="23.6" height="15.2" rx="3.4" ry="3.4"/>
        <path class="cls-8" d="M87.4,98.9c0-.7-.6-1.3-1.5-1.3s-1.8.9-1.8,2.5.4,2.6,1.8,2.6,1.6-.7,1.6-1.6-.6-1.6-1.5-1.6-1.1.2-1.3.6c0-1.3.4-1.8,1.1-1.8s.7.2.8.6h.8ZM85.9,100.1c.7,0,.9.5.9,1.1s-.4.9-.9.9-1.1-.4-1.1-1.1.5-.9.9-.9h.1ZM89.1,102.7h.8v-2.1c0-.7.4-1.1.9-1.1s.9.4.9,1.1v2.1h.8v-2.2c0-1.1-.7-1.6-1.5-1.6s-.9.2-1.2.5v-1.8h-.8v5h0Z"/>
      </g>
    </g>
    <g class="cls-11">
      <g>
        <rect class="cls-7" x="110.8" y="92.5" width="23.6" height="15.2" rx="3.4" ry="3.4"/>
        <path class="cls-9" d="M116.7,102.5h3.3v-.6h-2.1c.8-.7,2-1.6,2-2.8s-.6-1.5-1.5-1.5-1.5.5-1.6,1.6h.7c0-.6.4-.9.8-.9s.8.4.8.8c0,.9-1.2,1.9-2.3,2.9v.6h0ZM123.6,102.7h.7v-1.1h.6v-.7h-.6v-3.2h-.9l-2.2,3.3v.6h2.5s0,1.1,0,1.1ZM122,100.9l1.6-2.3v2.3h-1.6ZM126.2,102.7h.8v-2.1c0-.7.4-1.1.9-1.1s.9.4.9,1.1v2.1h.8v-2.2c0-1.1-.7-1.6-1.5-1.6s-.9.2-1.2.5v-1.8h-.8v5h0Z"/>
      </g>
    </g>
    <g class="cls-19">
      <g>
        <rect class="cls-9" x="145.7" y="92.5" width="23.6" height="15.2" rx="3.4" ry="3.4"/>
        <path class="cls-8" d="M154.3,102.7h.8v-4.9h-1.4v.7h.6v4.2ZM157.4,102.7h.8l.7-2.7.7,2.7h.8l1.2-3.7h-.7l-.8,2.9-.7-2.9h-.8l-.8,3-.8-3h-.8l1.2,3.7h.1Z"/>
      </g>
    </g>
    <g class="cls-17">
      <g>
        <rect class="cls-9" x="180.6" y="92.5" width="23.6" height="15.2" rx="3.4" ry="3.4"/>
        <path class="cls-8" d="M188.1,102.7h.8v-4.9h-1.4v.7h.6v4.2ZM195.9,102.7h.8v-2.2c0-1.1-.7-1.6-1.5-1.6s-1.1.2-1.3.7c-.2-.5-.7-.7-1.3-.7s-.8.2-1.1.5v-.5h-.8v3.7h.8v-2.1c0-.7.4-1.1.9-1.1s.9.4.9,1.1v2.1h.8v-2.1c0-.7.4-1.1.9-1.1s.9.4.9,1.1v2.1h-.2Z"/>
      </g>
    </g>
    <g class="cls-21">
      <g>
        <rect class="cls-9" x="215.5" y="92.5" width="23.6" height="15.2" rx="3.4" ry="3.4"/>
        <path class="cls-8" d="M225.1,102.7h.8v-4.9h-1.4v.7h.6v4.2ZM229.1,101.7l-1.1-2.8h-.8l1.5,3.6-.7,1.8h.8l2.3-5.5h-.8l-1.1,2.8h-.2Z"/>
      </g>
    </g>
    <g>
      <path class="cls-14" d="M42,138.5v105.5"/>
      <rect class="cls-3" x="38.2" y="160.1" width="7.6" height="73.2"/>
      <path class="cls-14" d="M54.6,117.6v56.2"/>
      <rect class="cls-3" x="50.9" y="127.1" width="7.6" height="34.1"/>
      <path class="cls-13" d="M67.3,120.8v40.6"/>
      <rect class="cls-4" x="63.4" y="126.4" width="7.6" height="5"/>
      <path class="cls-13" d="M79.8,175.5v-7.7"/>
      <rect class="cls-4" x="76.1" y="130.9" width="7.6" height="43"/>
      <path class="cls-14" d="M92.4,154.9v29.5"/>
      <rect class="cls-3" x="88.7" y="159.8" width="7.6" height="10.8"/>
      <path class="cls-13" d="M105.1,151.1v18.8"/>
      <rect class="cls-4" x="101.3" y="160.7" width="7.6" height="1.9"/>
      <path class="cls-13" d="M117.7,159.9v23.3"/>
      <rect class="cls-4" x="114" y="161.8" width="7.6" height="11.9"/>
      <path class="cls-13" d="M130.4,208.5v-35.9"/>
      <rect class="cls-4" x="126.5" y="172.5" width="7.6" height="14.5"/>
      <path class="cls-13" d="M142.9,184.5v18.4"/>
      <rect class="cls-4" x="139.2" y="186.5" width="7.6" height="8.2"/>
      <path class="cls-14" d="M155,179.5v23.1"/>
      <rect class="cls-3" x="151.2" y="183" width="7.6" height="11.9"/>
      <path class="cls-13" d="M167.6,174.4v22"/>
      <rect class="cls-4" x="163.7" y="182.6" width="7.6" height="13.9"/>
      <path class="cls-13" d="M180.3,193.4v37.6"/>
      <rect class="cls-4" x="176.4" y="196.5" width="7.6" height="28.4"/>
      <path class="cls-13" d="M192.8,219.3v50.9"/>
      <rect class="cls-4" x="189" y="222.8" width="7.6" height="33.5"/>
      <path class="cls-14" d="M205.4,223.7v64.5"/>
      <rect class="cls-3" x="201.7" y="242.6" width="7.6" height="13.9"/>
      <path class="cls-14" d="M218.1,224.3v35.7"/>
      <rect class="cls-3" x="214.3" y="229.9" width="7.6" height="8.2"/>
      <path class="cls-13" d="M230.7,224.3v20.6"/>
      <rect class="cls-4" x="226.8" y="229.9" width="7.6" height="1.9"/>
      <path class="cls-14" d="M243.4,224.3v15.5"/>
      <rect class="cls-3" x="239.5" y="228.6" width="7.6" height="1.9"/>
    </g>
    <g class="cls-12">
      <g>
        <rect class="cls-9" x="31.5" y="37.9" width="217.3" height="39.9" rx="4.4" ry="4.4"/>
        <g class="cls-15">
          <g>
            <path class="cls-2" d="M62.6,60.3c-1.5,6.1-7.6,9.7-13.7,8.2s-9.7-7.6-8.2-13.7,7.6-9.7,13.7-8.2c6,1.5,9.7,7.6,8.2,13.7Z"/>
            <path class="cls-9" d="M57.1,56.2c.2-1.5-.9-2.3-2.5-2.8l.5-2-1.3-.4-.5,2c-.4,0-.7-.1-.9-.2l.5-2-1.3-.4-.5,2c-.2,0-.6-.1-.8-.2h0l-1.8-.5-.4,1.3.9.2c.5.1.6.5.6.7l-.6,2.3h.1-.1l-.8,3.3c0,.1-.2.4-.6.2l-.9-.2-.6,1.4,1.6.4c.4,0,.6.1.9.2l-.5,2.1,1.3.4.5-2c.4,0,.7.1.9.2l-.5,2,1.3.4.5-2.1c2.1.4,3.7.2,4.3-1.6.6-1.5,0-2.5-1.2-3,.8-.2,1.4-.7,1.6-1.8h0ZM54.3,60.2c-.4,1.5-2.9.7-3.7.5l.7-2.7c.8.2,3.5.6,3.2,2.2h-.1ZM54.6,56.2c-.4,1.4-2.5.7-3.2.5l.6-2.5c.7.1,2.9.5,2.6,2Z"/>
          </g>
        </g>
        <path class="cls-1" d="M74,57.7c0,.6-.4.8-.9.8h-1.2v-1.8h1.2c.6,0,1.1.4,1.1.8h-.1ZM73.8,55.4c0,.5-.4.8-.9.8h-1.1v-1.5h1.1c.6,0,.9.4.9.8h0ZM74.9,57.8c0-.7-.5-1.3-1.1-1.3.6-.2.9-.6.9-1.3s-.6-1.4-1.8-1.4h-2.1v5.5h2.2c1.2,0,1.8-.6,1.8-1.5ZM76.4,59.3h.9v-4.3h-.9v4.3ZM76.9,54.4c.4,0,.6-.2.6-.6s-.2-.6-.6-.6-.6.2-.6.6.2.6.6.6ZM79.2,58c0,.9.5,1.2,1.3,1.2h.7v-.7h-.6c-.4,0-.5-.1-.5-.5v-2.5h1.1v-.7h-1.1v-1.1h-.9v1.1h-.5v.7h.5s0,2.5,0,2.5ZM82.3,57.1c0,1.4.9,2.2,2.1,2.2s1.8-.6,2-1.4h-.9c-.1.5-.5.7-1.1.7s-1.2-.6-1.2-1.5.5-1.5,1.2-1.5.9.2,1.1.7h.9c-.2-.9-.9-1.4-2-1.4s-2.1.9-2.1,2.2ZM92,57.1c0-1.4-.9-2.2-2.2-2.2s-2.2.8-2.2,2.2.9,2.2,2.2,2.2,2.2-.9,2.2-2.2ZM88.5,57.1c0-.9.6-1.4,1.3-1.4s1.3.5,1.3,1.4-.7,1.5-1.3,1.5-1.3-.5-1.3-1.5ZM93.4,59.3h.9v-4.3h-.9v4.3ZM93.9,54.4c.4,0,.6-.2.6-.6s-.2-.6-.6-.6-.6.2-.6.6.2.6.6.6ZM99.1,59.3h.9v-2.6c0-1.2-.8-1.9-1.8-1.9s-1.1.2-1.3.6v-.5h-.9v4.3h.9v-2.5c0-.8.5-1.2,1.1-1.2s1.1.4,1.1,1.2c0,0,0,2.5,0,2.5Z"/>
        <g class="cls-20">
          <g>
            <rect class="cls-7" x="189.6" y="48" width="51.3" height="19.7" rx="7.8" ry="7.8"/>
            <path class="cls-9" d="M197.8,56.3v1.2h-1.2v1.1h1.2v1.2h1.1v-1.2h1.2v-1.1h-1.2v-1.2h-1.1ZM201.9,60.4h1.2v-4.9h-1.9v1.1h.7s0,3.9,0,3.9ZM205.8,59.8c0-.4-.2-.6-.7-.6s-.7.2-.7.6.2.6.7.6.7-.2.7-.6ZM207.1,59c0,.7.6,1.5,1.6,1.5s1.8-.9,1.8-2.6-.4-2.5-1.8-2.5-1.6.7-1.6,1.6.7,1.5,1.5,1.5.8-.1.9-.5c0,.9-.1,1.4-.7,1.4s-.6-.2-.6-.6h-1.2ZM208.7,57.7c-.5,0-.7-.2-.7-.7s.2-.7.6-.7.7.2.7.7-.2.6-.6.6h0ZM211.6,56.9h1.2c0-.2.1-.6.6-.6s.5.2.5.5-.4.6-.8.6h-.2v.9h.2c.6,0,.8.1.8.6s-.2.6-.6.6-.6-.2-.6-.6h-1.2c0,1.2.8,1.6,1.8,1.6s1.6-.6,1.6-1.4-.4-1.1-.8-1.2h0c.4-.1.7-.5.7-1.2s-.6-1.3-1.6-1.3-1.6.6-1.6,1.5h.1ZM216.2,56.8c0,.7.5,1.2,1.2,1.2s1.2-.4,1.2-1.2-.5-1.2-1.2-1.2-1.2.4-1.2,1.2ZM217.4,56.3c.2,0,.4.1.4.5s-.1.5-.4.5-.4-.1-.4-.5.1-.5.4-.5ZM217,60.4h1.2l2.6-4.8h-1.2l-2.6,4.8ZM219.4,59.3c0,.7.5,1.2,1.2,1.2s1.2-.4,1.2-1.2-.5-1.2-1.2-1.2-1.2.4-1.2,1.2ZM220.5,58.9c.2,0,.4.1.4.5s-.1.5-.4.5-.4-.1-.4-.5.1-.5.4-.5Z"/>
            <path class="cls-9" d="M232.2,59.7c-.1.2-.5.2-.6,0h0l-2.6-2.7-2.6,2.6c-.1.2-.5.2-.6,0h0c-.1-.2-.2-.5,0-.7h0l2.9-3c.1-.2.5-.2.6,0h0l2.9,3c.2.2.2.5,0,.7h-.1Z"/>
          </g>
        </g>
      </g>
    </g>
  </g>
</svg>