<?xml version="1.0" encoding="UTF-8"?>
<svg id="Layer_1" data-name="Layer 1" xmlns="http://www.w3.org/2000/svg" version="1.1" xmlns:xlink="http://www.w3.org/1999/xlink" viewBox="0 0 279 297.4">
  <defs>
    <style>
      .cls-1, .cls-2, .cls-3, .cls-4 {
        stroke: #ffd5bf;
      }

      .cls-1, .cls-3 {
        fill: none;
      }

      .cls-1, .cls-4 {
        stroke-width: 4px;
      }

      .cls-5 {
        fill: url(#linear-gradient);
      }

      .cls-5, .cls-6, .cls-7 {
        stroke-width: 0px;
      }

      .cls-6 {
        fill: #ffd5bf;
      }

      .cls-8, .cls-9 {
        isolation: isolate;
      }

      .cls-2 {
        stroke-width: 2px;
      }

      .cls-2, .cls-4, .cls-7 {
        fill: #fff;
      }

      .cls-9 {
        fill: #755f54;
        font-family: Manrope-Bold, Manrope;
        font-size: 12px;
        font-weight: 700;
      }
    </style>
    <linearGradient id="linear-gradient" x1="138.6" y1="-1585.1" x2="138.6" y2="-1964.7" gradientTransform="translate(0 -1666) scale(1 -1)" gradientUnits="userSpaceOnUse">
      <stop offset="0" stop-color="#ffd5bf"/>
      <stop offset="1" stop-color="#fff" stop-opacity="0"/>
    </linearGradient>
  </defs>
  <g>
    <rect class="cls-4" x="3.9" y="3.9" width="271.6" height="313.9" rx="14" ry="14"/>
    <path class="cls-6" d="M13.6,254.3c0-7.1,5.5-12.9,12.2-12.9h41.2c6.7,0,12.2,5.8,12.2,12.9v90.2H13.7v-90.2s-.1,0,0,0Z"/>
    <path class="cls-6" d="M106.7,205.8c0-6.9,5.5-12.6,12.2-12.6h41.2c6.7,0,12.2,5.7,12.2,12.6v138.7h-65.4v-138.7h-.2Z"/>
    <path class="cls-5" d="M8.5,105.7l-4.6,6.8v185.4h269.4V27.1l-4.6,7.8c-4.6,7.8-13.5,23.7-22.4,27.7-9,4-17.9-3.8-26.9-11.3h0c-9-7.7-17.9-15.5-26.9-6s-17.9,36.3-26.9,49.3c-9,13.1-17.9,12.5-26.9,11.4s-17.9-2.3-26.9-4.8-17.9-5.9-26.9-4.3-17.9,7.9-26.9,4.6c-9-3.4-17.9-17-26.9-16.9-9,0-17.9,13.9-22.4,20.7h0l-.3.4h0Z"/>
    <path class="cls-3" d="M4,112.6l4.6-6.8c4.6-6.8,13.5-20.5,22.4-20.7,9,0,17.9,13.4,26.9,16.9s17.9-3,26.9-4.6,17.9,1.8,26.9,4.3,17.9,3.8,26.9,4.8,17.9,1.6,26.9-11.4c9-13.1,17.9-39.8,26.9-49.3s17.9-1.8,26.9,6c9,7.7,17.9,15.5,26.9,11.4,9-4,17.9-19.8,22.4-27.7l4.6-7.8"/>
    <path class="cls-6" d="M200,109.4c0-6.8,5.5-12.4,12.2-12.4h41.2c6.7,0,12.2,5.6,12.2,12.4v235.1h-65.4V109.4h-.2Z"/>
    <path class="cls-7" d="M139.4,205.3c6.7,0,12.2-5.5,12.2-12s-5.5-12-12.2-12-12.2,5.5-12.2,12,5.5,12,12.2,12Z"/>
    <path class="cls-1" d="M139.4,202.9c5.3,0,9.7-4.4,9.7-9.6s-4.4-9.6-9.7-9.6-9.7,4.4-9.7,9.6,4.4,9.6,9.7,9.6Z"/>
    <path class="cls-2" d="M39,91.5c2.2,0,3.9-1.7,3.9-3.9s-1.7-3.9-3.9-3.9-3.9,1.7-3.9,3.9,1.7,3.9,3.9,3.9Z"/>
    <path class="cls-2" d="M138.6,110.8c2.2,0,3.9-1.7,3.9-3.9s-1.7-3.9-3.9-3.9-3.9,1.7-3.9,3.9,1.7,3.9,3.9,3.9Z"/>
    <path class="cls-2" d="M238.4,67.1c2.2,0,3.9-1.7,3.9-3.9s-1.7-3.9-3.9-3.9-3.9,1.7-3.9,3.9,1.7,3.9,3.9,3.9Z"/>
  </g>
  <g class="cls-8">
    <g class="cls-8">
      <g class="cls-8">
        <text class="cls-9" transform="translate(94.8 171.9)"><tspan x="0" y="0">+10k bénéfices</tspan></text>
      </g>
    </g>
  </g>
</svg>