<?xml version="1.0" encoding="UTF-8"?>
<svg xmlns="http://www.w3.org/2000/svg" xmlns:xlink="http://www.w3.org/1999/xlink" viewBox="0 0 2052.82 2599.28">
  <defs>
    <style>
      .cls-1 {
        fill: url(#linear-gradient);
      }

      .cls-1, .cls-2, .cls-3 {
        stroke-width: 0px;
      }

      .cls-4 {
        isolation: isolate;
      }

      .cls-2 {
        fill: #212121;
        fill-rule: evenodd;
      }

      .cls-3 {
        fill: #000;
        opacity: .4;
      }

      .cls-3, .cls-5 {
        mix-blend-mode: overlay;
      }

      .cls-5 {
        opacity: .6;
      }
    </style>
    <linearGradient id="linear-gradient" x1="0" y1="1299.64" x2="1921.06" y2="1299.64" gradientUnits="userSpaceOnUse">
      <stop offset="0" stop-color="#fdd8bf"/>
      <stop offset=".51" stop-color="#fcd1b8"/>
      <stop offset="1" stop-color="#fbc6ac"/>
    </linearGradient>
  </defs>
  <g class="cls-4">
    <g id="Layer_1" data-name="Layer 1">
      <g>
        <rect class="cls-1" width="1921.06" height="2599.28"/>
        <g class="cls-5">
          <path class="cls-2" d="M1921.06,276.41v2322.87H0V559.31h.73c4.93-.11,7.74.94,9.61,3.67,6.07,8.62,13.41,16.98,18.88,25.71,3.13,4.91,7.94,6.78,16.68,6.15,11.07-.83,19.74,1.57,27.41,6.03,5.14,3.04,10.87,6.26,17.54,7.87,16.27,3.9,29.22,9.6,38.35,18.1,2.34,2.21,5.4,4.2,8.34,6.15,1.34.86,3.2,1.87,5,1.99,18.81,1.24,29.08,7.8,35.82,17.13,3.14,4.31,7.94,8.28,12.01,12.41.93.94,2.2,1.8,3.73,3.04,8.47-9.48,16.48-18.4,25.35-28.3,8.74,21.21,17.08,41.38,25.88,62.56,9.54-7.61,18.01-14.36,26.62-21.21,9,4.01,17.34,7.76,26.21,11.73,8.47-11.54,16.48-22.45,25.41-34.59,4.2,9.9,7.8,18.59,11.67,27.21,6,13.53,9.74,27.62,18.94,40.44,16.54,22.98,28.48,46.4,34.95,70.88,3.6,13.6,8.94,27.06,13.88,41.64,8.2-5.17,15.41-9.59,22.28-14.17,3-1.99,5.74-2.7,10.41-1.69,6.47,1.43,13.34,2.29,20.34,3.45,9.07-19.38,17.94-38.31,27.35-58.32,7.14,8.84,13.41,16.42,19.48,24.02,2.27,2.89,5.07,5.81,6.07,8.88,5.27,16.3,10.01,32.65,14.94,48.95,3.47,11.17,7,22.3,10.8,34.56,9.27-7.01,17.41-13.23,26.28-19.94,8.87,11.77,17.21,22.75,25.62,33.96,15.47-4.2,31.68-7.31,33.28-18.85.34-2.66,2.8-5.21,4.2-7.83,6.07-11.32,14.34-22.49,17.74-34.07,8.01-27.58,14.68-55.32,20.01-83.09,2.87-14.84,9.67-28.11,28.22-39.09,2.14-1.27,3.6-3.07,4.34-4.76,3.54-8.43,6.67-16.9,10.01-25.34,4.4-11.13,8.94-22.23,13.34-33.32h1.8c8.14,28.04,16.34,56.11,24.82,85.16,2.27-1.91,3.67-2.96,4.87-4.09,6.14-5.88,12.87-11.62,18.27-17.76,3.8-4.38,8.14-5.17,15.74-3.19,4.8,1.24,10.2,1.76,15.87,2.7,8.67-14.58,17.41-28.75,25.41-43.03,3.07-5.51,4.54-11.24,6.47-16.9,11.01-31.75,21.15-63.64,43.96-93.62,1.13-1.42,2.4-3.41,4.6-3.97,7.14-1.87,14.81-3.26,22.55-4.91,9.41,13.01,18.41,25.45,27.81,38.42,8.74-3.67,16.41-7.31,24.82-10.27,8.61-3.04,17.94-5.4,27.15-8.1,9.01,7.2,17.41,13.98,26.62,21.4,6.8-10.53,13.01-20.01,19.21-29.57,7-10.91,7-11.02,27.55-10.42,4.54.11,6.74-.75,8.74-2.89,4.67-4.99,10.61-9.63,14.54-14.77,5.74-7.42,15.01-11.73,28.81-13.75,4.8-.71,7.8-.64,11.27,1.46,6.67,4.05,13.87,7.87,21.75,12.33,4-8.43,7.54-15.85,11.07-23.31,8.27-17.73,14.28-35.98,36.29-50.6,4.14-2.74,7.87-6,13.08-7.91,15.07-5.55,23.61-13.08,27.68-22.9,3.07-7.5,8.27-14.73,12.6-22.08,1.2-2.06,2.6-4.08,3.87-6.11,15.68,26.91,30.08,53.75,52.83,79.34,6.47-.86,13.14-2.06,20.01-2.59,2.67-.19,6.87.68,8.41,1.84,7,5.58,12.27,11.96,20.14,17.09,8.94,5.85,19.94,10.68,31.15,16.49.87-1.91,1.2-2.44,1.4-3,8.07-22.79,16.21-45.57,23.95-68.4.94-2.74,2.87-4.08,7.34-4.54,12.94-1.35,25.81-2.85,38.89-3.86,4.94-.38,7.74-.94,8.67-4.05,1.4-4.61,3.73-9.18,5.87-13.72,10.01-20.91,15.94-42.39,34.89-61.88,8.07-8.36,16.41-15.33,32.28-19.08,2.87-.68,5.54-2.77,6.6-4.54,7.67-12.97,14.94-26.01,22.28-39.02,1.27-2.36,3-3.86,8.14-4.12,14.81-.64,28.22-3.93,40.82-8.1,3-.97,5.94-2.55,7.47-4.27,7.61-8.36,14.74-16.83,22.68-26.05,1.6,2.14,2.67,3.45,3.54,4.83,7.27,11.28,14.34,22.6,21.95,33.81,1,1.46,4.13,3.15,6.8,3.49,14.74,1.84,29.55,1.54,44.09-.83,2.27-.38,4.93-1.72,5.87-2.96,5.07-6.86,9.67-13.87,14.54-20.76,3.2-4.61,6.54-9.22,9.94-13.91,6.61.9,12.47,1.42,18.08,2.51,5.54,1.09,8.74.45,11.88-2.44,6.87-6.41,14.47-12.59,22.41-19.42,1.07,1.87,1.74,2.89,2.2,3.9,7.54,16,15.01,32.01,22.55,47.98.47,1.01.67,2.59,1.8,2.89,8.67,2.29,17.54,4.31,26.68,6.48,8.61-19.9,16.88-39.02,25.68-59.29,8.14,10.61,15.34,20.09,22.68,29.54.93,1.2,1.74,2.74,3.47,3.45,5.87,2.4,11.94,4.68,18.14,7.01Z"/>
        </g>
        <path class="cls-3" d="M235.88,679.03h72.04c.23-.31.46-.62.69-.94h-73.12c.13.31.26.62.39.94ZM744.16,735.79h.93c.4-.33.79-.65,1.13-.94h-2.33c.09.31.18.62.27.94ZM1921.06,52.2v-.94h-98.44V0h-1.67v51.27h-104.34V0h-1.67v51.27h-105.47V0h-1.67v51.27h-104.34V0h-1.67v51.27h-104.34V0h-1.67v51.27h-104.33V0h-1.67v51.27h-104.34V0h-1.67v51.27h-104.34V0h-1.67v51.27h-104.33V0h-1.67v51.27h-104.33V0h-1.67v51.27h-104.34V0h-1.67v51.27h-104.33V0h-1.67v51.27h-104.33V0h-1.67v51.27h-105.47V0h-1.67v51.27h-104.33V0h-1.67v51.27h-104.34V0h-1.67v51.27h-104.33V0h-1.67v51.27H18.28V0h-1.67v51.27H0v.94h16.61v56.1H0v.94h16.61v55.82H0v.94h16.61v56.1H0v.94h16.61v56.1H0v.94h16.61v56.1H0v.94h16.61v56.1H0v.94h16.61v55.82H0v.94h16.61v56.1H0v.94h16.61v56.1h-5.51c.22.31.46.62.69.94h4.82v6.44c.56.72,1.11,1.44,1.67,2.16v-8.6h104.34v56.1h-.87c.88.57,1.7,1.19,2.53,1.8v-.86h104.33v39.47c.56,1.35,1.11,2.69,1.67,4.04v-43.5h104.34v56.1h-2.39c.14.31.27.63.41.94h1.98v4.49c.21.47.42.95.63,1.43.36.81.69,1.63,1.04,2.45v-8.37h104.33v55.82h-79.92c.21.31.39.63.6.94h79.32v56.1h-52.76c.09.31.19.62.28.94h52.49v30.12c.56.1,1.11.21,1.67.31v-30.43h29.07c.15-.31.29-.63.44-.94h-29.51v-56.1h105.47v56.1h-44.33c.25.31.5.62.76.94h43.57v56.1h-23.91s.02.07.03.11c.08.27.17.55.26.83h23.62v23.81c.55-.42,1.11-.85,1.67-1.27v-22.55h86.81c.17-.31.32-.62.48-.94h-87.29v-56.1h103.98c.07-.31.14-.62.21-.94h-104.19v-56.1h104.33v55.46c.57-2.43,1.11-4.86,1.67-7.3v-48.17h12.85c.18-.31.36-.63.55-.94h-13.4v-55.82h51.17c.12-.31.25-.62.37-.94h-51.54v-56.1h104.33v56.1h-32.43c.09.31.18.62.27.94h32.16v43.4c.56-.54,1.11-1.07,1.67-1.61v-41.78h58.43c.18-.31.36-.62.54-.94h-58.97v-56.1h80.97c.12-.31.23-.62.35-.94h-81.31v-56.1h104.34v8.84c.56-.88,1.09-1.76,1.67-2.64v-6.2h4.37c.22-.31.44-.63.66-.94h-5.03v-56.1h104.33v56.1h-60.71c.22.31.45.63.68.94h60.03v9.6c.56-.16,1.11-.31,1.67-.47v-9.12h53.31c.2-.31.41-.63.61-.94h-53.92v-56.1h104.33v28.38c.24-.29.52-.57.75-.86.28-.37.62-.69.92-1.04v-26.47h73.91c.14-.31.29-.62.43-.94h-74.34v-56.1h104.34v13.62c.55-.42,1.09-.84,1.67-1.25v-12.37h21.89c.65-.31,1.27-.62,1.89-.94h-23.78v-55.82h104.34v55.82h-16.36c.21.31.4.63.61.94h15.74v21.57c.53.66,1.13,1.31,1.67,1.97v-23.54h104.33v12.81c.56-1.6,1.11-3.21,1.67-4.82v-7.99h2.77c.1-.31.21-.62.32-.94h-3.09v-55.82h76.34c.14-.31.28-.62.42-.94h-76.75v-56.1h104.34v14.91c.54-.52,1.11-1.03,1.67-1.54v-13.38h24.18c1.04-.29,2.02-.6,3.13-.87.07-.02.13-.05.2-.07h-27.51v-56.1h104.34v.66c.27-.09.55-.17.81-.26.29-.09.57-.22.85-.32v-.08h.21c.75-.28,1.48-.59,2.18-.94h-2.38v-56.1h105.47v56.1h-57.04c.21.31.41.62.62.94h56.43v11.41c.07-.01.13-.01.2-.03.48-.08.97-.22,1.47-.38v-11.01h10.37c.22-.31.45-.62.67-.94h-11.03v-56.1h104.34v56.1h-1.74c.15.31.29.63.44.94h1.3v2.76c.55,1.17,1.1,2.35,1.65,3.52,0,.01,0,.02.01.03v-6.32h35.24c.13-.31.27-.62.4-.94h-35.65v-56.1h98.44v-.94h-98.44v-56.1h98.44v-.94h-98.44v-55.82h98.44v-.94h-98.44v-56.1h98.44ZM122.62,564.02H18.28v-56.1h104.34v56.1ZM122.62,506.99H18.28v-56.1h104.34v56.1ZM122.62,449.95H18.28v-55.82h104.34v55.82ZM122.62,393.2H18.28v-56.1h104.34v56.1ZM122.62,336.16H18.28v-56.1h104.34v56.1ZM122.62,279.13H18.28v-56.1h104.34v56.1ZM122.62,222.09H18.28v-56.1h104.34v56.1ZM122.62,165.06H18.28v-55.82h104.34v55.82ZM122.62,108.3H18.28v-56.1h104.34v56.1ZM228.62,621.06h-104.33v-56.1h104.33v56.1ZM228.62,564.02h-104.33v-56.1h104.33v56.1ZM228.62,506.99h-104.33v-56.1h104.33v56.1ZM228.62,449.95h-104.33v-55.82h104.33v55.82ZM228.62,393.2h-104.33v-56.1h104.33v56.1ZM228.62,336.16h-104.33v-56.1h104.33v56.1ZM228.62,279.13h-104.33v-56.1h104.33v56.1ZM228.62,222.09h-104.33v-56.1h104.33v56.1ZM228.62,165.06h-104.33v-55.82h104.33v55.82ZM228.62,108.3h-104.33v-56.1h104.33v56.1ZM334.62,621.06h-104.34v-56.1h104.34v56.1ZM334.62,564.02h-104.34v-56.1h104.34v56.1ZM334.62,506.99h-104.34v-56.1h104.34v56.1ZM334.62,449.95h-104.34v-55.82h104.34v55.82ZM334.62,393.2h-104.34v-56.1h104.34v56.1ZM334.62,336.16h-104.34v-56.1h104.34v56.1ZM334.62,279.13h-104.34v-56.1h104.34v56.1ZM334.62,222.09h-104.34v-56.1h104.34v56.1ZM334.62,165.06h-104.34v-55.82h104.34v55.82ZM334.62,108.3h-104.34v-56.1h104.34v56.1ZM440.62,678.09h-104.33v-56.1h104.33v56.1ZM440.62,621.06h-104.33v-56.1h104.33v56.1ZM440.62,564.02h-104.33v-56.1h104.33v56.1ZM440.62,506.99h-104.33v-56.1h104.33v56.1ZM440.62,449.95h-104.33v-55.82h104.33v55.82ZM440.62,393.2h-104.33v-56.1h104.33v56.1ZM440.62,336.16h-104.33v-56.1h104.33v56.1ZM440.62,279.13h-104.33v-56.1h104.33v56.1ZM440.62,222.09h-104.33v-56.1h104.33v56.1ZM440.62,165.06h-104.33v-55.82h104.33v55.82ZM440.62,108.3h-104.33v-56.1h104.33v56.1ZM547.77,734.85h-105.47v-55.82h105.47v55.82ZM547.77,678.09h-105.47v-56.1h105.47v56.1ZM547.77,621.06h-105.47v-56.1h105.47v56.1ZM547.77,564.02h-105.47v-56.1h105.47v56.1ZM547.77,506.99h-105.47v-56.1h105.47v56.1ZM547.77,449.95h-105.47v-55.82h105.47v55.82ZM547.77,393.2h-105.47v-56.1h105.47v56.1ZM547.77,336.16h-105.47v-56.1h105.47v56.1ZM547.77,279.13h-105.47v-56.1h105.47v56.1ZM547.77,222.09h-105.47v-56.1h105.47v56.1ZM547.77,165.06h-105.47v-55.82h105.47v55.82ZM547.77,108.3h-105.47v-56.1h105.47v56.1ZM653.77,734.85h-104.33v-55.82h104.33v55.82ZM653.77,678.09h-104.33v-56.1h104.33v56.1ZM653.77,621.06h-104.33v-56.1h104.33v56.1ZM653.77,564.02h-104.33v-56.1h104.33v56.1ZM653.77,506.99h-104.33v-56.1h104.33v56.1ZM653.77,449.95h-104.33v-55.82h104.33v55.82ZM653.77,393.2h-104.33v-56.1h104.33v56.1ZM653.77,336.16h-104.33v-56.1h104.33v56.1ZM653.77,279.13h-104.33v-56.1h104.33v56.1ZM653.77,222.09h-104.33v-56.1h104.33v56.1ZM653.77,165.06h-104.33v-55.82h104.33v55.82ZM653.77,108.3h-104.33v-56.1h104.33v56.1ZM759.77,621.06h-104.33v-56.1h104.33v56.1ZM759.77,564.02h-104.33v-56.1h104.33v56.1ZM759.77,506.99h-104.33v-56.1h104.33v56.1ZM759.77,449.95h-104.33v-55.82h104.33v55.82ZM759.77,393.2h-104.33v-56.1h104.33v56.1ZM759.77,336.16h-104.33v-56.1h104.33v56.1ZM759.77,279.13h-104.33v-56.1h104.33v56.1ZM759.77,222.09h-104.33v-56.1h104.33v56.1ZM759.77,165.06h-104.33v-55.82h104.33v55.82ZM759.77,108.3h-104.33v-56.1h104.33v56.1ZM865.78,564.02h-104.34v-56.1h104.34v56.1ZM865.78,506.99h-104.34v-56.1h104.34v56.1ZM865.78,449.95h-104.34v-55.82h104.34v55.82ZM865.78,393.2h-104.34v-56.1h104.34v56.1ZM865.78,336.16h-104.34v-56.1h104.34v56.1ZM865.78,279.13h-104.34v-56.1h104.34v56.1ZM865.78,222.09h-104.34v-56.1h104.34v56.1ZM865.78,165.06h-104.34v-55.82h104.34v55.82ZM865.78,108.3h-104.34v-56.1h104.34v56.1ZM971.78,506.99h-104.33v-56.1h104.33v56.1ZM971.78,449.95h-104.33v-55.82h104.33v55.82ZM971.78,393.2h-104.33v-56.1h104.33v56.1ZM971.78,336.16h-104.33v-56.1h104.33v56.1ZM971.78,279.13h-104.33v-56.1h104.33v56.1ZM971.78,222.09h-104.33v-56.1h104.33v56.1ZM971.78,165.06h-104.33v-55.82h104.33v55.82ZM971.78,108.3h-104.33v-56.1h104.33v56.1ZM1077.78,506.99h-104.33v-56.1h104.33v56.1ZM1077.78,449.95h-104.33v-55.82h104.33v55.82ZM1077.78,393.2h-104.33v-56.1h104.33v56.1ZM1077.78,336.16h-104.33v-56.1h104.33v56.1ZM1077.78,279.13h-104.33v-56.1h104.33v56.1ZM1077.78,222.09h-104.33v-56.1h104.33v56.1ZM1077.78,165.06h-104.33v-55.82h104.33v55.82ZM1077.78,108.3h-104.33v-56.1h104.33v56.1ZM1183.79,449.95h-104.34v-55.82h104.34v55.82ZM1183.79,393.2h-104.34v-56.1h104.34v56.1ZM1183.79,336.16h-104.34v-56.1h104.34v56.1ZM1183.79,279.13h-104.34v-56.1h104.34v56.1ZM1183.79,222.09h-104.34v-56.1h104.34v56.1ZM1183.79,165.06h-104.34v-55.82h104.34v55.82ZM1183.79,108.3h-104.34v-56.1h104.34v56.1ZM1289.79,393.2h-104.34v-56.1h104.34v56.1ZM1289.79,336.16h-104.34v-56.1h104.34v56.1ZM1289.79,279.13h-104.34v-56.1h104.34v56.1ZM1289.79,222.09h-104.34v-56.1h104.34v56.1ZM1289.79,165.06h-104.34v-55.82h104.34v55.82ZM1289.79,108.3h-104.34v-56.1h104.34v56.1ZM1395.79,449.95h-104.33v-55.82h104.33v55.82ZM1395.79,393.2h-104.33v-56.1h104.33v56.1ZM1395.79,336.16h-104.33v-56.1h104.33v56.1ZM1395.79,279.13h-104.33v-56.1h104.33v56.1ZM1395.79,222.09h-104.33v-56.1h104.33v56.1ZM1395.79,165.06h-104.33v-55.82h104.33v55.82ZM1395.79,108.3h-104.33v-56.1h104.33v56.1ZM1501.8,336.16h-104.34v-56.1h104.34v56.1ZM1501.8,279.13h-104.34v-56.1h104.34v56.1ZM1501.8,222.09h-104.34v-56.1h104.34v56.1ZM1501.8,165.06h-104.34v-55.82h104.34v55.82ZM1501.8,108.3h-104.34v-56.1h104.34v56.1ZM1607.81,279.13h-104.34v-56.1h104.34v56.1ZM1607.81,222.09h-104.34v-56.1h104.34v56.1ZM1607.81,165.06h-104.34v-55.82h104.34v55.82ZM1607.81,108.3h-104.34v-56.1h104.34v56.1ZM1714.94,222.09h-105.47v-56.1h105.47v56.1ZM1714.94,165.06h-105.47v-55.82h105.47v55.82ZM1714.94,108.3h-105.47v-56.1h105.47v56.1ZM1820.95,222.09h-104.34v-56.1h104.34v56.1ZM1820.95,165.06h-104.34v-55.82h104.34v55.82ZM1820.95,108.3h-104.34v-56.1h104.34v56.1ZM1363.89,507.93h16.35c.11-.31.22-.62.33-.94h-18.56c.62.31,1.26.63,1.88.94Z"/>
      </g>
    </g>
  </g>
</svg>