<?xml version="1.0" encoding="UTF-8"?>
<svg id="Layer_1" data-name="Layer 1" xmlns="http://www.w3.org/2000/svg" xmlns:xlink="http://www.w3.org/1999/xlink" viewBox="0 0 1640.04 548.87">
  <defs>
    <style>
      .cls-1 {
        fill: none;
      }

      .cls-1, .cls-2 {
        stroke-width: 0px;
      }

      .cls-3 {
        clip-path: url(#clippath);
      }

      .cls-2 {
        fill: #1e1e1e;
      }
    </style>
    <clipPath id="clippath">
      <rect class="cls-1" width="301.04" height="352.87"/>
    </clipPath>
  </defs>
  <g>
    <path class="cls-2" d="M1614.46,126.15c2.33,4.02,4.75,8.2,7.52,12.98-4.63,0-8.49.14-12.32-.1-.93-.06-2.05-1.26-2.6-2.21-1.77-3.03-3.31-6.18-4.95-9.29-.31.04-.62.08-.93.12v11.31h-12.39v-34.05c7.54,0,14.96-.35,22.33.13,4.37.29,7.56,3.15,8.65,7.69,1.14,4.76-.08,8.82-3.98,11.94-.35.28-.7.58-1.03.89-.08.07-.1.2-.29.6ZM1600.84,119.35c2.2-.47,4.15-.79,6.02-1.38.22-.07.2-2.22-.05-2.3-1.86-.58-3.81-.89-5.97-1.33v5.01Z"/>
    <path class="cls-2" d="M1640.04,122.18c.04,21.15-14.88,36.02-36.12,36-21.31-.03-36.23-14.83-36.22-35.94,0-21.06,14.99-35.83,36.34-35.79,21.15.04,35.97,14.75,36.01,35.74ZM1629.43,122.09c-.08-15.5-10.24-25.82-25.44-25.86-15.53-.03-25.99,10.55-25.88,26.19.11,15.46,10.57,25.93,25.87,25.92,15.18-.02,25.53-10.69,25.45-26.25Z"/>
    <path class="cls-2" d="M688.03,190.47c4-11.13,8.01-22.25,12.01-33.38,3.66-10.17,7.22-20.37,11.08-30.47.55-1.44,2.52-3.32,3.85-3.34,14.01-.23,28.03-.13,42.05-.1.41,0,.82.28,1.72.6-1.66,3.96-3.24,7.84-4.9,11.69-23.34,54.26-46.73,108.5-69.93,162.82-1.71,4.01-3.85,5.33-8.12,5.22-11.73-.29-23.46-.1-35.19-.1h-5.28c.89-2.12,1.47-3.61,2.13-5.05,8.34-18.12,16.77-36.19,24.93-54.39.93-2.07,1.21-5.16.36-7.17-15.03-35.62-30.28-71.16-45.5-106.7-.32-.75-.84-1.43-2.17-1.98v39.43c-2.39,0-4.17-.02-5.95,0-3.66.04-7.33-.08-10.96.19-15.78,1.16-22.38,8.15-22.49,23.97-.11,16-.03,32-.03,48,0,1.64,0,3.29,0,5.26h-42.5v-121.42c1.16-.14,2.32-.4,3.48-.4,11.58-.03,23.16.09,34.74-.09,3.47-.06,4.52,1.11,4.35,4.48-.25,4.95-.06,9.92-.06,16.17,1.93-2.12,3-3.27,4.05-4.46,7.24-8.24,15.9-14.33,26.84-16.23,4.21-.73,8.68.09,13.02.1,12.8.03,25.6.09,38.4-.05,2.9-.03,4.25.93,5.26,3.71,7.25,19.88,14.69,39.68,22.08,59.51.52,1.39,1.1,2.75,1.65,4.13.37.01.74.03,1.11.04Z"/>
    <path class="cls-2" d="M811.37,230.62c0,1.59,0,3.19,0,4.78,0,21.18-.09,42.35.08,63.53.03,3.87-1.18,4.9-4.93,4.82-11.12-.23-22.24-.07-33.36-.09-1.33,0-2.67-.15-4.27-.25V123.13h9.64c9.6,0,19.2.11,28.79-.06,3.25-.06,4.32,1.07,4.11,4.24-.23,3.43-.05,6.89-.05,10.39.79-.09,1.21-.02,1.31-.16,14.35-21.37,55.76-23.23,75.02,5.6,7.41,11.1,10.62,23.45,11.14,36.66.59,15.05-1.62,29.47-9.42,42.65-12.04,20.35-36.16,29.41-58.07,21.88-7.73-2.66-13.94-7.37-19.98-13.7ZM811.39,185.05c.08,1.03.05,2.88.37,4.67,1.56,8.83,5.81,15.73,14.75,18.57,8.33,2.66,15.99,1.12,22.25-5.23,9.04-9.18,9.27-27.86.58-37.32-4.75-5.17-10.78-7.32-17.66-6.71-12.6,1.1-20.35,10.86-20.28,26.03Z"/>
    <path class="cls-2" d="M513.98,189.5c-.68,2.62-1.15,4.8-1.82,6.91-9.3,29.5-33.94,48.27-65.81,49.8-25.84,1.24-48.7-5.63-65.52-26.46-14.26-17.67-18.38-38.44-16.36-60.6,1.98-21.73,10.56-40.13,28.08-53.85,28.07-21.98,82.2-21.39,107.51,11.61,6.77,8.83,11.33,18.63,13.85,30.08-1.73.13-3.15.32-4.58.32-12.34.02-24.68-.07-37.01.08-2.89.03-4.62-.72-6.2-3.35-6.24-10.34-15.81-14.93-27.67-14.46-12.34.48-21.63,6.35-26.65,17.68-6.3,14.23-6.25,28.77.43,42.9,4.88,10.34,13.43,15.94,24.85,16.77,12.22.89,22.18-3.39,28.79-13.97,1.78-2.85,3.66-3.84,6.93-3.78,12.03.19,24.06.07,36.1.08,1.49,0,2.97.13,5.07.23Z"/>
    <path class="cls-2" d="M1179.62,92.11c24.3,0,48.19-.07,72.08.08,3.45.02,6.94.93,10.34,1.75,25.71,6.18,39.71,25.41,38.24,52.4-1.33,24.39-18.59,42.97-43.5,45.89-9.93,1.17-20.04,1.07-30.07,1.09-3.92,0-4.83,1.26-4.78,4.96.19,13.86.08,27.72.08,41.58v5.17h-42.38V92.11ZM1222.03,159.81c8.1-.38,15.71-.12,23.11-1.25,8.12-1.23,12.09-7.53,11.74-16.42-.35-8.88-4.83-14.52-13.12-15.37-6.32-.65-12.74-.49-19.11-.44-.88,0-2.49,1.45-2.51,2.25-.17,10.13-.11,20.25-.11,31.23Z"/>
    <path class="cls-2" d="M1059.93,246.85c-24.87-.75-45.08-9.51-56.94-32.42-13.26-25.61-7.21-59.84,13.31-77.66,27.25-23.66,75.96-19.43,96.09,9.08,15.29,21.65,16.23,45.45,4.68,68.83-11.49,23.26-32.53,31.52-57.14,32.16ZM1081.53,184.84c-.98-4.74-1.41-8.87-2.71-12.71-2.88-8.51-10.09-13.52-18.62-13.5-8.57.02-15.48,5.02-18.46,13.69-2.88,8.35-2.74,16.79.42,25.01,2.95,7.67,8.71,12,17.01,12.3,8.37.3,14.95-3.29,18.43-10.92,2.04-4.46,2.74-9.52,3.92-13.87Z"/>
    <path class="cls-2" d="M1464.7,246.75c-18.66-.3-37.45-6.63-49.76-24.74-15.17-22.33-16.01-46.59-3.41-70.09,12.52-23.34,34.44-31.24,59.72-30.11,24.6,1.1,44.41,11.37,54.58,34.81,16.35,37.67-1.22,89.69-61.14,90.13ZM1446.72,183.61c.51,3.72.72,6.77,1.36,9.72,2.13,9.82,8.94,15.86,18.19,16.34,9.37.48,17.1-5.03,20.17-14.59,2.39-7.45,2.35-14.99-.14-22.41-2.99-8.91-10.4-14.22-19.2-14.03-8.73.19-15.62,5.45-18.33,14.45-1.09,3.6-1.45,7.41-2.04,10.52Z"/>
    <path class="cls-2" d="M985.92,158.53h-21.74c-.16,1.55-.41,2.84-.41,4.14-.03,11.89-.07,23.77,0,35.66.05,7.95,2.48,10.37,10.37,10.56,3.78.09,7.57.02,11.75.02v36.28c-14.86-.04-29.88,1.83-43.93-4.87-14.24-6.8-19.91-19.34-20.7-34.14-.74-13.98-.51-28.03-.34-42.04.05-4.29-.96-5.83-5.49-5.68-9.66.32-9.67.08-9.67-9.39,0-7.16.15-14.33-.06-21.48-.1-3.31.8-4.53,4.32-4.54,10.8-.01,10.8-.16,10.8-11.09,0-4.88.08-9.75-.03-14.63-.06-2.56.52-3.92,3.52-3.89,12.04.13,24.08.1,36.11.02,2.66-.02,3.4,1.1,3.37,3.57-.1,7.31.09,14.63-.09,21.94-.08,3.12.82,4.38,4.11,4.22,4.86-.24,9.76-.22,14.62.05,1.2.07,3.33,1.48,3.35,2.32.23,10.78.15,21.57.15,32.97Z"/>
    <path class="cls-2" d="M1358.46,245.08h-42.59c-.08-1.72-.22-3.33-.22-4.95-.01-37.31.05-74.62-.1-111.93-.02-3.92.87-5.29,5.02-5.18,11.26.29,22.54.2,33.8.04,3.2-.04,4.29.99,4.14,4.19-.23,5.07-.06,10.17.4,15.47,10.2-11.93,21.96-20.27,38.54-20.63v45.46c-1.86,0-3.64-.06-5.41.01-5.01.21-10.08.06-15.02.79-12.36,1.82-18.22,8.37-18.44,20.97-.29,16.75-.11,33.5-.13,50.25,0,1.65,0,3.31,0,5.5Z"/>
  </g>
  <g class="cls-3">
    <g>
      <g>
        <path class="cls-2" d="M6.98,302.72s1.35-27.34,19.47-93.7c.08-.28.3-1.1,1-1.8.5-.49,1.16-.8,2.06-1.05,18.14-5.06,36.28-10.15,54.36-15.42,3.61-1.05,7.07-2.72,10.47-4.38,4.82-2.34,9.35-5.12,12.24-11.61,1.82,1.93,4.53,4.81,4.53,4.81,0,0,1.37-.71,2.38-1.38,4.17-2.76,8.52-4.44,13.76-4.34,14.45.29,28.91.33,43.36.06,6.75-.13,17.46,6.2,17.46,6.2,0,0,3.49-2.87,5.46-4.5,4.05,8.83,11.9,11.57,20,13.69,18.82,4.91,37.68,9.67,56.56,14.38,1.84.46,2.74,1.12,3.24,2.99,9.11,33.86,16.97,67.99,20.8,102.89l2.88,73.88c-14.95,16.07-27.89,30.42-41.07,47.98-1.63,2.18-2.26,4.24-2.02,7.02,1.86,21.63,4.36,63.11,3.5,84.15-.14,3.37-1.24,11.43-5.28,12.43-76.13,18.75-124.52,18.2-203.81,0-3.53-.81-8.7-8.03-8.6-11.65.47-17.79,3.83-49.22,5.73-73.83.31-3.98.81-7.96.92-11.94,0,0-.47-1.94-1.41-3.86-4.02-8.15-42.43-47.69-44.98-50.3,4.16-34.26,6.03-61.59,6.98-80.72ZM140.7,304.37c-2-5.75-6.85-14.3-6.08-19.76,1.79-12.65,5.07-44.01,6.08-47.22.74-2.37,6.77-3.91,9.45-3.9,2.37.01,8.32,1.58,8.89,3.93.8,3.27,5.7,37.12,6.73,47.5.45,4.14-4.53,13.47-6.73,19.45,1.76-.52,15.99-14,19.29-19.7,5.78-9.96,13.26-34.71,15.75-43.26,3.02-10.35,4.1-17.98,3.12-32.6-.53-7.9-2.43-15.47-6.44-23.24-1.48,12.93-7.75,22.94-14.4,33.06-8.31-7.17-15.62-15.27-25.9-19.54,8.15-.45,15.85-2.05,22.81-6.08,2.39-1.38,4.77-3.37,6.2-5.67,2.77-4.47.13-8.71-5.15-8.87-2.97-.09-5.94.01-8.91.03-13.32.07-26.64.12-39.96.22-5.43.04-7.94,4.09-5.02,8.6,1.44,2.23,3.56,4.54,5.91,5.54,5.31,2.27,10.92,3.85,16.48,5.49,1.92.57,4.04.46,6.68.72-10.54,4.7-17.57,12.93-26.04,19.57-6.9-9.82-13.23-19.66-15.85-31.62-1.62,4.48-2.99,9-4.06,13.59-2.65,11.35-.54,30.78,1.43,40.79,2.24,11.43,10.94,33.48,17.25,43.26,3.53,5.47,16.63,19.02,18.48,19.7Z"/>
        <path class="cls-2" d="M149.74,163.93c-45.63,0-82.08-36.7-81.77-82.91C68.29,34.82,106.61-.8,151.4.01c44.87.81,82.07,38.18,80.4,84.96-1.6,45.02-38.84,79.28-82.06,78.96ZM147.3,132.19c1.03-4.15,2.13-8.07,2.95-12.05.45-2.17,1.35-2.77,3.55-2.43,3.12.48,6.29.62,9.45.76,13.7.58,19.88-9.3,20.89-20.14.39-4.2-1.04-7.88-4.21-10.76-1.55-1.4-3.21-2.66-4.45-3.68,2.29-1.7,4.99-3,6.73-5.1,6.64-7.97,4.72-18.74-4.24-24.31-3.1-1.93-6.52-3.34-10-5.09,1.14-4.71,2.28-9.44,3.47-14.38-3.03-.77-5.75-1.47-8.69-2.22-1.23,4.85-2.41,9.46-3.64,14.3-2.6-.63-4.82-1.16-7.25-1.75,1.18-4.93,2.29-9.55,3.46-14.45-3.12-.72-5.84-1.35-8.73-2.02-1.03,4.06-2.15,7.68-2.82,11.39-.49,2.68-1.52,3.32-4.12,2.57-4.86-1.4-9.8-2.51-14.87-3.79-.8,3.31-1.51,6.25-2.27,9.38,2.17.55,4.05.95,5.89,1.51,4.38,1.34,5.35,3.15,4.24,7.57-2.79,11.11-5.57,22.21-8.33,33.33-1.93,7.76-1.9,7.72-9.75,6.17-.88-.17-2.47.38-2.84,1.08-1.38,2.6-2.38,5.4-3.64,8.39,6.07,1.57,11.95,3.08,17.93,4.62-1.27,5.17-2.44,9.91-3.67,14.89,3,.76,5.74,1.45,8.75,2.21,1.32-5.05,2.56-9.85,3.83-14.72,1.6.41,2.86.88,4.17,1.05,2.64.34,3,1.61,2.27,4-1.12,3.68-1.88,7.46-2.85,11.43,2.95.76,5.6,1.43,8.79,2.25Z"/>
        <path class="cls-2" d="M158.21,208.79c1.06.09,4.53.4,4.53,1.34,0,2.28-.02,5.85-.01,7.75.01,4.38-7.64,13.55-12.55,13.55s-13.07-8.5-13.07-13.55v-7.81c0-1.28,1.98-1.17,4.41-1.4,3.14-.31,13.43-.14,16.68.13Z"/>
      </g>
      <path class="cls-2" d="M137.85,102.25c1.46-5.85,2.88-11.79,4.48-17.67.16-.6,1.59-1.43,2.16-1.25,5.16,1.56,10.46,2.89,15.29,5.19,2.39,1.14,4.68,3.88,5.61,6.42,1.68,4.56-1.4,8.99-6.2,10.22-5.01,1.29-16.39-.21-21.34-2.9Z"/>
      <path class="cls-2" d="M144.82,74.33c1.66-6.65,3.1-12.37,4.69-18.71,4.38,1.41,8.63,2.46,12.62,4.14,4.82,2.02,7.05,5.72,6.35,9.38-.92,4.83-3.62,7.33-9.45,7.24-4.6-.07-9.19-1.28-14.22-2.05Z"/>
    </g>
  </g>
</svg>