<svg xmlns="http://www.w3.org/2000/svg" fill="currentColor" viewBox="0 0 1350.72 464.66">
  <g>
    <path class="cls-1" d="M704.76,249.98c3.07-8.52,6.13-17.04,9.2-25.56,2.8-7.79,5.53-15.6,8.48-23.33.42-1.11,1.93-2.54,2.95-2.56,10.73-.18,21.47-.1,32.2-.07.31,0,.63.21,1.31.46-1.27,3.03-2.48,6-3.75,8.95-17.87,41.55-35.78,83.08-53.55,124.67-1.31,3.07-2.94,4.08-6.21,4-8.98-.23-17.97-.08-26.95-.08h-4.04c.69-1.63,1.13-2.76,1.63-3.86,6.38-13.87,12.84-27.71,19.09-41.65.71-1.58.92-3.95.27-5.49-11.51-27.28-23.19-54.48-34.84-81.7-.25-.58-.64-1.09-1.67-1.51v30.19c-1.83,0-3.19-.01-4.55,0-2.8.03-5.61-.06-8.4.14-12.08.89-17.14,6.24-17.22,18.35-.09,12.25-.02,24.5-.02,36.75,0,1.26,0,2.52,0,4.03h-32.54v-92.97c.89-.11,1.77-.3,2.66-.31,8.87-.02,17.74.07,26.6-.07,2.66-.04,3.46.85,3.33,3.43-.19,3.79-.05,7.6-.05,12.38,1.47-1.62,2.3-2.51,3.1-3.41,5.54-6.31,12.17-10.97,20.55-12.43,3.22-.56,6.64.07,9.97.07,9.8.02,19.6.07,29.4-.04,2.22-.02,3.25.71,4.03,2.84,5.55,15.22,11.25,30.39,16.91,45.57.4,1.06.84,2.11,1.27,3.16.28.01.56.02.85.03Z"/>
    <path class="cls-1" d="M799.2,280.72c0,1.22,0,2.44,0,3.66,0,16.22-.07,32.43.06,48.64.02,2.96-.91,3.75-3.78,3.69-8.51-.18-17.03-.06-25.55-.07-1.02,0-2.04-.12-3.27-.19v-138.04h7.38c7.35,0,14.7.09,22.05-.05,2.49-.04,3.31.82,3.15,3.24-.18,2.63-.04,5.28-.04,7.95.6-.07.93-.01,1-.12,10.99-16.36,42.7-17.78,57.44,4.29,5.68,8.5,8.13,17.96,8.53,28.07.45,11.53-1.24,22.57-7.21,32.66-9.22,15.58-27.69,22.52-44.46,16.75-5.92-2.04-10.67-5.64-15.3-10.49ZM799.21,245.84c.06.79.04,2.2.28,3.57,1.19,6.76,4.45,12.04,11.29,14.22,6.38,2.03,12.25.86,17.04-4.01,6.92-7.03,7.1-21.33.44-28.58-3.64-3.96-8.25-5.6-13.52-5.14-9.65.84-15.58,8.32-15.53,19.93Z"/>
    <path class="cls-1" d="M571.48,249.24c-.52,2-.88,3.67-1.39,5.29-7.12,22.59-25.99,36.96-50.39,38.13-19.79.95-37.29-4.31-50.17-20.26-10.92-13.53-14.07-29.43-12.52-46.41,1.52-16.64,8.08-30.73,21.5-41.23,21.49-16.83,62.94-16.38,82.32,8.89,5.19,6.76,8.68,14.26,10.61,23.03-1.33.1-2.42.25-3.5.25-9.45.02-18.89-.05-28.34.06-2.21.03-3.54-.55-4.75-2.56-4.77-7.92-12.11-11.43-21.18-11.07-9.45.37-16.56,4.87-20.4,13.54-4.83,10.9-4.79,22.03.33,32.85,3.74,7.91,10.28,12.21,19.03,12.84,9.36.68,16.99-2.59,22.05-10.7,1.36-2.18,2.8-2.94,5.31-2.9,9.21.14,18.43.05,27.64.06,1.14,0,2.28.1,3.88.18Z"/>
    <path class="cls-1" d="M1081.17,174.67c18.6,0,36.9-.06,55.19.06,2.64.02,5.31.71,7.91,1.34,19.69,4.73,30.4,19.46,29.28,40.12-1.02,18.68-14.23,32.9-33.31,35.14-7.61.89-15.35.82-23.03.84-3,0-3.7.97-3.66,3.79.15,10.61.06,21.22.06,31.84v3.96h-32.45v-117.09ZM1113.65,226.51c6.2-.29,12.03-.09,17.7-.96,6.22-.94,9.26-5.76,8.99-12.57-.27-6.8-3.7-11.12-10.04-11.77-4.84-.5-9.75-.38-14.63-.34-.67,0-1.91,1.11-1.92,1.72-.13,7.75-.09,15.51-.09,23.92Z"/>
    <path class="cls-1" d="M989.53,293.16c-19.05-.58-34.52-7.28-43.6-24.82-10.15-19.61-5.52-45.82,10.19-59.46,20.86-18.12,58.16-14.88,73.57,6.95,11.71,16.58,12.43,34.8,3.58,52.71-8.8,17.81-24.91,24.13-43.75,24.63ZM1006.06,245.67c-.75-3.63-1.08-6.79-2.08-9.73-2.21-6.52-7.73-10.35-14.26-10.34-6.56.01-11.85,3.85-14.14,10.48-2.2,6.39-2.1,12.86.32,19.15,2.26,5.88,6.67,9.19,13.03,9.42,6.41.23,11.44-2.52,14.11-8.36,1.56-3.41,2.1-7.29,3-10.62Z"/>
    <path class="cls-1" d="M1299.46,293.08c-14.29-.23-28.68-5.07-38.1-18.94-11.62-17.1-12.26-35.68-2.61-53.67,9.59-17.87,26.37-23.92,45.73-23.06,18.84.84,34,8.7,41.8,26.65,12.52,28.84-.93,68.68-46.82,69.01ZM1285.7,244.73c.39,2.85.55,5.18,1.04,7.45,1.63,7.52,6.85,12.15,13.93,12.51,7.18.37,13.09-3.85,15.44-11.17,1.83-5.71,1.8-11.48-.11-17.16-2.29-6.82-7.96-10.89-14.7-10.74-6.69.14-11.96,4.17-14.04,11.06-.83,2.75-1.11,5.68-1.56,8.06Z"/>
    <path class="cls-1" d="M932.86,225.53h-16.65c-.12,1.19-.31,2.18-.31,3.17-.02,9.1-.05,18.2,0,27.3.04,6.09,1.9,7.94,7.94,8.09,2.9.07,5.8.01,8.99.01v27.78c-11.38-.03-22.88,1.4-33.64-3.73-10.91-5.21-15.25-14.81-15.85-26.14-.57-10.71-.39-21.46-.26-32.19.04-3.28-.73-4.46-4.21-4.35-7.4.25-7.4.06-7.4-7.19,0-5.48.11-10.97-.05-16.45-.07-2.53.62-3.47,3.31-3.48,8.27-.01,8.27-.12,8.27-8.49,0-3.73.06-7.47-.03-11.2-.05-1.96.4-3,2.69-2.98,9.22.1,18.44.08,27.65.01,2.03-.01,2.6.84,2.58,2.73-.07,5.6.07,11.2-.07,16.8-.06,2.39.63,3.35,3.15,3.23,3.72-.18,7.47-.16,11.19.04.92.05,2.55,1.14,2.56,1.77.17,8.25.12,16.51.12,25.24Z"/>
    <path class="cls-1" d="M1218.11,291.8h-32.61c-.06-1.32-.17-2.55-.17-3.79,0-28.57.04-57.14-.07-85.7-.01-3.01.67-4.05,3.84-3.96,8.62.22,17.26.15,25.88.03,2.45-.03,3.28.76,3.17,3.21-.18,3.89-.05,7.79.3,11.84,7.81-9.13,16.82-15.52,29.51-15.8v34.81c-1.43,0-2.79-.05-4.14,0-3.84.16-7.72.05-11.5.61-9.47,1.4-13.95,6.41-14.12,16.06-.22,12.82-.08,25.65-.1,38.48,0,1.27,0,2.53,0,4.21Z"/>
  </g>
  <g>
    <g>
      <path class="cls-1" d="M5.91,256.27c2.95-26.95,8.4-53.42,16.48-79.33.45-1.45,1.17-2.02,2.6-2.42,15.36-4.28,30.71-8.59,46.02-13.05,3.06-.89,5.99-2.31,8.87-3.71,4.08-1.98,7.92-4.34,10.36-9.83,1.54,1.64,3.84,4.07,3.84,4.07,0,0,1.16-.6,2.02-1.17,3.53-2.34,7.21-3.76,11.65-3.67,12.23.24,24.47.28,36.7.05,5.71-.11,14.78,5.25,14.78,5.25,0,0,2.96-2.43,4.62-3.81,3.43,7.47,10.07,9.8,16.93,11.59,15.93,4.16,31.9,8.19,47.88,12.17,1.55.39,2.32.95,2.75,2.54,7.71,28.66,14.37,57.56,17.61,87.1l2.44,62.54c-12.66,13.6-23.61,25.75-34.77,40.62-1.38,1.84-1.91,3.59-1.71,5.94,1.58,18.31,3.69,53.43,2.97,71.24-.12,2.86-1.05,9.68-4.47,10.52-64.45,15.87-105.42,15.41-172.54,0-2.99-.69-7.37-6.8-7.28-9.86.4-15.06,3.24-41.67,4.85-62.5.26-3.37.68-6.74.78-10.11.03-1.08-.57-2.31-1.19-3.26-9.46-14.38-26.73-29.67-38.08-42.59M119.11,257.67c-1.69-4.87-5.8-12.11-5.14-16.73,1.51-10.71,4.29-37.25,5.14-39.98.63-2.01,5.74-3.31,8-3.3,2,.01,7.04,1.34,7.53,3.33.68,2.77,4.82,31.43,5.7,40.21.38,3.5-3.84,11.41-5.7,16.47,1.49-.44,13.54-11.86,16.33-16.68,4.89-8.43,11.22-29.38,13.34-36.62,2.56-8.76,3.47-15.22,2.64-27.6-.45-6.69-2.05-13.09-5.45-19.67-1.25,10.94-6.56,19.42-12.19,27.99-7.03-6.07-13.22-12.93-21.93-16.54,6.9-.38,13.42-1.73,19.31-5.14,2.02-1.17,4.04-2.85,5.25-4.8,2.35-3.78.11-7.37-4.36-7.51-2.51-.07-5.03.01-7.55.02-11.28.06-22.55.1-33.83.18-4.6.03-6.72,3.46-4.25,7.28,1.22,1.88,3.01,3.84,5,4.69,4.49,1.92,9.24,3.26,13.95,4.64,1.63.48,3.42.39,5.65.61-8.92,3.98-14.88,10.95-22.04,16.57-5.84-8.31-11.2-16.64-13.42-26.77-1.37,3.8-2.53,7.62-3.44,11.51-2.24,9.6-.45,26.06,1.21,34.53,1.9,9.67,9.26,28.34,14.6,36.62,2.99,4.63,14.08,16.11,15.65,16.68Z"/>
      <path class="cls-1" d="M126.77,138.78c-38.63,0-69.49-31.07-69.22-70.19C57.82,29.48,90.25-.68,128.17.01c37.98.69,69.48,32.32,68.07,71.93-1.36,38.11-32.88,67.12-69.47,66.84ZM124.7,111.91c.87-3.51,1.81-6.83,2.5-10.2.38-1.84,1.14-2.34,3-2.06,2.64.4,5.33.53,8,.64,11.6.49,16.83-7.87,17.69-17.05.33-3.56-.88-6.67-3.57-9.11-1.31-1.19-2.72-2.25-3.77-3.12,1.94-1.44,4.22-2.54,5.7-4.32,5.62-6.75,3.99-15.87-3.59-20.58-2.63-1.63-5.52-2.83-8.47-4.31.96-3.99,1.93-7.99,2.94-12.18-2.56-.66-4.87-1.24-7.36-1.88-1.04,4.11-2.04,8.01-3.08,12.11-2.2-.53-4.08-.98-6.14-1.48,1-4.17,1.94-8.08,2.93-12.23-2.64-.61-4.95-1.14-7.39-1.71-.87,3.44-1.82,6.51-2.39,9.64-.41,2.27-1.29,2.81-3.49,2.18-4.12-1.18-8.3-2.13-12.59-3.21-.68,2.8-1.28,5.29-1.92,7.94,1.84.47,3.43.8,4.99,1.28,3.71,1.13,4.53,2.67,3.59,6.41-2.36,9.4-4.72,18.81-7.05,28.22-1.63,6.57-1.61,6.53-8.26,5.22-.74-.15-2.09.33-2.4.91-1.16,2.2-2.02,4.57-3.08,7.1,5.14,1.33,10.11,2.61,15.18,3.91-1.08,4.37-2.06,8.39-3.1,12.61,2.54.64,4.86,1.22,7.41,1.87,1.11-4.28,2.17-8.34,3.24-12.46,1.35.35,2.42.74,3.53.89,2.23.29,2.54,1.37,1.92,3.39-.95,3.11-1.6,6.32-2.42,9.67,2.5.64,4.74,1.21,7.44,1.9Z"/>
      <path class="cls-1" d="M133.93,176.75c.89.07,3.84.34,3.84,1.14,0,1.93-.02,4.95-.01,6.56.01,3.71-6.47,11.47-10.62,11.47s-11.06-7.19-11.06-11.47v-6.62c0-1.09,1.67-.99,3.73-1.19,2.66-.26,11.37-.12,14.12.11Z"/>
    </g>
    <path class="cls-1" d="M116.7,86.56c1.23-4.95,2.44-9.98,3.8-14.96.14-.51,1.35-1.21,1.83-1.06,4.37,1.32,8.86,2.45,12.95,4.4,2.03.97,3.96,3.29,4.75,5.43,1.42,3.86-1.19,7.61-5.25,8.65-4.24,1.09-13.88-.18-18.07-2.46Z"/>
    <path class="cls-1" d="M122.6,62.92c1.41-5.63,2.62-10.47,3.97-15.84,3.71,1.19,7.31,2.08,10.69,3.5,4.08,1.71,5.97,4.85,5.38,7.94-.77,4.09-3.07,6.21-8,6.13-3.9-.06-7.78-1.08-12.04-1.73Z"/>
  </g>
</svg>