<?xml version="1.0" encoding="UTF-8"?>
<svg id="Layer_1" data-name="Layer 1" xmlns="http://www.w3.org/2000/svg" width="1186.07" height="195.4" viewBox="0 0 1186.07 195.4">
  <defs>
    <style>
      .cls-1 {
        fill: #000;
        stroke-width: 0px;
      }
    </style>
  </defs>
  <path class="cls-1" d="M295.15,92.23c3.65-10.13,7.3-20.27,10.94-30.4,3.33-9.26,6.57-18.56,10.09-27.75.5-1.32,2.29-3.02,3.51-3.04,12.76-.21,25.53-.12,38.3-.09.37,0,.74.25,1.56.54-1.51,3.61-2.95,7.14-4.46,10.64-21.26,49.42-42.56,98.83-63.7,148.3-1.56,3.66-3.5,4.85-7.39,4.75-10.68-.27-21.37-.09-32.06-.09h-4.81c.82-1.94,1.34-3.28,1.94-4.6,7.59-16.5,15.27-32.97,22.7-49.54.84-1.88,1.1-4.7.32-6.53-13.69-32.45-27.58-64.81-41.44-97.19-.29-.69-.76-1.3-1.98-1.8v35.91c-2.17,0-3.8-.01-5.42,0-3.33.04-6.67-.08-9.99.17-14.37,1.06-20.38,7.42-20.48,21.83-.1,14.57-.03,29.14-.03,43.72,0,1.5,0,3,0,4.79h-38.71V31.27c1.06-.13,2.11-.36,3.17-.36,10.55-.03,21.1.09,31.64-.08,3.16-.05,4.12,1.01,3.96,4.08-.23,4.51-.06,9.03-.06,14.73,1.75-1.93,2.74-2.98,3.69-4.06,6.59-7.51,14.48-13.05,24.44-14.78,3.83-.66,7.9.08,11.86.09,11.66.03,23.32.08,34.97-.04,2.64-.03,3.87.85,4.79,3.38,6.6,18.11,13.38,36.15,20.11,54.2.47,1.27,1,2.51,1.51,3.76.34.01.67.03,1.01.04Z"/>
  <path class="cls-1" d="M407.49,128.79c0,1.45,0,2.9,0,4.35,0,19.29-.08,38.58.08,57.86.03,3.52-1.08,4.46-4.49,4.39-10.13-.21-20.26-.07-30.39-.09-1.22,0-2.43-.14-3.89-.23V30.89h8.78c8.74,0,17.49.1,26.23-.06,2.96-.05,3.93.98,3.74,3.86-.21,3.13-.05,6.28-.05,9.46.72-.08,1.1-.02,1.19-.15,13.07-19.47,50.79-21.16,68.33,5.1,6.75,10.11,9.67,21.36,10.15,33.39.54,13.71-1.48,26.84-8.58,38.85-10.97,18.54-32.94,26.79-52.89,19.93-7.04-2.42-12.7-6.71-18.2-12.48ZM407.51,87.29c.07.94.05,2.62.33,4.25,1.42,8.05,5.29,14.32,13.43,16.92,7.59,2.42,14.57,1.02,20.26-4.77,8.23-8.36,8.45-25.37.53-34-4.32-4.71-9.82-6.66-16.09-6.11-11.47,1-18.54,9.9-18.47,23.71Z"/>
  <path class="cls-1" d="M136.62,91.34c-.62,2.38-1.05,4.37-1.66,6.3-8.47,26.87-30.92,43.96-59.94,45.36-23.54,1.13-44.36-5.13-59.68-24.1C2.35,102.8-1.4,83.88.44,63.69,2.24,43.9,10.05,27.14,26.02,14.65,51.58-5.37,100.89-4.84,123.94,25.22c6.17,8.04,10.32,16.96,12.62,27.4-1.58.12-2.87.29-4.17.3-11.24.02-22.48-.06-33.71.07-2.63.03-4.21-.65-5.65-3.05-5.68-9.42-14.4-13.6-25.2-13.17-11.24.44-19.7,5.79-24.27,16.11-5.74,12.96-5.7,26.2.39,39.08,4.45,9.41,12.23,14.52,22.63,15.27,11.13.81,20.21-3.08,26.23-12.72,1.62-2.6,3.33-3.49,6.31-3.45,10.96.17,21.92.06,32.88.08,1.35,0,2.71.12,4.62.21Z"/>
  <path class="cls-1" d="M767.9,2.64c22.13,0,43.89-.07,65.65.07,3.14.02,6.32.85,9.41,1.59,23.42,5.63,36.17,23.14,34.83,47.73-1.21,22.22-16.93,39.13-39.62,41.8-9.05,1.06-18.26.97-27.39,1-3.57,0-4.4,1.15-4.36,4.51.18,12.62.07,25.25.07,37.87v4.71h-38.6V2.64ZM806.53,64.3c7.38-.35,14.31-.11,21.05-1.14,7.39-1.12,11.01-6.86,10.69-14.96-.32-8.09-4.4-13.22-11.95-14-5.76-.59-11.6-.45-17.41-.4-.8,0-2.27,1.32-2.28,2.05-.16,9.22-.1,18.45-.1,28.45Z"/>
  <path class="cls-1" d="M633.89,143.58c-22.66-.69-41.06-8.66-51.86-29.53-12.08-23.33-6.57-54.5,12.12-70.73,24.82-21.55,69.18-17.7,87.52,8.27,13.92,19.72,14.78,41.39,4.26,62.7-10.46,21.19-29.63,28.71-52.04,29.3ZM653.56,87.1c-.89-4.32-1.29-8.08-2.47-11.57-2.62-7.75-9.19-12.31-16.96-12.29-7.81.02-14.1,4.58-16.82,12.47-2.62,7.6-2.5,15.29.39,22.78,2.69,6.99,7.94,10.93,15.5,11.2,7.63.27,13.61-3,16.79-9.95,1.86-4.06,2.5-8.67,3.57-12.64Z"/>
  <path class="cls-1" d="M1027.57,143.49c-17-.27-34.11-6.03-45.32-22.53-13.82-20.34-14.58-42.44-3.1-63.84,11.41-21.26,31.37-28.45,54.4-27.43,22.41,1,40.45,10.35,49.72,31.71,14.89,34.31-1.11,81.7-55.69,82.09ZM1011.19,85.98c.46,3.39.65,6.17,1.24,8.86,1.94,8.95,8.15,14.45,16.56,14.88,8.54.44,15.57-4.58,18.37-13.29,2.18-6.79,2.14-13.66-.13-20.41-2.72-8.11-9.47-12.95-17.49-12.78-7.95.17-14.23,4.96-16.7,13.16-.99,3.28-1.32,6.75-1.85,9.58Z"/>
  <path class="cls-1" d="M566.48,63.13h-19.8c-.15,1.41-.37,2.59-.37,3.77-.03,10.83-.06,21.65,0,32.48.05,7.24,2.25,9.45,9.44,9.62,3.45.08,6.9.01,10.7.01v33.05c-13.54-.04-27.22,1.67-40.01-4.44-12.97-6.19-18.14-17.61-18.85-31.09-.68-12.74-.47-25.53-.31-38.29.05-3.91-.87-5.31-5-5.17-8.8.29-8.81.07-8.81-8.55,0-6.52.13-13.05-.06-19.57-.09-3.01.73-4.13,3.94-4.13,9.84-.01,9.84-.14,9.84-10.1,0-4.44.07-8.88-.03-13.32-.06-2.34.48-3.57,3.2-3.54,10.96.12,21.93.1,32.89.02,2.42-.02,3.1,1,3.07,3.25-.09,6.66.08,13.33-.08,19.98-.07,2.84.75,3.99,3.74,3.84,4.43-.22,8.89-.2,13.32.05,1.1.06,3.03,1.35,3.05,2.11.21,9.82.14,19.64.14,30.03Z"/>
  <path class="cls-1" d="M930.79,141.97h-38.79c-.07-1.57-.2-3.04-.2-4.51-.01-33.98.04-67.96-.09-101.95-.01-3.57.79-4.81,4.57-4.72,10.26.27,20.53.18,30.79.04,2.91-.04,3.91.9,3.77,3.82-.21,4.62-.06,9.26.36,14.09,9.29-10.86,20.01-18.46,35.1-18.79v41.41c-1.7,0-3.31-.06-4.92.01-4.56.19-9.18.06-13.68.72-11.26,1.66-16.6,7.62-16.8,19.1-.26,15.25-.1,30.51-.12,45.77,0,1.51,0,3.01,0,5.01Z"/>
  <path class="cls-1" d="M1186.07,43.35c.05,25.66-18.05,43.7-43.81,43.66-25.85-.03-43.94-17.99-43.94-43.59,0-25.55,18.19-43.46,44.08-43.42,25.65.04,43.63,17.89,43.68,43.35ZM1173.21,43.24c-.1-18.8-12.42-31.33-30.87-31.36-18.84-.04-31.53,12.8-31.39,31.77.14,18.75,12.82,31.46,31.38,31.44,18.42-.02,30.97-12.97,30.87-31.85Z"/>
  <path class="cls-1" d="M1155.05,48.17c2.82,4.87,5.76,9.95,9.12,15.75-5.62,0-10.3.18-14.95-.13-1.13-.07-2.48-1.53-3.16-2.68-2.15-3.67-4.02-7.5-6-11.27-.38.05-.75.1-1.13.14v13.72h-15.03V22.4c9.15,0,18.15-.43,27.09.16,5.3.35,9.17,3.83,10.49,9.32,1.38,5.78-.09,10.69-4.83,14.48-.43.34-.84.7-1.25,1.07-.09.09-.12.24-.36.73ZM1138.52,39.92c2.67-.56,5.04-.96,7.3-1.68.27-.09.25-2.69-.06-2.79-2.25-.71-4.62-1.07-7.24-1.61v6.07Z"/>
</svg>