<?xml version="1.0" encoding="UTF-8"?>
<svg id="Layer_1" data-name="Layer 1" xmlns="http://www.w3.org/2000/svg" width="227.82" height="421" viewBox="0 0 227.82 421">
  <defs>
    <style>
      .cls-1 {
        fill: #000;
        stroke-width: 0px;
      }
    </style>
  </defs>
  <path class="cls-1" d="M5.34,232.19c2.67-24.42,7.61-48.4,14.93-71.87.41-1.31,1.06-1.83,2.35-2.19,13.92-3.88,27.83-7.79,41.7-11.83,2.77-.81,5.42-2.09,8.03-3.36,3.7-1.8,7.18-3.93,9.39-8.9,1.4,1.48,2.44,2.59,3.48,3.69-.15.19-.29.38-.44.56.76-.54,1.49-1.11,2.27-1.62,3.2-2.12,6.53-3.41,10.56-3.33,11.08.22,22.17.25,33.26.04,5.18-.1,9.57,1.31,13.39,4.75,1.43-1.17,2.68-2.2,4.19-3.45,3.1,6.77,9.12,8.88,15.34,10.5,14.44,3.77,28.9,7.42,43.38,11.03,1.41.35,2.1.86,2.49,2.3,6.99,25.97,13.02,52.15,15.95,78.92l2.21,56.67c-11.47,12.33-21.4,23.33-31.5,36.8-1.25,1.67-1.73,3.25-1.55,5.39,1.43,16.59,3.34,48.41,2.69,64.55-.11,2.59-.95,8.77-4.05,9.53-58.4,14.38-95.51,13.96-156.33,0-2.71-.62-6.67-6.16-6.6-8.93.36-13.65,2.94-37.75,4.4-56.63.24-3.05.62-6.1.7-9.16.03-.98-.51-2.09-1.08-2.96-8.57-13.03-24.22-26.88-34.5-38.58M104.2,232.12c.11-.14.21-.28.32-.42-.15-4.29-.92-8.67-.33-12.85,1.37-9.7,3.37-19.32,5.18-28.95.48-2.54,1.13-5.07,1.9-7.53.57-1.82,1.83-3.28,3.88-3.27,1.82,0,3.05,1.18,3.49,2.99,3.11,12.66,6.34,25.31,6.9,38.42.17,4.03.03,8.07.03,12.2-.31-.07-.2-.02-.17-.04.8-.96,1.54-1.98,2.4-2.88,9.97-10.4,15.67-23.08,19.1-36.81,2.69-10.74,5.1-21.58,4.35-32.79-.41-6.06-1.86-11.86-4.94-17.83-1.14,9.92-5.95,17.6-11.05,25.36-6.37-5.5-11.98-11.72-19.87-14.99,6.25-.35,12.16-1.57,17.49-4.66,1.83-1.06,3.66-2.58,4.76-4.35,2.13-3.43.1-6.68-3.95-6.8-2.28-.07-4.56,0-6.84.02-10.22.05-20.43.1-30.65.17-4.17.03-6.09,3.13-3.85,6.6,1.1,1.71,2.73,3.48,4.53,4.25,4.07,1.74,8.38,2.95,12.64,4.21,1.47.43,3.1.35,5.12.55-8.08,3.61-13.48,9.92-19.97,15.01-5.29-7.53-10.14-15.08-12.16-24.25-1.24,3.44-2.29,6.91-3.11,10.43-2.03,8.7-.72,17.26.81,25.92,2.33,13.2,5.76,25.92,13.4,37.15,3.47,5.1,7.06,10.12,10.59,15.17v-.03Z"/>
  <path class="cls-1" d="M114.84,125.74c-35,0-62.96-28.15-62.72-63.6C52.36,26.71,81.75-.61,116.11.01c34.42.62,62.95,29.28,61.67,65.17-1.23,34.53-29.79,60.81-62.94,60.56h0ZM112.97,101.4c.79-3.18,1.64-6.19,2.26-9.24.34-1.67,1.03-2.12,2.72-1.87,2.39.37,4.83.48,7.25.58,10.51.45,15.25-7.13,16.03-15.45.3-3.23-.8-6.05-3.23-8.25-1.19-1.07-2.47-2.04-3.41-2.82,1.76-1.3,3.83-2.3,5.16-3.91,5.09-6.12,3.62-14.38-3.25-18.64-2.38-1.48-5-2.56-7.67-3.9.87-3.61,1.75-7.24,2.66-11.03-2.32-.59-4.41-1.13-6.67-1.71-.95,3.72-1.84,7.26-2.79,10.97-1.99-.48-3.7-.89-5.56-1.34.91-3.78,1.75-7.32,2.66-11.08-2.39-.55-4.48-1.04-6.69-1.55-.79,3.12-1.65,5.89-2.17,8.74-.37,2.05-1.17,2.55-3.16,1.97-3.73-1.07-7.52-1.93-11.41-2.91-.62,2.54-1.16,4.79-1.74,7.19,1.66.42,3.11.73,4.52,1.16,3.36,1.03,4.1,2.42,3.25,5.8-2.14,8.52-4.28,17.04-6.39,25.56-1.48,5.95-1.45,5.92-7.48,4.73-.67-.13-1.9.29-2.18.83-1.06,2-1.83,4.14-2.79,6.44,4.66,1.2,9.16,2.36,13.75,3.54-.98,3.96-1.87,7.6-2.81,11.42,2.3.58,4.4,1.11,6.71,1.69,1.01-3.87,1.97-7.55,2.94-11.29,1.23.32,2.2.67,3.2.8,2.02.26,2.3,1.24,1.74,3.07-.86,2.82-1.45,5.72-2.19,8.76,2.27.58,4.3,1.1,6.74,1.72v.02Z"/>
  <path class="cls-1" d="M114.85,161.04c2.12,0,4.25-.12,6.35.07.68.06,1.67.82,1.86,1.45.46,1.56.67,3.23.74,4.87.21,4.9-3.67,9.13-8.56,9.49-3.83.28-9.68-5.24-9.64-9.1.06-6.15.57-6.67,6.66-6.69h2.59s0-.06,0-.09Z"/>
  <path class="cls-1" d="M105.72,78.43c1.12-4.49,2.21-9.04,3.44-13.56.13-.46,1.22-1.09,1.66-.96,3.96,1.19,8.03,2.22,11.73,3.98,1.84.88,3.59,2.98,4.3,4.92,1.29,3.5-1.07,6.89-4.76,7.84-3.85.99-12.57-.16-16.37-2.22Z"/>
  <path class="cls-1" d="M111.06,57.01c1.28-5.1,2.38-9.49,3.59-14.35,3.36,1.08,6.62,1.89,9.68,3.17,3.69,1.55,5.4,4.39,4.87,7.2-.7,3.71-2.78,5.62-7.25,5.55-3.53-.06-7.05-.98-10.9-1.57h.01Z"/>
</svg>