<?xml version="1.0" encoding="UTF-8"?>
<svg id="Layer_1" data-name="Layer 1" xmlns="http://www.w3.org/2000/svg" width="924.33" height="158.2" viewBox="0 0 924.33 158.2">
  <defs>
    <style>
      .cls-1 {
        fill: #000;
        stroke-width: 0px;
      }
    </style>
  </defs>
  <path class="cls-1" d="M240.11,74.28c2.97-8.24,5.94-16.49,8.9-24.73,2.71-7.53,5.34-15.1,8.21-22.58.41-1.07,1.86-2.46,2.86-2.47,10.38-.17,20.77-.1,31.16-.07.3,0,.6.2,1.27.44-1.23,2.94-2.4,5.81-3.63,8.66-17.3,40.2-34.62,80.4-51.82,120.64-1.27,2.98-2.85,3.95-6.01,3.86-8.69-.22-17.38-.07-26.08-.07h-3.91c.67-1.58,1.09-2.67,1.58-3.74,6.17-13.42,12.42-26.82,18.47-40.3.68-1.53.89-3.82.26-5.31-11.14-26.4-22.44-52.72-33.71-79.07-.24-.56-.62-1.06-1.61-1.46v29.21c-1.77,0-3.09,0-4.41,0-2.71.03-5.43-.07-8.13.14-11.69.86-16.58,6.04-16.66,17.76-.08,11.85-.02,23.71-.02,35.57v3.9h-31.49V24.69c.86-.11,1.72-.29,2.58-.29,8.58-.02,17.17.07,25.74-.07,2.57-.04,3.35.82,3.22,3.32-.19,3.67-.05,7.35-.05,11.98,1.42-1.57,2.23-2.42,3-3.3,5.36-6.11,11.78-10.62,19.88-12.02,3.12-.54,6.43.07,9.65.07,9.49.02,18.97.07,28.45-.03,2.15-.02,3.15.69,3.9,2.75,5.37,14.73,10.88,29.41,16.36,44.09.38,1.03.81,2.04,1.23,3.06.28,0,.55.02.82.03h.02Z"/>
  <path class="cls-1" d="M331.5,104.02v3.54c0,15.69-.07,31.39.07,47.07.02,2.86-.88,3.63-3.65,3.57-8.24-.17-16.48-.06-24.72-.07-.99,0-1.98-.11-3.16-.19V24.38h7.14c7.11,0,14.23.08,21.34-.05,2.41-.04,3.2.8,3.04,3.14-.17,2.55-.04,5.11-.04,7.7.59-.07.89-.02.97-.12,10.63-15.84,41.32-17.21,55.59,4.15,5.49,8.22,7.87,17.38,8.26,27.16.44,11.15-1.2,21.83-6.98,31.61-8.92,15.08-26.8,21.79-43.03,16.21-5.73-1.97-10.33-5.46-14.81-10.15h0ZM331.51,70.26c.06.76.04,2.13.27,3.46,1.16,6.55,4.3,11.65,10.93,13.76,6.17,1.97,11.85.83,16.48-3.88,6.7-6.8,6.87-20.64.43-27.66-3.51-3.83-7.99-5.42-13.09-4.97-9.33.81-15.08,8.05-15.03,19.29h0Z"/>
  <path class="cls-1" d="M111.14,73.56c-.5,1.94-.85,3.56-1.35,5.13-6.89,21.86-25.15,35.76-48.76,36.9-19.15.92-36.09-4.17-48.55-19.61C1.91,82.88-1.14,67.49.36,51.06c1.46-16.1,7.82-29.73,20.81-39.89,20.79-16.29,60.91-15.86,79.66,8.6,5.02,6.54,8.4,13.8,10.27,22.29-1.29.1-2.33.24-3.39.24-9.14.02-18.29-.05-27.42.06-2.14.02-3.42-.53-4.6-2.48-4.62-7.66-11.71-11.06-20.5-10.71-9.14.36-16.03,4.71-19.74,13.11-4.67,10.54-4.64,21.31.32,31.79,3.62,7.66,9.95,11.81,18.41,12.42,9.05.66,16.44-2.51,21.34-10.35,1.32-2.12,2.71-2.84,5.13-2.81,8.92.14,17.83.05,26.75.07,1.1,0,2.2.1,3.76.17h0Z"/>
  <path class="cls-1" d="M624.7,1.4c18,0,35.71-.06,53.41.06,2.55.02,5.14.69,7.66,1.29,19.05,4.58,29.42,18.82,28.33,38.83-.98,18.08-13.77,31.83-32.23,34-7.36.86-14.85.79-22.28.81-2.9,0-3.58.94-3.55,3.67.15,10.27.06,20.54.06,30.81v3.83h-31.4V1.4h0ZM656.12,51.56c6-.28,11.64-.09,17.12-.93,6.01-.91,8.96-5.58,8.7-12.17-.26-6.58-3.58-10.75-9.72-11.39-4.69-.48-9.44-.37-14.16-.33-.65,0-1.85,1.07-1.85,1.67-.13,7.5-.08,15.01-.08,23.14Z"/>
  <path class="cls-1" d="M515.68,116.05c-18.43-.56-33.4-7.05-42.19-24.02-9.83-18.98-5.34-44.34,9.86-57.54,20.19-17.53,56.28-14.4,71.2,6.73,11.32,16.04,12.02,33.67,3.47,51.01-8.51,17.24-24.1,23.36-42.34,23.84h0ZM531.68,70.11c-.72-3.51-1.05-6.57-2.01-9.41-2.13-6.3-7.48-10.01-13.8-10-6.35.02-11.47,3.73-13.68,10.14-2.13,6.18-2.03,12.44.32,18.53,2.19,5.69,6.46,8.89,12.61,9.11,6.21.22,11.07-2.44,13.66-8.09,1.51-3.3,2.03-7.05,2.9-10.28Z"/>
  <path class="cls-1" d="M835.94,115.98c-13.83-.22-27.75-4.91-36.87-18.33-11.24-16.55-11.86-34.53-2.52-51.93,9.28-17.3,25.52-23.14,44.26-22.31,18.23.81,32.91,8.42,40.45,25.8,12.11,27.91-.9,66.46-45.3,66.78h0ZM822.62,69.2c.37,2.76.53,5.02,1.01,7.21,1.58,7.28,6.63,11.76,13.47,12.11,6.95.36,12.67-3.73,14.94-10.81,1.77-5.52,1.74-11.11-.11-16.6-2.21-6.6-7.7-10.54-14.23-10.4-6.47.14-11.58,4.04-13.59,10.71-.81,2.67-1.07,5.49-1.5,7.79Z"/>
  <path class="cls-1" d="M460.84,50.61h-16.11c-.12,1.15-.3,2.11-.3,3.07-.02,8.81-.05,17.61,0,26.42.04,5.89,1.83,7.69,7.68,7.83,2.81.07,5.61,0,8.7,0v26.89c-11.01-.03-22.14,1.36-32.55-3.61-10.55-5.04-14.76-14.33-15.33-25.29-.55-10.36-.38-20.77-.25-31.15.04-3.18-.71-4.32-4.07-4.21-7.16.24-7.17.06-7.17-6.96,0-5.3.11-10.62-.05-15.92-.07-2.45.59-3.36,3.21-3.36,8,0,8-.11,8-8.22,0-3.61.06-7.22-.02-10.84-.05-1.9.39-2.9,2.6-2.88,8.92.1,17.84.08,26.76.02,1.97-.02,2.52.81,2.5,2.64-.07,5.42.07,10.84-.07,16.25-.06,2.31.61,3.25,3.04,3.12,3.6-.18,7.23-.16,10.84.04.89.05,2.46,1.1,2.48,1.72.17,7.99.11,15.98.11,24.43h0Z"/>
  <path class="cls-1" d="M757.21,114.74h-31.56c-.06-1.28-.16-2.47-.16-3.67,0-27.64.03-55.29-.07-82.94,0-2.9.64-3.91,3.72-3.84,8.35.22,16.7.15,25.05.03,2.37-.03,3.18.73,3.07,3.11-.17,3.76-.05,7.53.29,11.46,7.56-8.83,16.28-15.02,28.55-15.29v33.69c-1.38,0-2.69-.05-4,0-3.71.15-7.47.05-11.13.59-9.16,1.35-13.5,6.2-13.67,15.54-.21,12.41-.08,24.82-.1,37.23v4.08h0Z"/>
  <circle class="cls-1" cx="911.45" cy="103.11" r="12.87"/>
</svg>