<svg xmlns="http://www.w3.org/2000/svg" fill="currentColor" viewBox="0 0 450.09 471.47">
  <g>
    <path d="M124.91,427.81c1.54-4.29,3.09-8.58,4.63-12.87,1.41-3.92,2.78-7.85,4.27-11.74.21-.56.97-1.28,1.49-1.29,5.4-.09,10.81-.05,16.21-.04.16,0,.31.11.66.23-.64,1.53-1.25,3.02-1.89,4.5-9,20.92-18.01,41.82-26.96,62.76-.66,1.55-1.48,2.05-3.13,2.01-4.52-.11-9.04-.04-13.57-.04h-2.04c.34-.82.57-1.39.82-1.94,3.21-6.98,6.46-13.95,9.61-20.97.36-.8.46-1.99.14-2.76-5.79-13.73-11.67-27.43-17.54-41.13-.12-.29-.32-.55-.84-.76v15.2c-.92,0-1.61,0-2.29,0-1.41.02-2.82-.03-4.23.07-6.08.45-8.63,3.14-8.67,9.24-.04,6.17-.01,12.33-.01,18.5,0,.63,0,1.27,0,2.03h-16.38v-46.8c.45-.05.89-.15,1.34-.15,4.46-.01,8.93.04,13.39-.04,1.34-.02,1.74.43,1.68,1.73-.1,1.91-.03,3.82-.03,6.23.74-.82,1.16-1.26,1.56-1.72,2.79-3.18,6.13-5.52,10.34-6.26,1.62-.28,3.34.03,5.02.04,4.93.01,9.87.03,14.8-.02,1.12-.01,1.64.36,2.03,1.43,2.79,7.66,5.66,15.3,8.51,22.94.2.54.42,1.06.64,1.59.14,0,.28.01.43.02Z"/>
    <path d="M172.45,443.29c0,.61,0,1.23,0,1.84,0,8.16-.04,16.33.03,24.49.01,1.49-.46,1.89-1.9,1.86-4.29-.09-8.57-.03-12.86-.04-.51,0-1.03-.06-1.65-.1v-69.49h3.71c3.7,0,7.4.04,11.1-.02,1.25-.02,1.66.41,1.58,1.63-.09,1.32-.02,2.66-.02,4,.3-.03.47,0,.51-.06,5.53-8.24,21.49-8.95,28.92,2.16,2.86,4.28,4.09,9.04,4.29,14.13.23,5.8-.63,11.36-3.63,16.44-4.64,7.85-13.94,11.34-22.38,8.43-2.98-1.02-5.37-2.84-7.7-5.28ZM172.46,425.72c.03.4.02,1.11.14,1.8.6,3.4,2.24,6.06,5.68,7.16,3.21,1.02,6.16.43,8.58-2.02,3.48-3.54,3.57-10.74.22-14.39-1.83-1.99-4.15-2.82-6.81-2.59-4.86.42-7.84,4.19-7.82,10.03Z"/>
    <path d="M57.82,427.44c-.26,1.01-.44,1.85-.7,2.67-3.58,11.37-13.08,18.61-25.37,19.2-9.96.48-18.77-2.17-25.26-10.2-5.5-6.81-7.08-14.82-6.3-23.36.76-8.38,4.07-15.47,10.83-20.76,10.82-8.47,31.68-8.24,41.44,4.48,2.61,3.4,4.37,7.18,5.34,11.59-.67.05-1.22.12-1.76.13-4.76,0-9.51-.03-14.27.03-1.11.01-1.78-.28-2.39-1.29-2.4-3.99-6.09-5.75-10.66-5.57-4.75.19-8.34,2.45-10.27,6.82-2.43,5.49-2.41,11.09.16,16.54,1.88,3.98,5.18,6.14,9.58,6.46,4.71.34,8.55-1.31,11.1-5.38.69-1.1,1.41-1.48,2.67-1.46,4.64.07,9.28.03,13.91.03.57,0,1.15.05,1.95.09Z"/>
    <path d="M314.4,389.9c9.37,0,18.58-.03,27.78.03,1.33,0,2.68.36,3.98.67,9.91,2.38,15.31,9.79,14.74,20.2-.51,9.4-7.17,16.56-16.77,17.69-3.83.45-7.73.41-11.59.42-1.51,0-1.86.49-1.84,1.91.07,5.34.03,10.68.03,16.03v1.99h-16.33v-58.94ZM330.74,415.99c3.12-.15,6.05-.05,8.91-.48,3.13-.48,4.66-2.9,4.53-6.33-.13-3.42-1.86-5.6-5.06-5.92-2.44-.25-4.91-.19-7.37-.17-.34,0-.96.56-.97.87-.07,3.9-.04,7.81-.04,12.04Z"/>
    <path d="M268.26,449.54c-9.59-.29-17.38-3.67-21.95-12.5-5.11-9.87-2.78-23.07,5.13-29.93,10.5-9.12,29.28-7.49,37.04,3.5,5.89,8.34,6.26,17.52,1.8,26.53-4.43,8.97-12.54,12.15-22.02,12.4ZM276.59,425.64c-.38-1.83-.54-3.42-1.05-4.9-1.11-3.28-3.89-5.21-7.18-5.2-3.3,0-5.97,1.94-7.12,5.28-1.11,3.22-1.06,6.47.16,9.64,1.14,2.96,3.36,4.63,6.56,4.74,3.23.11,5.76-1.27,7.11-4.21.79-1.72,1.06-3.67,1.51-5.35Z"/>
    <path d="M424.28,449.5c-7.19-.11-14.44-2.55-19.18-9.54-5.85-8.61-6.17-17.96-1.31-27.02,4.83-9,13.28-12.04,23.02-11.61,9.48.42,17.12,4.38,21.04,13.42,6.3,14.52-.47,34.57-23.57,34.74ZM417.35,425.17c.19,1.43.28,2.61.52,3.75.82,3.79,3.45,6.12,7.01,6.3,3.61.19,6.59-1.94,7.77-5.63.92-2.87.91-5.78-.05-8.64-1.15-3.43-4.01-5.48-7.4-5.41-3.37.07-6.02,2.1-7.07,5.57-.42,1.39-.56,2.86-.78,4.06Z"/>
    <path d="M239.73,415.5h-8.38c-.06.6-.16,1.1-.16,1.59-.01,4.58-.03,9.16,0,13.74.02,3.07.95,4,4,4.07,1.46.04,2.92,0,4.53,0v13.99c-5.73-.02-11.52.71-16.93-1.88-5.49-2.62-7.68-7.45-7.98-13.16-.29-5.39-.2-10.8-.13-16.21.02-1.65-.37-2.25-2.12-2.19-3.72.12-3.73.03-3.73-3.62,0-2.76.06-5.52-.02-8.28-.04-1.27.31-1.75,1.67-1.75,4.16,0,4.16-.06,4.16-4.27,0-1.88.03-3.76-.01-5.64-.02-.99.2-1.51,1.36-1.5,4.64.05,9.28.04,13.92,0,1.02,0,1.31.42,1.3,1.38-.04,2.82.03,5.64-.03,8.46-.03,1.2.32,1.69,1.58,1.63,1.88-.09,3.76-.08,5.64.02.46.03,1.28.57,1.29.89.09,4.16.06,8.31.06,12.71Z"/>
    <path d="M383.33,448.86h-16.42c-.03-.66-.09-1.29-.09-1.91,0-14.38.02-28.76-.04-43.14,0-1.51.34-2.04,1.94-2,4.34.11,8.69.08,13.03.02,1.23-.02,1.65.38,1.6,1.62-.09,1.96-.02,3.92.15,5.96,3.93-4.6,8.47-7.81,14.85-7.95v17.52c-.72,0-1.4-.02-2.08,0-1.93.08-3.89.02-5.79.31-4.77.7-7.02,3.23-7.11,8.08-.11,6.45-.04,12.91-.05,19.37,0,.64,0,1.27,0,2.12Z"/>
  </g>
  <g>
    <g>
      <path d="M128.08,204.4c2.35-21.5,6.7-42.61,13.14-63.27.36-1.15.93-1.61,2.07-1.93,12.25-3.41,24.5-6.86,36.71-10.41,2.44-.71,4.78-1.84,7.07-2.96,3.25-1.58,6.32-3.46,8.26-7.84,1.23,1.3,3.06,3.25,3.06,3.25,0,0,.93-.48,1.61-.93,2.82-1.86,5.75-3,9.29-2.93,9.76.19,19.52.22,29.27.04,4.56-.09,11.79,4.18,11.79,4.18,0,0,2.36-1.94,3.69-3.04,2.73,5.96,8.03,7.81,13.5,9.24,12.71,3.32,25.44,6.53,38.19,9.71,1.24.31,1.85.76,2.19,2.02,6.15,22.86,11.46,45.91,14.04,69.47l1.95,49.88c-10.09,10.85-18.83,20.54-27.73,32.39-1.1,1.47-1.53,2.86-1.36,4.74,1.26,14.61,2.94,42.61,2.37,56.82-.09,2.28-.83,7.72-3.57,8.39-51.4,12.66-84.08,12.29-137.61,0-2.38-.55-5.87-5.42-5.81-7.86.32-12.01,2.59-33.23,3.87-49.85.21-2.69.54-5.37.62-8.06.02-.86-.45-1.84-.95-2.6-7.55-11.47-21.32-23.66-30.37-33.97M218.37,205.51c-1.35-3.89-4.62-9.66-4.1-13.34,1.21-8.54,3.42-29.71,4.1-31.89.5-1.6,4.57-2.64,6.38-2.63,1.6,0,5.62,1.07,6.01,2.65.54,2.21,3.85,25.06,4.54,32.07.3,2.79-3.06,9.1-4.54,13.13,1.19-.35,10.8-9.46,13.03-13.3,3.9-6.72,8.95-23.44,10.64-29.21,2.04-6.99,2.77-12.14,2.11-22.01-.36-5.34-1.64-10.44-4.35-15.69-1,8.73-5.23,15.49-9.72,22.32-5.61-4.84-10.55-10.31-17.49-13.19,5.5-.3,10.7-1.38,15.4-4.1,1.61-.93,3.22-2.27,4.19-3.83,1.87-3.02.09-5.88-3.48-5.99-2-.06-4.01,0-6.02.02-8.99.05-17.99.08-26.98.15-3.67.03-5.36,2.76-3.39,5.81.97,1.5,2.4,3.06,3.99,3.74,3.58,1.53,7.37,2.6,11.12,3.7,1.3.38,2.73.31,4.51.48-7.12,3.18-11.86,8.73-17.58,13.21-4.66-6.63-8.93-13.27-10.7-21.35-1.1,3.03-2.02,6.08-2.74,9.18-1.79,7.66-.36,20.78.96,27.54,1.51,7.72,7.39,22.6,11.65,29.21,2.38,3.7,11.23,12.85,12.48,13.3Z"/>
      <path d="M224.47,110.69c-30.81,0-55.42-24.78-55.21-55.98C169.48,23.51,195.35-.54,225.59,0c30.3.55,55.41,25.78,54.29,57.37-1.08,30.4-26.23,53.53-55.41,53.31ZM222.83,89.26c.7-2.8,1.44-5.45,1.99-8.14.3-1.47.91-1.87,2.39-1.64,2.1.32,4.25.42,6.38.51,9.25.39,13.43-6.28,14.11-13.6.26-2.84-.7-5.32-2.85-7.26-1.04-.95-2.17-1.8-3.01-2.48,1.55-1.14,3.37-2.03,4.55-3.44,4.48-5.38,3.18-12.66-2.86-16.41-2.09-1.3-4.41-2.25-6.75-3.43.77-3.18,1.54-6.37,2.34-9.71-2.04-.52-3.88-.99-5.87-1.5-.83,3.28-1.62,6.39-2.46,9.65-1.76-.42-3.26-.79-4.9-1.18.8-3.33,1.54-6.45,2.34-9.76-2.1-.49-3.94-.91-5.89-1.36-.7,2.74-1.45,5.19-1.91,7.69-.33,1.81-1.03,2.24-2.78,1.74-3.28-.95-6.62-1.7-10.04-2.56-.54,2.24-1.02,4.22-1.53,6.33,1.46.37,2.74.64,3.98,1.02,2.96.9,3.61,2.13,2.86,5.11-1.89,7.5-3.76,15-5.63,22.5-1.3,5.24-1.28,5.21-6.58,4.17-.59-.12-1.67.26-1.92.73-.93,1.76-1.61,3.65-2.46,5.67,4.1,1.06,8.07,2.08,12.1,3.12-.86,3.49-1.65,6.69-2.48,10.05,2.03.51,3.87.98,5.91,1.49.89-3.41,1.73-6.65,2.59-9.94,1.08.28,1.93.59,2.81.71,1.78.23,2.02,1.09,1.53,2.7-.76,2.48-1.27,5.04-1.93,7.71,1.99.51,3.78.97,5.94,1.52Z"/>
      <path d="M230.19,140.97c.71.06,3.06.27,3.06.91,0,1.54-.01,3.95,0,5.23,0,2.96-5.16,9.15-8.47,9.15s-8.82-5.74-8.82-9.15v-5.28c0-.87,1.34-.79,2.98-.95,2.12-.21,9.07-.1,11.27.09Z"/>
    </g>
    <path d="M216.45,69.04c.98-3.95,1.94-7.96,3.03-11.93.11-.4,1.07-.96,1.46-.85,3.48,1.05,7.06,1.95,10.33,3.51,1.62.77,3.16,2.62,3.79,4.33,1.13,3.08-.95,6.07-4.19,6.9-3.39.87-11.07-.14-14.41-1.96Z"/>
    <path d="M221.15,50.19c1.12-4.49,2.09-8.35,3.16-12.63,2.96.95,5.83,1.66,8.52,2.79,3.25,1.36,4.76,3.86,4.29,6.34-.62,3.26-2.45,4.95-6.38,4.89-3.11-.05-6.2-.86-9.6-1.38Z"/>
  </g>
</svg>