<?xml version="1.0" encoding="UTF-8"?>
<svg id="Layer_1" data-name="Layer 1" xmlns="http://www.w3.org/2000/svg" version="1.1" viewBox="0 0 1077.3 1100">
  <defs>
    <style>
      .cls-1 {
        fill: #1e1e1e;
        stroke-width: 0px;
      }
    </style>
  </defs>
  <g>
    <g>
      <path class="cls-1" d="M331.7,942.3c3.1-8.5,6.1-17,9.2-25.6,2.8-7.8,5.5-15.6,8.5-23.3.4-1.1,1.9-2.5,3-2.6,10.7-.2,21.5,0,32.2,0,.3,0,.6.2,1.3.5-1.3,3-2.5,6-3.7,8.9-17.9,41.5-35.8,83.1-53.5,124.7-1.3,3.1-2.9,4.1-6.2,4-9-.2-18,0-26.9,0h-4c.7-1.6,1.1-2.8,1.6-3.9,6.4-13.9,12.8-27.7,19.1-41.6.7-1.6.9-3.9.3-5.5-11.5-27.3-23.2-54.5-34.8-81.7-.2-.6-.6-1.1-1.7-1.5v30.2c-1.8,0-3.2,0-4.6,0-2.8,0-5.6,0-8.4.1-12.1.9-17.1,6.2-17.2,18.4,0,12.2,0,24.5,0,36.8,0,1.3,0,2.5,0,4h-32.5v-93c.9-.1,1.8-.3,2.7-.3,8.9,0,17.7,0,26.6,0,2.7,0,3.5.8,3.3,3.4-.2,3.8,0,7.6,0,12.4,1.5-1.6,2.3-2.5,3.1-3.4,5.5-6.3,12.2-11,20.5-12.4,3.2-.6,6.6,0,10,0,9.8,0,19.6,0,29.4,0,2.2,0,3.3.7,4,2.8,5.5,15.2,11.2,30.4,16.9,45.6.4,1.1.8,2.1,1.3,3.2.3,0,.6,0,.8,0Z"/>
      <path class="cls-1" d="M426.1,973.1c0,1.2,0,2.4,0,3.7,0,16.2,0,32.4,0,48.6,0,3-.9,3.7-3.8,3.7-8.5-.2-17,0-25.5,0-1,0-2-.1-3.3-.2v-138h7.4c7.3,0,14.7,0,22,0,2.5,0,3.3.8,3.1,3.2-.2,2.6,0,5.3,0,8,.6,0,.9,0,1-.1,11-16.4,42.7-17.8,57.4,4.3,5.7,8.5,8.1,18,8.5,28.1.5,11.5-1.2,22.6-7.2,32.7-9.2,15.6-27.7,22.5-44.5,16.8-5.9-2-10.7-5.6-15.3-10.5ZM426.2,938.2c0,.8,0,2.2.3,3.6,1.2,6.8,4.4,12,11.3,14.2,6.4,2,12.2.9,17-4,6.9-7,7.1-21.3.4-28.6-3.6-4-8.3-5.6-13.5-5.1-9.6.8-15.6,8.3-15.5,19.9Z"/>
      <path class="cls-1" d="M198.4,941.6c-.5,2-.9,3.7-1.4,5.3-7.1,22.6-26,37-50.4,38.1-19.8,1-37.3-4.3-50.2-20.3-10.9-13.5-14.1-29.4-12.5-46.4,1.5-16.6,8.1-30.7,21.5-41.2,21.5-16.8,62.9-16.4,82.3,8.9,5.2,6.8,8.7,14.3,10.6,23-1.3,0-2.4.2-3.5.2-9.4,0-18.9,0-28.3,0-2.2,0-3.5-.6-4.8-2.6-4.8-7.9-12.1-11.4-21.2-11.1-9.4.4-16.6,4.9-20.4,13.5-4.8,10.9-4.8,22,.3,32.9,3.7,7.9,10.3,12.2,19,12.8,9.4.7,17-2.6,22-10.7,1.4-2.2,2.8-2.9,5.3-2.9,9.2.1,18.4,0,27.6,0,1.1,0,2.3.1,3.9.2Z"/>
      <path class="cls-1" d="M708.1,867c18.6,0,36.9,0,55.2,0,2.6,0,5.3.7,7.9,1.3,19.7,4.7,30.4,19.5,29.3,40.1-1,18.7-14.2,32.9-33.3,35.1-7.6.9-15.3.8-23,.8-3,0-3.7,1-3.7,3.8.1,10.6,0,21.2,0,31.8v4h-32.4v-117.1ZM740.6,918.8c6.2-.3,12,0,17.7-1,6.2-.9,9.3-5.8,9-12.6-.3-6.8-3.7-11.1-10-11.8-4.8-.5-9.8-.4-14.6-.3-.7,0-1.9,1.1-1.9,1.7-.1,7.8,0,15.5,0,23.9Z"/>
      <path class="cls-1" d="M616.5,985.5c-19-.6-34.5-7.3-43.6-24.8-10.2-19.6-5.5-45.8,10.2-59.5,20.9-18.1,58.2-14.9,73.6,7,11.7,16.6,12.4,34.8,3.6,52.7-8.8,17.8-24.9,24.1-43.7,24.6ZM633,938c-.8-3.6-1.1-6.8-2.1-9.7-2.2-6.5-7.7-10.4-14.3-10.3-6.6,0-11.9,3.8-14.1,10.5-2.2,6.4-2.1,12.9.3,19.2,2.3,5.9,6.7,9.2,13,9.4,6.4.2,11.4-2.5,14.1-8.4,1.6-3.4,2.1-7.3,3-10.6Z"/>
      <path class="cls-1" d="M926.4,985.4c-14.3-.2-28.7-5.1-38.1-18.9-11.6-17.1-12.3-35.7-2.6-53.7,9.6-17.9,26.4-23.9,45.7-23.1,18.8.8,34,8.7,41.8,26.7,12.5,28.8-.9,68.7-46.8,69ZM912.6,937.1c.4,2.8.5,5.2,1,7.4,1.6,7.5,6.8,12.1,13.9,12.5,7.2.4,13.1-3.8,15.4-11.2,1.8-5.7,1.8-11.5-.1-17.2-2.3-6.8-8-10.9-14.7-10.7-6.7.1-12,4.2-14,11.1-.8,2.8-1.1,5.7-1.6,8.1Z"/>
      <path class="cls-1" d="M559.8,917.9h-16.6c-.1,1.2-.3,2.2-.3,3.2,0,9.1,0,18.2,0,27.3,0,6.1,1.9,7.9,7.9,8.1,2.9,0,5.8,0,9,0v27.8c-11.4,0-22.9,1.4-33.6-3.7-10.9-5.2-15.2-14.8-15.8-26.1-.6-10.7-.4-21.5-.3-32.2,0-3.3-.7-4.5-4.2-4.3-7.4.2-7.4,0-7.4-7.2,0-5.5.1-11,0-16.5,0-2.5.6-3.5,3.3-3.5,8.3,0,8.3-.1,8.3-8.5,0-3.7,0-7.5,0-11.2,0-2,.4-3,2.7-3,9.2,0,18.4,0,27.7,0,2,0,2.6.8,2.6,2.7,0,5.6,0,11.2,0,16.8,0,2.4.6,3.4,3.1,3.2,3.7-.2,7.5-.2,11.2,0,.9,0,2.5,1.1,2.6,1.8.2,8.3.1,16.5.1,25.2Z"/>
      <path class="cls-1" d="M845.1,984.1h-32.6c0-1.3-.2-2.6-.2-3.8,0-28.6,0-57.1,0-85.7,0-3,.7-4,3.8-4,8.6.2,17.3.2,25.9,0,2.4,0,3.3.8,3.2,3.2-.2,3.9,0,7.8.3,11.8,7.8-9.1,16.8-15.5,29.5-15.8v34.8c-1.4,0-2.8,0-4.1,0-3.8.2-7.7,0-11.5.6-9.5,1.4-14,6.4-14.1,16.1-.2,12.8,0,25.7-.1,38.5,0,1.3,0,2.5,0,4.2Z"/>
    </g>
    <g>
      <g>
        <path class="cls-1" d="M376,456.4s1.6-32.3,23-110.6c0-.3.4-1.3,1.2-2.1.6-.6,1.4-.9,2.4-1.2,21.4-6,42.8-12,64.2-18.2,4.3-1.2,8.3-3.2,12.4-5.2,5.7-2.8,11-6,14.4-13.7,2.2,2.3,5.3,5.7,5.3,5.7,0,0,1.6-.8,2.8-1.6,4.9-3.3,10.1-5.2,16.2-5.1,17.1.3,34.1.4,51.2,0,8-.1,20.6,7.3,20.6,7.3,0,0,4.1-3.4,6.4-5.3,4.8,10.4,14,13.7,23.6,16.2,22.2,5.8,44.5,11.4,66.8,17,2.2.5,3.2,1.3,3.8,3.5,10.8,40,20,80.3,24.6,121.5l3.4,87.2c-17.7,19-32.9,35.9-48.5,56.6-1.9,2.6-2.7,5-2.4,8.3,2.2,25.5,5.1,74.5,4.1,99.3-.2,4-1.5,13.5-6.2,14.7-89.9,22.1-147,21.5-240.6,0-4.2-1-10.3-9.5-10.2-13.7.6-21,4.5-58.1,6.8-87.2.4-4.7,1-9.4,1.1-14.1,0,0-.6-2.3-1.7-4.6-4.7-9.6-50.1-56.3-53.1-59.4,4.9-40.4,7.1-72.7,8.2-95.3ZM533.8,458.3c-2.4-6.8-8.1-16.9-7.2-23.3,2.1-14.9,6-52,7.2-55.8.9-2.8,8-4.6,11.2-4.6,2.8,0,9.8,1.9,10.5,4.6.9,3.9,6.7,43.8,7.9,56.1.5,4.9-5.4,15.9-7.9,23,2.1-.6,18.9-16.5,22.8-23.3,6.8-11.8,15.7-41,18.6-51.1s4.8-21.2,3.7-38.5c-.6-9.3-2.9-18.3-7.6-27.4-1.7,15.3-9.2,27.1-17,39-9.8-8.5-18.4-18-30.6-23.1,9.6-.5,18.7-2.4,26.9-7.2,2.8-1.6,5.6-4,7.3-6.7,3.3-5.3.2-10.3-6.1-10.5-3.5-.1-7,0-10.5,0-15.7,0-31.5.1-47.2.3-6.4,0-9.4,4.8-5.9,10.2,1.7,2.6,4.2,5.4,7,6.5,6.3,2.7,12.9,4.5,19.5,6.5,2.3.7,4.8.5,7.9.8-12.4,5.6-20.7,15.3-30.7,23.1-8.1-11.6-15.6-23.2-18.7-37.3-1.9,5.3-3.5,10.6-4.8,16-3.1,13.4-.6,36.3,1.7,48.2,2.6,13.5,12.9,39.5,20.4,51.1,4.2,6.5,19.6,22.5,21.8,23.3Z"/>
        <path class="cls-1" d="M544.5,292.5c-53.9,0-96.9-43.3-96.5-97.9.4-54.5,45.6-96.6,98.5-95.6,53,1,96.9,45.1,94.9,100.3-1.9,53.2-45.9,93.6-96.9,93.2ZM541.6,255.1c1.2-4.9,2.5-9.5,3.5-14.2.5-2.6,1.6-3.3,4.2-2.9,3.7.6,7.4.7,11.2.9,16.2.7,23.5-11,24.7-23.8.5-5-1.2-9.3-5-12.7-1.8-1.7-3.8-3.1-5.3-4.3,2.7-2,5.9-3.5,7.9-6,7.8-9.4,5.6-22.1-5-28.7-3.7-2.3-7.7-3.9-11.8-6,1.3-5.6,2.7-11.1,4.1-17-3.6-.9-6.8-1.7-10.3-2.6-1.5,5.7-2.8,11.2-4.3,16.9-3.1-.7-5.7-1.4-8.6-2.1,1.4-5.8,2.7-11.3,4.1-17.1-3.7-.9-6.9-1.6-10.3-2.4-1.2,4.8-2.5,9.1-3.3,13.4-.6,3.2-1.8,3.9-4.9,3-5.7-1.7-11.6-3-17.6-4.5-.9,3.9-1.8,7.4-2.7,11.1,2.6.6,4.8,1.1,7,1.8,5.2,1.6,6.3,3.7,5,8.9-3.3,13.1-6.6,26.2-9.8,39.3-2.3,9.2-2.2,9.1-11.5,7.3-1-.2-2.9.5-3.3,1.3-1.6,3.1-2.8,6.4-4.3,9.9,7.2,1.8,14.1,3.6,21.2,5.5-1.5,6.1-2.9,11.7-4.3,17.6,3.5.9,6.8,1.7,10.3,2.6,1.6-6,3-11.6,4.5-17.4,1.9.5,3.4,1,4.9,1.2,3.1.4,3.5,1.9,2.7,4.7-1.3,4.3-2.2,8.8-3.4,13.5,3.5.9,6.6,1.7,10.4,2.7Z"/>
        <path class="cls-1" d="M554.5,345.5c1.2.1,5.3.5,5.3,1.6,0,2.7,0,6.9,0,9.1,0,5.2-9,16-14.8,16s-15.4-10-15.4-16v-9.2c0-1.5,2.3-1.4,5.2-1.7s15.9-.2,19.7.1Z"/>
      </g>
      <path class="cls-1" d="M530.5,219.7c1.7-6.9,3.4-13.9,5.3-20.9.2-.7,1.9-1.7,2.5-1.5,6.1,1.8,12.4,3.4,18.1,6.1,2.8,1.3,5.5,4.6,6.6,7.6,2,5.4-1.7,10.6-7.3,12.1-5.9,1.5-19.4-.2-25.2-3.4Z"/>
      <path class="cls-1" d="M538.7,186.8c2-7.8,3.7-14.6,5.5-22.1,5.2,1.7,10.2,2.9,14.9,4.9,5.7,2.4,8.3,6.8,7.5,11.1-1.1,5.7-4.3,8.7-11.2,8.5-5.4,0-10.8-1.5-16.8-2.4Z"/>
    </g>
  </g>
  <path class="cls-1" d="M-286.9,878.6"/>
</svg>